<svg id="Vrstva_2" data-name="Vrstva 2" xmlns="http://www.w3.org/2000/svg" xmlns:xlink="http://www.w3.org/1999/xlink" viewBox="0 0 1501.37 912.99"><defs><style>.cls-1{fill:url(#Nepojmenovaný_přechod_25);}.cls-2{fill:url(#Nepojmenovaný_přechod_29);}.cls-3{fill:#706f6f;}.cls-4{fill:#1d1d1b;}.cls-5{fill:#28a1ea;}.cls-6{fill:#a3acb2;}.cls-7{fill:#b9c3cc;}.cls-8{fill:#939ca0;}.cls-9{fill:#d0dd72;}.cls-10{fill:#adaf54;}.cls-11{fill:#cccc64;}.cls-12{fill:#ccc566;}.cls-13{fill:#bac165;}.cls-14{fill:#b5b368;}.cls-15{fill:#dedc00;}.cls-16,.cls-17,.cls-18{fill:#e7f3ff;}.cls-17,.cls-19{stroke:#809e10;}.cls-17,.cls-18,.cls-19,.cls-193{stroke-miterlimit:10;stroke-width:2px;}.cls-18,.cls-193{stroke:#6c820f;}.cls-19,.cls-193{fill:none;stroke-linecap:round;}.cls-20{fill:#95c11f;}.cls-21{fill:#8aaf17;}.cls-22{fill:#a2bf26;}.cls-23{fill:#87991f;}.cls-24{fill:#adbc22;}.cls-25{fill:#989e2d;}.cls-26{fill:#80a313;}.cls-27{fill:#c8e589;}.cls-28{fill:#77a004;}.cls-29{fill:#bac92d;}.cls-30{fill:#878e02;}.cls-31{fill:#8eba13;}.cls-32{fill:#7a990a;}.cls-33{fill:#b1d80e;}.cls-34{fill:#8da307;}.cls-35{fill:#849907;}.cls-36{fill:#99b204;}.cls-37{fill:#597c01;}.cls-38{fill:#a7dd00;}.cls-39{fill:#84a304;}.cls-40{fill:#85c102;}.cls-41{fill:#97bf04;}.cls-42{fill:#7d9905;}.cls-43{fill:#b3d102;}.cls-44{fill:#9aaa02;}.cls-45{fill:#afc433;}.cls-46{fill:#a8d113;}.cls-47{fill:#7c9904;}.cls-48{fill:#b9d12c;}.cls-49{fill:#79a308;}.cls-50{fill:#a0c920;}.cls-51{fill:#819e0b;}.cls-52{fill:#8fb224;}.cls-53{fill:#a3c905;}.cls-54{fill:#8aa519;}.cls-55{fill:#a4cc12;}.cls-56{fill:#8ca525;}.cls-57{fill:#84961d;}.cls-58{fill:#92b70d;}.cls-59{fill:#9dbf10;}.cls-60{fill:#8ba00b;}.cls-61{fill:#5f8e16;}.cls-62{fill:#86c618;}.cls-63{fill:#71a017;}.cls-64{fill:#85bc0d;}.cls-65{fill:#7fa516;}.cls-66{fill:#aad120;}.cls-67{fill:#87a50c;}.cls-68{fill:#97c114;}.cls-69{fill:#90af0e;}.cls-70{fill:#9cad36;}.cls-71{fill:#9ad812;}.cls-72{fill:#7da01d;}.cls-73{fill:#a2c61e;}.cls-74{fill:#86a015;}.cls-75{fill:#b0c439;}.cls-76{fill:#80ad2a;}.cls-77{fill:#9ece36;}.cls-78{fill:#82aa15;}.cls-79{fill:#8ba51e;}.cls-80{fill:#bcd621;}.cls-81{fill:#60870b;}.cls-82{fill:#94c60c;}.cls-83{fill:#7d9b10;}.cls-84{fill:#9fbf16;}.cls-85{fill:#73ad0e;}.cls-86{fill:#93ba49;}.cls-87{fill:#729b18;}.cls-88{fill:#8fbc13;}.cls-89{fill:#aed813;}.cls-90{fill:#9dbc1d;}.cls-91{fill:#9caf28;}.cls-92{fill:#aaba13;}.cls-93{fill:#64890b;}.cls-94{fill:#98c609;}.cls-95{fill:#89a31d;}.cls-96{fill:#9ccc17;}.cls-97{fill:#86a514;}.cls-98{fill:#aed313;}.cls-99{fill:#a0b718;}.cls-100{fill:#84d115;}.cls-101{fill:#85b236;}.cls-102{fill:#a0cc17;}.cls-103{fill:#afd641;}.cls-104{fill:#94b51f;}.cls-105{fill:#a7c917;}.cls-106{fill:#83ad0e;}.cls-107{fill:#7ca311;}.cls-108{fill:#a2c914;}.cls-109{fill:#b9d34f;}.cls-110{fill:#9fb51f;}.cls-111{fill:#99c914;}.cls-112{fill:#91af23;}.cls-113{fill:#829b19;}.cls-114{fill:#aec620;}.cls-115{fill:#6fa313;}.cls-116{fill:#8ac40a;}.cls-117{fill:#6aa015;}.cls-118{fill:#83c116;}.cls-119{fill:#98d318;}.cls-120{fill:#89af1e;}.cls-121{fill:#95ce17;}.cls-122{fill:#c3d880;}.cls-123{fill:#a8c140;}.cls-124{fill:#8da018;}.cls-125{fill:#a2ce17;}.cls-126{fill:#70a513;}.cls-127{fill:#97cc25;}.cls-128{fill:#83ad10;}.cls-129{fill:#a2c912;}.cls-130{fill:#85a012;}.cls-131{fill:#94bf0d;}.cls-132{fill:#b9d34c;}.cls-133{fill:#9aaf20;}.cls-134{fill:#6ba511;}.cls-135{fill:#88c61c;}.cls-136{fill:#97d316;}.cls-137{fill:#85b20b;}.cls-138{fill:#a6cc1f;}.cls-139{fill:#8dd61a;}.cls-140{fill:#7eb51d;}.cls-141{fill:#8fc41a;}.cls-142{fill:#79a00e;}.cls-143{fill:#abd122;}.cls-144{fill:#8aa517;}.cls-145{fill:#8dd316;}.cls-146{fill:#a4d118;}.cls-147{fill:#6da30d;}.cls-148{fill:#a0d118;}.cls-149{fill:#90b214;}.cls-150{fill:#bfd859;}.cls-151{fill:#8ec13e;}.cls-152{fill:#a4d64c;}.cls-153{fill:#8ab232;}.cls-154{fill:#9bc91f;}.cls-155{fill:#7ea319;}.cls-156{fill:#87c624;}.cls-157{fill:#86b21b;}.cls-158{fill:#a2cc21;}.cls-159{fill:#90aa22;}.cls-160{fill:#b6ce28;}.cls-161{fill:#8bb21f;}.cls-162{fill:#97ce2e;}.cls-163{fill:#bae264;}.cls-164{fill:#82af35;}.cls-165{fill:#88b22d;}.cls-166{fill:#83d821;}.cls-167{fill:#6bb20f;}.cls-168{fill:#c3e094;}.cls-169{fill:#82db03;}.cls-170{fill:#b8dd6f;}.cls-171{fill:#96ba3e;}.cls-172{fill:#819e2a;}.cls-173{fill:#91ce25;}.cls-174{fill:#7fad1a;}.cls-175{fill:#a1ce24;}.cls-176{fill:#87a51b;}.cls-177{fill:#94d621;}.cls-178{fill:#85b71a;}.cls-179{fill:#77a012;}.cls-180{fill:#9ac121;}.cls-181{fill:#89a02a;}.cls-182{fill:#b2d372;}.cls-183{fill:#91aa52;}.cls-184{fill:#a3c43d;}.cls-185{fill:#67a50e;}.cls-186{fill:#b4d67b;}.cls-187{fill:#88b238;}.cls-188{fill:#76a314;}.cls-189{fill:#9bc626;}.cls-190{fill:#8ead1f;}.cls-191{fill:#a4c12b;}.cls-192{fill:#c4d179;}.cls-194{fill:#81a020;}.cls-195{fill:#bbcc75;}.cls-196{fill:#9daf35;}.cls-197{fill:#98d12a;}.cls-198{fill:#83af23;}.cls-199{fill:#9fce20;}.cls-200{fill:#63aa11;}.cls-201{fill:#86d126;}.cls-202{fill:#71ad1a;}.cls-203{fill:#b3d180;}.cls-204{fill:#84af33;}.cls-205{fill:#99ce24;}.cls-206{fill:#8da54c;}.cls-207{fill:#aed366;}.cls-208{fill:#7aa01c;}.cls-209{fill:#add62d;}.cls-210{fill:#72ad15;}.cls-211{fill:#92ce20;}.cls-212{fill:#85b718;}.cls-213{fill:#a1d31a;}.cls-214{fill:#72af12;}.cls-215{fill:#96d627;}.cls-216{fill:#77a81a;}.cls-217{fill:#a3d320;}.cls-218{fill:#70af1e;}.cls-219{fill:#8fd81d;}.cls-220{fill:#7bb515;}.cls-221{fill:#96ce1d;}.cls-222{fill:#6ca316;}.cls-223{fill:#b6db75;}.cls-224{fill:#94bf37;}.cls-225{fill:#7a9e18;}.cls-226{fill:#98d33c;}.cls-227{fill:#7cb21d;}.cls-228{fill:#719919;}.cls-229{fill:#9dc923;}.cls-230{fill:#8baa1b;}.cls-231{fill:#abcc21;}.cls-232{fill:#879b13;}.cls-233{fill:#a0d62b;}.cls-234{fill:#88af1c;}.cls-235{fill:#a9ce24;}.cls-236{fill:#95b218;}.cls-237{fill:#7d8e16;}.cls-238{fill:#bfc95f;}.cls-239{fill:#959b1e;}.cls-240{fill:#89c612;}.cls-241{fill:#7ea51c;}.cls-242{fill:#a2cc1f;}.cls-243{fill:#71aa17;}.cls-244{fill:#b7e068;}.cls-245{fill:#92bf30;}.cls-246{fill:#a3d35f;}.cls-247{fill:#76af1c;}.cls-248{fill:#9ad350;}.cls-249{fill:#7caf2c;}.cls-250{fill:#a2ce55;}.cls-251{fill:#86ad31;}.cls-252{fill:#92cc40;}.cls-253{fill:#79b21f;}.cls-254{fill:#b3dd64;}.cls-255{fill:#8fbc2e;}.cls-256{fill:#a2ce29;}.cls-257{fill:#84a316;}.cls-258{fill:#7ecc19;}.cls-259{fill:#6eaf12;}.cls-260{fill:#acdd5e;}.cls-261{fill:#8bba31;}.cls-262{fill:#a6ce4d;}.cls-263{fill:#83a81e;}.cls-264{fill:#6e841e;}.cls-265{fill:#96d346;}.cls-266{fill:#77af1e;}.cls-267{fill:#94d120;}.cls-268{fill:#7ba818;}.cls-269{fill:#a1cc29;}.cls-270{fill:#95b71c;}.cls-271{fill:#a1d82a;}.cls-272{fill:#5b9b12;}.cls-273{fill:#7ec127;}.cls-274{fill:#7ca53a;}.cls-275{fill:#9ed830;}.cls-276{fill:#83b711;}.cls-277{fill:#b7d85b;}.cls-278{fill:#96b720;}.cls-279{fill:#8bb729;}.cls-280{fill:#aae069;}.cls-281{fill:#83b53a;}.cls-282{fill:#9fdd33;}.cls-283{fill:#83b71d;}.cls-284{fill:#bfdd76;}.cls-285{fill:#9ebc3f;}.cls-286{fill:#87a01f;}.cls-287{fill:#7eb219;}.cls-288{fill:#b7d66b;}.cls-289{fill:#96b533;}.cls-290{fill:#90d622;}.cls-291{fill:#7cb715;}.cls-292{fill:#97d841;}.cls-293{fill:#7bb71c;}.cls-294{fill:#a6e036;}.cls-295{fill:#80b214;}.cls-296{fill:#8da05a;}.cls-297{fill:#707f32;}.cls-298{fill:#8bad21;}.cls-299{fill:#9bd339;}.cls-300{fill:#84aa30;}.cls-301{fill:#b0db3a;}.cls-302{fill:#96b526;}.cls-303{fill:#88d12a;}.cls-304{fill:#71ad1c;}.cls-305{fill:#80d612;}.cls-306{fill:#6baa11;}.cls-307{fill:#6dc618;}.cls-308{fill:#5aa010;}.cls-309{fill:#78cc1f;}.cls-310{fill:#5da00e;}.cls-311{fill:#7bcc12;}.cls-312{fill:#6caa0b;}.cls-313{fill:#96db6a;}.cls-314{fill:#68a341;}.cls-315{fill:#66dd28;}.cls-316{fill:#55ad21;}.cls-317{fill:#79cc19;}.cls-318{fill:#64a017;}.cls-319{fill:#8cd81e;}.cls-320{fill:#89d819;}.cls-321{fill:#6eaf08;}.cls-322{fill:#8cd115;}.cls-323{fill:#7baa22;}.cls-324{fill:#b2d663;}.cls-325{fill:#99bc3b;}.cls-326{fill:#abd625;}.cls-327{fill:#97b518;}.cls-328{fill:#a4dd17;}.cls-329{fill:#96bf16;}.cls-330{fill:#c3db5d;}.cls-331{fill:#a1b723;}.cls-332{fill:#92c918;}.cls-333{fill:#7ea514;}.cls-334{fill:#b0d821;}.cls-335{fill:#99b22f;}.cls-336{fill:#bdd81d;}.cls-337{fill:#9baa0e;}.cls-338{fill:#a0d119;}.cls-339{fill:#87a80e;}.cls-340{fill:#b0d80b;}.cls-341{fill:#6eb20b;}.cls-342{fill:url(#Nepojmenovaný_přechod_22);}</style><linearGradient id="Nepojmenovaný_přechod_25" y1="668.73" x2="1501.37" y2="668.73" gradientUnits="userSpaceOnUse"><stop offset="0" stop-color="#fff" stop-opacity="0"/><stop offset="0.02" stop-color="#efe5db" stop-opacity="0.2"/><stop offset="0.05" stop-color="#dfcab5" stop-opacity="0.41"/><stop offset="0.08" stop-color="#d1b393" stop-opacity="0.59"/><stop offset="0.11" stop-color="#c5a079" stop-opacity="0.74"/><stop offset="0.14" stop-color="#bc9164" stop-opacity="0.86"/><stop offset="0.18" stop-color="#b68755" stop-opacity="0.94"/><stop offset="0.22" stop-color="#b2814d" stop-opacity="0.99"/><stop offset="0.3" stop-color="#b17f4a"/><stop offset="0.7" stop-color="#b17f4a"/><stop offset="0.78" stop-color="#b2814d" stop-opacity="0.99"/><stop offset="0.82" stop-color="#b68755" stop-opacity="0.94"/><stop offset="0.86" stop-color="#bc9164" stop-opacity="0.86"/><stop offset="0.89" stop-color="#c5a079" stop-opacity="0.74"/><stop offset="0.92" stop-color="#d1b393" stop-opacity="0.59"/><stop offset="0.95" stop-color="#dfcab5" stop-opacity="0.41"/><stop offset="0.98" stop-color="#efe5db" stop-opacity="0.2"/><stop offset="1" stop-color="#fff" stop-opacity="0"/></linearGradient><linearGradient id="Nepojmenovaný_přechod_29" y1="631.7" x2="1501.37" y2="631.7" gradientUnits="userSpaceOnUse"><stop offset="0" stop-color="#fff" stop-opacity="0"/><stop offset="0.01" stop-color="#fbf7f3" stop-opacity="0.08"/><stop offset="0.03" stop-color="#efe2d2" stop-opacity="0.29"/><stop offset="0.06" stop-color="#e5d0b5" stop-opacity="0.48"/><stop offset="0.08" stop-color="#ddc09d" stop-opacity="0.64"/><stop offset="0.11" stop-color="#d6b489" stop-opacity="0.77"/><stop offset="0.15" stop-color="#d1aa7a" stop-opacity="0.88"/><stop offset="0.18" stop-color="#cda36f" stop-opacity="0.95"/><stop offset="0.23" stop-color="#cb9f69" stop-opacity="0.99"/><stop offset="0.3" stop-color="#ca9e67"/><stop offset="0.7" stop-color="#ca9e67"/><stop offset="0.77" stop-color="#cb9f69" stop-opacity="0.99"/><stop offset="0.82" stop-color="#cda36f" stop-opacity="0.95"/><stop offset="0.85" stop-color="#d1aa7a" stop-opacity="0.88"/><stop offset="0.89" stop-color="#d6b489" stop-opacity="0.77"/><stop offset="0.92" stop-color="#ddc09d" stop-opacity="0.64"/><stop offset="0.94" stop-color="#e5d0b5" stop-opacity="0.48"/><stop offset="0.97" stop-color="#efe2d2" stop-opacity="0.29"/><stop offset="0.99" stop-color="#fbf7f3" stop-opacity="0.08"/><stop offset="1" stop-color="#fff" stop-opacity="0"/></linearGradient><radialGradient id="Nepojmenovaný_přechod_22" cx="830.31" cy="343.9" r="351.01" gradientTransform="translate(-378.91 -23.12) scale(1.33 1.02)" gradientUnits="userSpaceOnUse"><stop offset="0" stop-color="#009fe3" stop-opacity="0.7"/><stop offset="0.12" stop-color="#0ea4e4" stop-opacity="0.66"/><stop offset="0.31" stop-color="#32b2e9" stop-opacity="0.56"/><stop offset="0.55" stop-color="#6fc9ef" stop-opacity="0.4"/><stop offset="0.82" stop-color="#c1e8f8" stop-opacity="0.17"/><stop offset="1" stop-color="#fff" stop-opacity="0"/></radialGradient></defs><rect id="stůl" class="cls-1" y="644.75" width="1501.37" height="47.95"/><polygon class="cls-2" points="1501.37 644.75 0 644.75 42.85 618.64 1467.2 618.64 1501.37 644.75"/><polygon class="cls-3" points="1134.59 642.58 325.38 642.58 357.38 622.43 1104.59 622.43 1134.59 642.58"/><g id="monitor"><path class="cls-4" d="M475.14,169.43H973.48a16.72,16.72,0,0,1,16.72,16.72V486.77a0,0,0,0,1,0,0H458.42a0,0,0,0,1,0,0V186.15A16.72,16.72,0,0,1,475.14,169.43Z"/><rect class="cls-5" x="802.35" y="102.39" width="275.34" height="489.78" transform="translate(1071.59 -611.92) rotate(90)"/><polygon class="cls-6" points="795.2 624.82 656.94 624.82 664.24 539.26 785.29 539.26 795.2 624.82"/><path class="cls-7" d="M674.13,506.85v41.87a16.72,16.72,0,0,0,16.72,16.71H1189.2a16.71,16.71,0,0,0,16.71-16.71V505Z" transform="translate(-215.71 -19.18)"/><g id="paw_logo" data-name="paw logo"><path class="cls-4" d="M939.39,531.91c-1,.35-1.82,1.51-2,3.68a18.15,18.15,0,0,1-2,5.91c-.65,1.38-1.37,4.23.14,5.44a4.34,4.34,0,0,0,5.09,0c1.34-1,2.62-2.38,3.65-2.69s5.09.18,6.64-1.27,1.75-3.4.41-4.71a10.9,10.9,0,0,0-3.68-2.24,19.85,19.85,0,0,1-4.37-2.66c-1-1-1.65-1.53-2.48-1.64S940.63,531.49,939.39,531.91Z" transform="translate(-215.71 -19.18)"/><path class="cls-4" d="M927.9,532.25c-.86.2-1.72,2.89-.69,6s4.51,4.3,5.23,2.72a7.08,7.08,0,0,0-.58-5.78C930.89,533.49,929.69,531.84,927.9,532.25Z" transform="translate(-215.71 -19.18)"/><path class="cls-4" d="M931.72,522.52c-1.27.3-2.75,2.88-1.48,6.53s3.13,4.54,4.44,4.51,2.3-1.79,2.3-3.61a8.64,8.64,0,0,0-2-5.71C933.47,522.48,933,522.21,931.72,522.52Z" transform="translate(-215.71 -19.18)"/><path class="cls-4" d="M938.39,526.47c1.45,3.23,4.23,4.47,5.47,3.78s1.89-3,1-5.43-1.92-4-3.42-4.78c-.74-.39-2.56-.72-3.32.55S937.66,524.83,938.39,526.47Z" transform="translate(-215.71 -19.18)"/><path class="cls-4" d="M948.37,524.65c-1,.24-2,2.72-.76,5.57s2.3,4.09,3.68,4,2.13-2.1,2-3.55S951,524,948.37,524.65Z" transform="translate(-215.71 -19.18)"/></g><rect class="cls-8" x="641.03" y="620.04" width="170.09" height="4.78"/></g><g id="kytka"><path class="cls-9" d="M1407.61,592.3s-.78,11.22,12.52,17.22,14.35,6.78,15.39-4.69S1407.61,592.3,1407.61,592.3Z" transform="translate(-215.71 -19.18)"/><path class="cls-10" d="M1430.68,588.36s10.13,4.87,8.77,19.4-1.21,15.82-11.7,11S1430.68,588.36,1430.68,588.36Z" transform="translate(-215.71 -19.18)"/><path class="cls-11" d="M1444.65,573s-9.4,17.94-7.3,26.35S1446,616.3,1446,616.3s9.13-11.47,8.08-24A29.32,29.32,0,0,0,1444.65,573Z" transform="translate(-215.71 -19.18)"/><path class="cls-12" d="M1466.57,582.13c-4.44-1.3-19.36,6.52-20.25,18.78s12.42,7.05,12.42,7.05S1470.48,594.65,1466.57,582.13Z" transform="translate(-215.71 -19.18)"/><path class="cls-13" d="M1424.63,590.79s-7.09,8.73.34,21.29,7.83,13.8,15.29,5S1424.63,590.79,1424.63,590.79Z" transform="translate(-215.71 -19.18)"/><path class="cls-14" d="M1451.28,592.81s-13.94,14.68-14.22,23.34,3.64,18.67,3.64,18.67,11.92-8.55,14.34-20.88A29.32,29.32,0,0,0,1451.28,592.81Z" transform="translate(-215.71 -19.18)"/><path class="cls-15" d="M1474.88,598.47s-7.1,19-14.76,23-18.38,4.9-18.38,4.9,2.46-14.46,12.49-22A29.36,29.36,0,0,1,1474.88,598.47Z" transform="translate(-215.71 -19.18)"/><path class="cls-16" d="M1484.43,604.83H1399.3s-1.17,18.78,4.7,29.34,12.91,19.35,16,20.44c1.87.65,13.09.52,21.83.32,8.73.2,20,.33,21.82-.32,3.13-1.09,10.17-9.87,16-20.44S1484.43,604.83,1484.43,604.83Z" transform="translate(-215.71 -19.18)"/></g><g id="kytka-2" data-name="kytka"><path id="_5" data-name="5" class="cls-17" d="M423.72,607.08s-2.15-10.36-4.7-10.36" transform="translate(-215.71 -19.18)"/><path id="_4" data-name="4" class="cls-17" d="M428.8,594.76c-2.15,0-1.17,12.32-1.17,12.32" transform="translate(-215.71 -19.18)"/><path id="_2" data-name="2" class="cls-17" d="M453.85,594.76c-2,0-2.55,12.32-2.55,12.32" transform="translate(-215.71 -19.18)"/><path id="_1" data-name="1" class="cls-18" d="M463.24,601.9c1.56,0,1.56,5.18,1.56,5.18" transform="translate(-215.71 -19.18)"/><path class="cls-16" d="M482.08,607.08H397s-1.18,18.79,4.69,29.35,12.92,19.35,16.05,20.44c1.87.65,13.08.52,21.82.31,8.73.21,20,.34,21.82-.31,3.13-1.09,10.17-9.87,16-20.44S482.08,607.08,482.08,607.08Z" transform="translate(-215.71 -19.18)"/><path id="_5-2" data-name="5" class="cls-19" d="M420.88,598.43c-4.8-7.69-6.55,5.33-6,16.29s15,64.89,13.89,91.37-17.51,56.82-9.78,85.69a56.69,56.69,0,0,1-1.37,33.39" transform="translate(-215.71 -19.18)"/><g id="_5-3" data-name="5"><polygon class="cls-20" points="199.69 582.72 196.85 578.52 190.98 582.67 199.69 582.72"/><polygon class="cls-20" points="196.74 605.39 196.49 609.05 201.69 609.29 196.74 605.39"/><polygon class="cls-21" points="199.36 585.32 205.66 588.43 202.51 591.95 199.36 585.32"/><polygon class="cls-21" points="210.3 657.05 216.59 660.17 213.45 663.69 210.3 657.05"/><polygon class="cls-22" points="199.09 591.95 195.34 589.48 191.5 593 199.09 591.95"/><polygon class="cls-23" points="195.34 595.08 199.09 591.95 191.5 593 195.34 595.08"/><polygon class="cls-24" points="199.09 595.87 201.16 593.91 203.31 595.87 199.09 595.87"/><polygon class="cls-25" points="200.44 596.91 203.31 595.87 199.09 595.87 200.44 596.91"/><polygon class="cls-24" points="199.34 618.18 199.98 615.41 202.85 615.85 199.34 618.18"/><polygon class="cls-25" points="201.04 618.31 202.85 615.85 199.34 618.18 201.04 618.31"/><polygon class="cls-24" points="205.19 648.77 205.84 646 208.71 646.44 205.19 648.77"/><polygon class="cls-25" points="206.9 648.9 208.71 646.44 205.19 648.77 206.9 648.9"/><polygon class="cls-20" points="199.69 599.58 196.4 597.95 191.5 603.5 199.69 599.58"/><polygon class="cls-26" points="195.6 603.5 199.69 599.58 191.5 603.5 195.6 603.5"/><polygon class="cls-20" points="216.22 639.59 212.93 637.96 208.04 643.51 216.22 639.59"/><polygon class="cls-26" points="212.13 643.51 216.22 639.59 208.04 643.51 212.13 643.51"/><polygon class="cls-22" points="208.43 603.01 204.68 600.53 200.84 604.05 208.43 603.01"/><polygon class="cls-23" points="204.68 606.14 208.43 603.01 200.84 604.05 204.68 606.14"/><polygon class="cls-27" points="202.02 611.92 203.77 609.29 209.77 611.92 202.02 611.92"/><polygon class="cls-28" points="203.77 613.74 209.77 611.92 202.02 611.92 203.77 613.74"/><polygon class="cls-27" points="204.16 664.1 205.91 661.47 211.91 664.1 204.16 664.1"/><polygon class="cls-28" points="205.91 665.92 211.91 664.1 204.16 664.1 205.91 665.92"/><polygon class="cls-29" points="203.75 620.33 197.49 619.02 191.86 625.33 203.75 620.33"/><polygon class="cls-30" points="199.34 624.94 203.75 620.33 191.86 625.33 199.34 624.94"/><polygon class="cls-31" points="204.38 623.41 216.22 625.67 207.66 629.28 204.38 623.41"/><polygon class="cls-31" points="198.46 652.52 210.3 654.78 201.74 658.39 198.46 652.52"/><polygon class="cls-32" points="205.08 626.84 201.1 627.33 200.81 631.98 205.08 626.84"/><polygon class="cls-32" points="214.26 647.38 210.28 647.88 210 652.52 214.26 647.38"/><polygon class="cls-33" points="206.46 633.75 209.77 630.81 218.47 635.5 206.46 633.75"/><polygon class="cls-34" points="213.58 636.58 218.47 635.5 206.46 633.75 213.58 636.58"/><polygon class="cls-33" points="206.95 636.28 201.55 635.5 198.42 640.74 206.95 636.28"/><polygon class="cls-35" points="202.85 641.24 206.95 636.28 198.42 640.74 202.85 641.24"/><polygon class="cls-36" points="211.91 666.43 217.59 668.03 212.47 670.57 211.91 666.43"/><polygon class="cls-36" points="212.79 674.14 208.53 672.5 202.37 678.21 212.79 674.14"/><polygon class="cls-37" points="209.81 681.5 212.79 674.14 202.37 678.21 209.81 681.5"/><polygon class="cls-38" points="213.15 678.99 220.72 677 220.72 683.39 213.15 678.99"/><polygon class="cls-39" points="215.63 684.27 220.72 683.39 213.15 678.99 215.63 684.27"/><polygon class="cls-40" points="213.12 686.13 202.04 691.47 206.22 697.96 213.12 686.13"/><polygon class="cls-41" points="212.82 690.83 220.04 689.55 221.99 697.18 212.82 690.83"/><polygon class="cls-42" points="215.15 695.23 221.99 697.18 212.82 690.83 215.15 695.23"/><polygon class="cls-43" points="211.88 697.96 202.04 696.4 199.88 700.12 211.88 697.96"/><polygon class="cls-44" points="207.03 700.8 211.88 697.96 199.88 700.12 207.03 700.8"/><polygon class="cls-44" points="209.93 707.76 214.75 713.52 220.72 707.36 209.93 707.76"/><polygon class="cls-45" points="216.59 704.81 220.72 707.36 209.93 707.76 216.59 704.81"/><polygon class="cls-46" points="208.83 712.47 203.5 710.44 195.94 716.39 208.83 712.47"/><polygon class="cls-47" points="202.04 717.17 195.94 716.39 208.83 712.47 202.04 717.17"/><polygon class="cls-47" points="207.39 718.37 215.9 719.13 208.83 723.56 207.39 718.37"/><polygon class="cls-48" points="205.88 724.57 199.09 723.56 189.16 730.87 205.88 724.57"/><polygon class="cls-49" points="199.09 730.87 205.88 724.57 189.16 730.87 199.09 730.87"/><polygon class="cls-50" points="204.29 731.58 211.88 731.58 213.15 738.04 204.29 731.58"/><polygon class="cls-50" points="202.92 738.55 209.93 737.39 215.9 745.48 202.92 738.55"/><polygon class="cls-51" points="205.88 744.04 215.9 745.48 202.92 738.55 205.88 744.04"/><polygon class="cls-37" points="201.71 747.29 188.63 755.1 190.3 747.76 201.71 747.29"/><polygon class="cls-52" points="197.52 743.94 201.71 747.29 190.3 747.76 197.52 743.94"/><polygon class="cls-53" points="201.36 751.77 205.88 749.71 210.65 756.07 201.36 751.77"/><polygon class="cls-54" points="204.29 756.07 210.65 756.07 201.36 751.77 204.29 756.07"/><polygon class="cls-54" points="201.28 758.41 193.33 758.41 187.85 765.86 197.93 764.68 201.28 758.41"/><polygon class="cls-55" points="201.93 765.86 207.39 763.51 213.88 770.26 201.93 765.86"/><polygon class="cls-56" points="206 770.85 213.88 770.26 201.93 765.86 206 770.85"/><polygon class="cls-56" points="203.8 774.59 199.09 772.61 193.53 778.08 203.8 774.59"/><polygon class="cls-57" points="198.66 779.94 203.8 774.59 193.53 778.08 198.66 779.94"/><polygon class="cls-57" points="210.65 779.94 204.48 778.08 208.72 783.56 210.65 779.94"/><polygon class="cls-58" points="209.41 777.26 204.48 778.08 210.65 779.94 209.41 777.26"/><polygon class="cls-59" points="205.14 784.84 199.09 783.56 194.57 789.63 205.14 784.84"/><polygon class="cls-60" points="199.85 789.63 205.14 784.84 194.57 789.63 199.85 789.63"/><polygon class="cls-61" points="205.12 789.63 209.41 793.44 211.64 789.63 205.12 789.63"/><polygon class="cls-62" points="204.72 794.32 201.93 792.07 197.54 794.32 204.72 794.32"/><polygon class="cls-63" points="199.09 796.57 204.72 794.32 197.54 794.32 199.09 796.57"/><polygon class="cls-63" points="204.13 798.01 208.79 800 205.14 801.56 204.13 798.01"/><polygon class="cls-64" points="203.13 802.35 197.54 802.83 196.56 808.31 203.13 802.35"/><polygon class="cls-64" points="201.55 577.4 198.13 576.02 202.02 570.15 201.55 577.4"/><polygon class="cls-65" points="203.31 573.33 202.02 570.15 201.55 577.4 203.31 573.33"/><polygon class="cls-66" points="206.22 581.61 203.31 580.5 201.2 584.22 206.22 581.61"/><polygon class="cls-67" points="204.43 584.09 206.22 581.61 201.2 584.22 204.43 584.09"/></g><path id="_4-2" data-name="4" class="cls-19" d="M438.2,798.43c5.28-16.82-5.29-31.69-3.33-51.65s14.48-78.26,8.61-101.35-10-40.3-10-43.53-2.12-12.06-5.66-5.79" transform="translate(-215.71 -19.18)"/><g id="_4-3" data-name="4"><polygon class="cls-68" points="211.7 579.51 205.66 576.56 205.66 569.32 211.7 579.51"/><polygon class="cls-69" points="209.38 571.41 211.7 579.51 205.66 569.32 209.38 571.41"/><polygon class="cls-70" points="215.26 574.99 213.94 579.51 215.26 582.72 215.26 574.99"/><polygon class="cls-70" points="231.97 611.16 227.2 611.3 224.7 613.81 231.97 611.16"/><polygon class="cls-70" points="216.97 577.96 223.85 577.61 221.31 583.21 216.97 577.96"/><polygon class="cls-70" points="216.97 610.59 223.85 610.24 221.31 615.85 216.97 610.59"/><polygon class="cls-71" points="218.04 584.96 213.94 583.48 209.57 587.13 218.04 584.96"/><polygon class="cls-72" points="214.27 587.39 218.04 584.96 209.57 587.13 214.27 587.39"/><polygon class="cls-71" points="231.41 605.3 227.32 603.82 222.95 607.48 231.41 605.3"/><polygon class="cls-72" points="227.64 607.74 231.41 605.3 222.95 607.48 227.64 607.74"/><polygon class="cls-72" points="218.66 588.31 222.48 586.41 227.18 589.54 218.66 588.31"/><polygon class="cls-73" points="219.34 591.57 215.26 590.78 212.13 594.63 219.34 591.57"/><polygon class="cls-74" points="216.42 594.95 219.34 591.57 212.13 594.63 216.42 594.95"/><polygon class="cls-73" points="225.07 615.85 221.25 617.49 220.82 622.43 225.07 615.85"/><polygon class="cls-74" points="224.56 620.29 225.07 615.85 220.82 622.43 224.56 620.29"/><polygon class="cls-74" points="220.41 596.34 215.26 596.65 214.6 601.35 220.41 596.34"/><polygon class="cls-75" points="221.21 599.76 224.68 597.35 230.7 599.45 221.21 599.76"/><polygon class="cls-76" points="223.85 601.35 230.7 599.45 221.21 599.76 223.85 601.35"/><polygon class="cls-77" points="222.26 604.13 218.66 602.98 215.73 607.13 222.26 604.13"/><polygon class="cls-78" points="219.74 607.43 222.26 604.13 215.73 607.13 219.74 607.43"/><polygon class="cls-73" points="226.09 619.64 228.34 617.31 236.42 619.41 226.09 619.64"/><polygon class="cls-79" points="230.7 621.51 236.42 619.41 226.09 619.64 230.7 621.51"/><polygon class="cls-80" points="227.34 624.59 222.58 624.2 217.51 628.56 227.34 624.59"/><polygon class="cls-81" points="225.96 627.77 227.34 624.59 217.51 628.56 225.96 627.77"/><polygon class="cls-82" points="228.34 628.91 229.63 625.72 233.83 628.56 228.34 628.91"/><polygon class="cls-83" points="231.08 630.76 233.83 628.56 228.34 628.91 231.08 630.76"/><polygon class="cls-84" points="228.96 633.64 225.07 632.23 220.82 635.55 228.96 633.64"/><polygon class="cls-85" points="226.35 637.41 228.96 633.64 220.82 635.55 226.35 637.41"/><polygon class="cls-86" points="229.27 638.88 232.73 641.08 233.83 638.17 229.27 638.88"/><polygon class="cls-86" points="229.32 643.33 226.09 641.42 216.52 645.48 229.32 643.33"/><polygon class="cls-87" points="221.85 647.14 229.32 643.33 216.52 645.48 221.85 647.14"/><polygon class="cls-88" points="229.27 647.14 233.83 648.56 233.83 650.91 229.27 647.14"/><polygon class="cls-89" points="231.34 650.23 233.83 650.91 229.27 647.14 231.34 650.23"/><polygon class="cls-89" points="229.01 652.27 226.25 650.52 218.77 653.65 229.01 652.27"/><polygon class="cls-90" points="224.44 654.77 229.01 652.27 218.77 653.65 224.44 654.77"/><polygon class="cls-91" points="228.74 656.34 237.55 656.93 233.14 659.32 228.74 656.34"/><polygon class="cls-92" points="228.22 662.36 226.44 659.32 219.74 663.14 228.22 662.36"/><polygon class="cls-93" points="225.27 666.27 228.22 662.36 219.74 663.14 225.27 666.27"/><polygon class="cls-92" points="218.99 729.33 217.22 726.29 210.52 730.11 218.99 729.33"/><polygon class="cls-93" points="216.04 733.24 218.99 729.33 210.52 730.11 216.04 733.24"/><polygon class="cls-93" points="227.66 667.79 232.07 670.62 237.21 666.86 227.66 667.79"/><polygon class="cls-93" points="210.5 722.31 214.91 725.14 220.05 721.38 210.5 722.31"/><polygon class="cls-94" points="226.86 674.54 222.63 669.64 213.63 673.36 226.86 674.54"/><polygon class="cls-95" points="217.4 676.69 226.86 674.54 213.63 673.36 217.4 676.69"/><polygon class="cls-96" points="226.14 680.01 230.7 678.01 236.38 680.94 226.14 680.01"/><polygon class="cls-97" points="233.44 683 226.14 680.01 236.38 680.94 233.44 683"/><polygon class="cls-98" points="225.31 685.98 223.41 682.61 216.81 686.18 225.31 685.98"/><polygon class="cls-99" points="219.3 688.52 225.31 685.98 216.81 686.18 219.3 688.52"/><polygon class="cls-98" points="228.74 718.26 226.85 714.89 220.24 718.46 228.74 718.26"/><polygon class="cls-99" points="222.74 720.81 228.74 718.26 220.24 718.46 222.74 720.81"/><polygon class="cls-100" points="224.53 691.25 233.78 688.28 236.72 691.25 224.53 691.25"/><polygon class="cls-101" points="228.74 694.15 236.72 691.25 224.53 691.25 228.74 694.15"/><polygon class="cls-101" points="223.88 695.57 221.06 693.46 214.75 695.37 223.88 695.57"/><polygon class="cls-101" points="223.4 698.65 226.14 705.35 229.92 701.34 223.4 698.65"/><path class="cls-102" d="M443.58,716.07c.14.14,2.05,4.45,2.05,4.45l-6.52-2.7Z" transform="translate(-215.71 -19.18)"/><polygon class="cls-103" points="222.65 703.42 219.31 700.54 213.09 704.39 222.65 703.42"/><polygon class="cls-104" points="216.81 706.58 222.65 703.42 213.09 704.39 216.81 706.58"/><polygon class="cls-104" points="221.96 707.84 225.31 711.69 227.96 708.89 221.96 707.84"/><polygon class="cls-105" points="221.04 713.7 217.87 709.77 208.4 711.69 221.04 713.7"/><polygon class="cls-106" points="215.44 715.15 221.04 713.7 208.4 711.69 215.44 715.15"/><polygon class="cls-107" points="218.99 735.17 226.27 739.02 231.29 735.56 218.99 735.17"/><polygon class="cls-108" points="226.27 733.24 231.29 735.56 218.99 735.17 226.27 733.24"/><polygon class="cls-109" points="219.61 741.82 217.33 737.65 209.9 742.28 219.61 741.82"/><polygon class="cls-110" points="214.4 744.43 219.61 741.82 209.9 742.28 214.4 744.43"/><polygon class="cls-111" points="220.29 745.93 223.81 743.12 231.88 744.89 220.29 745.93"/><polygon class="cls-112" points="228.09 746.85 231.88 744.89 220.29 745.93 228.09 746.85"/><polygon class="cls-112" points="221.14 750.19 217 748.21 209.9 750.95 221.14 750.19"/><polygon class="cls-113" points="221.8 753.34 227.57 759.69 230.11 752.78 221.8 753.34"/><polygon class="cls-114" points="222.69 757.68 218.99 755.91 214.07 758.06 222.69 757.68"/><polygon class="cls-115" points="218.18 759.69 222.69 757.68 214.07 758.06 218.18 759.69"/><polygon class="cls-116" points="223.5 762.57 227.24 760.67 232.4 762.95 223.5 762.57"/><polygon class="cls-117" points="227.05 765.04 232.4 762.95 223.5 762.57 227.05 765.04"/><polygon class="cls-118" points="223.81 766.67 219.61 768.56 219.61 765.04 223.81 766.67"/><polygon class="cls-119" points="223.98 769.35 226.4 768.04 227.95 771.43 223.98 769.35"/><polygon class="cls-120" points="225.42 772.02 227.95 771.43 223.98 769.35 225.42 772.02"/><polygon class="cls-120" points="223.81 772.75 221.8 771.11 217.13 773.32 223.81 772.75"/><polygon class="cls-120" points="223.28 776.21 225.35 779.26 229.32 778.35 223.28 776.21"/><polygon class="cls-121" points="226.98 774.76 229.32 778.35 223.28 776.21 226.98 774.76"/></g><path id="_2-2" data-name="2" class="cls-19" d="M470.48,830.52c13.69-4.3,17.22-48.52,7.43-68.87s-29-62.38-26.61-83.35,13.11-50.08,11.94-58.69-7.83-32-10.66-22.74" transform="translate(-215.71 -19.18)"/><g id="_2-3" data-name="2"><polygon class="cls-20" points="236.06 582.36 230.7 584.22 227.34 580.41 236.06 582.36"/><polygon class="cls-122" points="232.07 578.86 236.06 582.36 227.34 580.41 232.07 578.86"/><polygon class="cls-122" points="236.7 578.34 238.53 581.13 239.18 578.86 236.7 578.34"/><polygon class="cls-123" points="238.13 575.58 236.06 571.8 241.59 567.04 238.13 575.58"/><polygon class="cls-123" points="240.53 577.4 241.85 574.74 249.09 575.26 240.53 577.4"/><polygon class="cls-124" points="244.27 578.34 249.09 575.26 240.53 577.4 244.27 578.34"/><polygon class="cls-125" points="242.44 581.4 239.18 582.31 238.82 585.32 242.44 581.4"/><polygon class="cls-126" points="240.88 585.3 242.44 581.4 238.82 585.32 240.88 585.3"/><polygon class="cls-126" points="243.57 584.47 247.53 584.47 250.13 589.02 243.57 584.47"/><polygon class="cls-127" points="244.86 588.63 239.57 588.63 234.81 592.7 244.86 588.63"/><polygon class="cls-128" points="241.85 593.91 244.86 588.63 234.81 592.7 241.85 593.91"/><polygon class="cls-128" points="245.59 591.27 250.46 591.57 249.09 594.89 245.59 591.27"/><polygon class="cls-129" points="248.31 589.54 250.46 591.57 245.59 591.27 248.31 589.54"/><polygon class="cls-129" points="246.79 596.34 242.77 595.41 239.84 599.45 246.79 596.34"/><polygon class="cls-130" points="243.57 599.76 246.79 596.34 239.84 599.45 243.57 599.76"/><polygon class="cls-130" points="247.57 600.83 255.42 603.5 259.85 599.76 247.57 600.83"/><polygon class="cls-131" points="253.13 598.55 259.85 599.76 247.57 600.83 253.13 598.55"/><polygon class="cls-132" points="247.39 605.05 245.11 602.29 238.82 603.82 247.39 605.05"/><polygon class="cls-133" points="241.59 606.14 247.39 605.05 238.82 603.82 241.59 606.14"/><polygon class="cls-134" points="246.5 610.24 249.55 613.81 256.98 611.65 246.5 610.24"/><polygon class="cls-135" points="250.92 608.98 256.98 611.65 246.5 610.24 250.92 608.98"/><polygon class="cls-135" points="245.51 614.67 243.31 611.92 240.63 613.29 245.51 614.67"/><polygon class="cls-135" points="244.66 618.18 249.09 623.06 255.03 619.41 244.66 618.18"/><polygon class="cls-136" points="243.81 621.51 241 617.71 233.83 619.02 243.81 621.51"/><polygon class="cls-137" points="236.86 622.43 243.81 621.51 233.83 619.02 236.86 622.43"/><polygon class="cls-137" points="242.73 625.72 246.5 628.91 252.29 627.82 242.73 625.72"/><polygon class="cls-138" points="247.92 624.2 252.29 627.82 242.73 625.72 247.92 624.2"/><polygon class="cls-139" points="241.72 629.66 238.82 626.57 232.73 627.63 241.72 629.66"/><polygon class="cls-140" points="236.42 631.08 241.72 629.66 232.73 627.63 236.42 631.08"/><polygon class="cls-141" points="240.56 634.22 245.24 632.23 248.7 637.15 240.56 634.22"/><polygon class="cls-142" points="241.27 637.15 248.7 637.15 240.56 634.22 241.27 637.15"/><polygon class="cls-142" points="239.58 638.17 234.74 634.69 228.74 637.96 239.58 638.17"/><polygon class="cls-143" points="238.79 641.55 246.5 638.76 255.35 646 238.79 641.55"/><polygon class="cls-144" points="242.11 645.48 255.35 646 238.79 641.55 242.11 645.48"/><polygon class="cls-145" points="237.81 646 235.92 643.33 232.43 644.32 237.81 646"/><polygon class="cls-144" points="233.83 646.44 237.81 646 232.43 644.32 233.83 646.44"/><polygon class="cls-146" points="236.91 650.52 242.38 648.77 244.53 653 236.91 650.52"/><polygon class="cls-147" points="239.58 653.26 244.53 653 236.91 650.52 239.58 653.26"/><polygon class="cls-148" points="236.18 654.77 232.43 653.26 228.96 655.45 236.18 654.77"/><polygon class="cls-149" points="233.14 656.06 236.18 654.77 228.96 655.45 233.14 656.06"/><polygon class="cls-150" points="235.52 659.84 240.16 657.05 244.27 660.89 235.52 659.84"/><polygon class="cls-151" points="237.81 662.78 244.27 660.89 235.52 659.84 237.81 662.78"/><polygon class="cls-152" points="235.41 664.1 232.43 662.36 225.68 665.01 235.41 664.1"/><polygon class="cls-153" points="231.55 666.86 235.41 664.1 225.68 665.01 231.55 666.86"/><polygon class="cls-154" points="235.81 669.23 238.79 666.86 244.85 668.74 235.81 669.23"/><polygon class="cls-155" points="239.38 670.62 244.85 668.74 235.81 669.23 239.38 670.62"/><polygon class="cls-156" points="236.56 674.14 232.73 672.5 229.66 675.36 236.56 674.14"/><polygon class="cls-157" points="233.11 676.69 236.56 674.14 229.66 675.36 233.11 676.69"/><polygon class="cls-158" points="237.58 678.99 240.72 676.28 249.55 678.99 237.58 678.99"/><polygon class="cls-159" points="244.85 680.94 249.55 678.99 237.58 678.99 244.85 680.94"/><polygon class="cls-159" points="238.76 683.66 234.94 682.61 230.55 684.39 238.76 683.66"/><polygon class="cls-160" points="239.77 687.25 240.61 684.27 247.27 687.82 239.77 687.25"/><polygon class="cls-161" points="243.56 689.55 247.27 687.82 239.77 687.25 243.56 689.55"/><polygon class="cls-161" points="241.68 693.37 238.76 690.83 234.03 694.51 241.68 693.37"/><polygon class="cls-161" points="242.57 696.02 241.4 699.69 235.41 697.96 242.57 696.02"/><polygon class="cls-162" points="238.27 695.57 235.41 697.96 242.57 696.02 238.27 695.57"/><polygon class="cls-163" points="244.26 700.8 246.16 697.18 251.31 698.26 244.26 700.8"/><polygon class="cls-164" points="248.11 702.46 251.31 698.26 244.26 700.8 248.11 702.46"/><polygon class="cls-164" points="246.13 705.79 240.88 703.42 231.68 708.43 246.13 705.79"/><polygon class="cls-162" points="248.06 710.71 249.55 706.58 259.92 707.84 248.06 710.71"/><polygon class="cls-165" points="253.79 712.47 259.92 707.84 248.06 710.71 253.79 712.47"/><polygon class="cls-166" points="250.39 716.39 245.31 714.82 241.68 718.74 250.39 716.39"/><polygon class="cls-167" points="248.06 719.85 250.39 716.39 241.68 718.74 248.06 719.85"/><polygon class="cls-168" points="252.82 722.06 253.4 719.53 262.79 719.85 252.82 722.06"/><polygon class="cls-169" points="261.35 722.52 262.79 719.85 252.82 722.06 261.35 722.52"/><polygon class="cls-170" points="254.91 726.81 250 726.29 248.06 730.87 254.91 726.81"/><polygon class="cls-171" points="252.35 731.28 254.91 726.81 248.06 730.87 252.35 731.28"/><polygon class="cls-171" points="257.48 732.45 259.92 728.58 273.09 729.33 257.48 732.45"/><polygon class="cls-172" points="263.83 734.81 273.09 729.33 257.48 732.45 263.83 734.81"/><polygon class="cls-173" points="260.09 738.04 257.18 735.56 252.82 740.91 260.09 738.04"/><polygon class="cls-174" points="257.48 740.91 260.09 738.04 252.82 740.91 257.48 740.91"/><polygon class="cls-175" points="262.93 744.09 263.96 739.96 276.88 740.32 262.93 744.09"/><polygon class="cls-176" points="272.38 744.43 276.88 740.32 262.93 744.09 272.38 744.43"/><polygon class="cls-177" points="264.43 748.21 261.81 746.85 254.91 751.77 264.43 748.21"/><polygon class="cls-178" points="259.67 753.3 264.43 748.21 254.91 751.77 259.67 753.3"/><polygon class="cls-178" points="265.69 752.89 269.9 751.21 278.9 753.3 265.69 752.89"/><polygon class="cls-179" points="266.76 758.69 262.93 763.51 255.48 760.15 266.76 758.69"/><polygon class="cls-180" points="263.18 756.99 266.76 758.69 255.48 760.15 263.18 756.99"/><polygon class="cls-180" points="267.76 763.51 270.16 761.1 276.48 765.04 267.76 763.51"/><polygon class="cls-181" points="271.4 766.88 276.48 765.04 267.76 763.51 271.4 766.88"/><polygon class="cls-181" points="267.76 772.21 262.2 774.76 255.48 773 267.76 772.21"/><polygon class="cls-182" points="264.43 768.82 267.76 772.21 255.48 773 264.43 768.82"/><polygon class="cls-183" points="267.68 777.26 270.74 779.65 276.16 777.73 267.68 777.26"/><polygon class="cls-184" points="273.68 775.67 276.16 777.73 267.68 777.26 273.68 775.67"/><polygon class="cls-184" points="267.27 783.12 265.59 779.94 259.66 782.71 267.27 783.12"/><polygon class="cls-185" points="263.46 785.71 267.27 783.12 259.66 782.71 263.46 785.71"/><polygon class="cls-185" points="266.62 788.25 270.03 790.54 273.88 788.71 266.62 788.25"/><polygon class="cls-186" points="271.13 785.71 273.88 788.71 266.62 788.25 271.13 785.71"/><polygon class="cls-186" points="265.39 794.4 264.29 791.54 258.16 792.5 265.39 794.4"/><polygon class="cls-187" points="260.9 795.63 265.39 794.4 258.16 792.5 260.9 795.63"/><polygon class="cls-188" points="263.88 799.53 265.72 803.06 271.92 801.3 263.88 799.53"/><polygon class="cls-189" points="269.05 798.56 271.92 801.3 263.88 799.53 269.05 798.56"/><polygon class="cls-189" points="262.21 803.56 261.22 800.39 254.11 800.39 262.21 803.56"/><polygon class="cls-190" points="260.63 806.34 261.03 810.04 265.39 809.19 260.63 806.34"/><polygon class="cls-191" points="264.48 806 265.39 809.19 260.63 806.34 264.48 806"/><polygon class="cls-191" points="257.97 809.47 258.16 806.65 253.2 806.34 257.97 809.47"/><polygon class="cls-191" points="255.48 811.08 256.33 814.21 259.66 814.8 255.48 811.08"/><polygon class="cls-192" points="259.27 811.93 259.66 814.8 255.48 811.08 259.27 811.93"/></g><path id="_1-2" data-name="1" class="cls-193" d="M467.29,931.09c-15.2-43.83-23.42-68.09-16.18-100.57s23.67-83.35,20.54-114.65-18.58-73.57-19.07-87.65,9.61-28.82,11.24-26" transform="translate(-215.71 -19.18)"/><g id="_1-3" data-name="1"><polygon class="cls-20" points="248.7 584.22 253.71 582.91 254.28 578.34 248.7 584.22"/><polygon class="cls-20" points="246.79 582.93 248.31 579.73 243.81 576.07 246.79 582.93"/><polygon class="cls-194" points="243.81 581.13 243.81 576.07 246.79 582.93 243.81 581.13"/><polygon class="cls-195" points="243.42 586.74 248.31 585.83 252.91 592.7 243.42 586.74"/><polygon class="cls-196" points="244.86 591.95 252.91 592.7 243.42 586.74 244.86 591.95"/><polygon class="cls-197" points="241.78 589.54 241.72 585.32 236.42 584.47 241.78 589.54"/><polygon class="cls-198" points="237.22 588.63 241.78 589.54 236.42 584.47 237.22 588.63"/><polygon class="cls-199" points="239.49 594.63 243.81 593.26 247.01 597.43 239.49 594.63"/><polygon class="cls-200" points="240.19 597.35 247.01 597.43 239.49 594.63 240.19 597.35"/><polygon class="cls-200" points="238.35 598.05 237.06 595.35 230.7 595.41 238.35 598.05"/><polygon class="cls-201" points="237.65 600.83 240.63 600.4 244.1 602.98 237.65 600.83"/><polygon class="cls-202" points="239.49 602.98 244.1 602.98 237.65 600.83 239.49 602.98"/><polygon class="cls-203" points="237.09 604.13 235.59 600.83 226.35 601.12 237.09 604.13"/><polygon class="cls-204" points="232.22 604.54 237.09 604.13 226.35 601.12 232.22 604.54"/><polygon class="cls-205" points="236.85 607.48 239.1 605.65 242.73 607.48 236.85 607.48"/><polygon class="cls-206" points="240.56 608.98 242.73 607.48 236.85 607.48 240.56 608.98"/><polygon class="cls-207" points="237 610.94 235.4 608.75 231.26 609.85 237 610.94"/><polygon class="cls-208" points="234.53 612.32 237 610.94 231.26 609.85 234.53 612.32"/><polygon class="cls-209" points="237.44 614.13 240.88 610.94 246.5 613.81 237.44 614.13"/><polygon class="cls-210" points="241.22 615.85 246.5 613.81 237.44 614.13 241.22 615.85"/><polygon class="cls-211" points="238.12 617.71 235.4 615.5 229.67 616.61 238.12 617.71"/><polygon class="cls-212" points="234.53 620.72 238.12 617.71 229.67 616.61 234.53 620.72"/><polygon class="cls-213" points="239.02 621.82 241.31 619.41 246.5 621.51 239.02 621.82"/><polygon class="cls-214" points="241.51 623.67 246.5 621.51 239.02 621.82 241.51 623.67"/><polygon class="cls-215" points="240.04 626.01 237.44 623.41 231.41 624.2 240.04 626.01"/><polygon class="cls-216" points="236.42 627.63 240.04 626.01 231.41 624.2 236.42 627.63"/><polygon class="cls-217" points="241.1 630.19 243.07 627.04 249.09 626.57 241.1 630.19"/><polygon class="cls-218" points="245.1 630.19 249.09 626.57 241.1 630.19 245.1 630.19"/><polygon class="cls-219" points="241.97 633.5 238.82 631.7 233.14 633.15 241.97 633.5"/><polygon class="cls-220" points="237.81 635.68 241.97 633.5 233.14 633.15 237.81 635.68"/><polygon class="cls-221" points="243.07 637.66 244.66 634.22 253.3 634.22 243.07 637.66"/><polygon class="cls-222" points="249.09 638.34 253.3 634.22 243.07 637.66 249.09 638.34"/><polygon class="cls-222" points="244.08 641.42 241.1 639.37 234.86 640 244.08 641.42"/><polygon class="cls-223" points="245.14 645.38 245.81 641.81 251.34 643.6 245.14 645.38"/><polygon class="cls-224" points="249.09 646.65 251.34 643.6 245.14 645.38 249.09 646.65"/><polygon class="cls-224" points="246.1 649.03 243.76 647.38 239.02 649.03 246.1 649.03"/><polygon class="cls-225" points="243.32 651.5 246.1 649.03 239.02 649.03 243.32 651.5"/><polygon class="cls-226" points="247.42 654.08 248.19 650.88 257.41 650.88 247.42 654.08"/><polygon class="cls-227" points="251.78 655.45 257.41 650.88 247.42 654.08 251.78 655.45"/><polygon class="cls-227" points="248.55 658.49 246.55 656.68 240.56 658.49 248.55 658.49"/><polygon class="cls-228" points="245.14 660.37 248.55 658.49 240.56 658.49 245.14 660.37"/><polygon class="cls-229" points="249.7 663.14 251.15 659.43 256.33 661.67 249.7 663.14"/><polygon class="cls-230" points="253.44 665.48 256.33 661.67 249.7 663.14 253.44 665.48"/><polygon class="cls-230" points="250.78 667.7 247.79 664.31 238.76 667.7 250.78 667.7"/><polygon class="cls-231" points="251.58 671.19 253.02 667.7 264.25 667.7 251.58 671.19"/><polygon class="cls-232" points="256.33 672.33 264.25 667.7 251.58 671.19 256.33 672.33"/><polygon class="cls-233" points="252.55 675.69 250.27 672.87 245.28 675.69 252.55 675.69"/><polygon class="cls-234" points="249.88 677.82 252.55 675.69 245.28 675.69 249.88 677.82"/><polygon class="cls-235" points="253.45 680.19 255.5 676 265.53 677.37 253.45 680.19"/><polygon class="cls-236" points="258.29 681.5 265.53 677.37 253.45 680.19 258.29 681.5"/><polygon class="cls-236" points="254.13 683.89 252.32 681.5 242.93 682.69 254.13 683.89"/><polygon class="cls-237" points="248.91 686.13 254.13 683.89 242.93 682.69 248.91 686.13"/><polygon class="cls-238" points="254.79 687.82 257.36 684.41 263.47 686.18 254.79 687.82"/><polygon class="cls-239" points="258.43 690.33 263.47 686.18 254.79 687.82 258.43 690.33"/><polygon class="cls-240" points="255.52 692.98 253.45 690.04 248.91 692.24 255.52 692.98"/><polygon class="cls-241" points="253.02 694.15 255.52 692.98 248.91 692.24 253.02 694.15"/><polygon class="cls-241" points="255.94 696.69 258.63 694 262.35 695.57 255.94 696.69"/><polygon class="cls-242" points="256.18 699.69 253.99 696.89 247.79 698.26 256.18 699.69"/><polygon class="cls-243" points="252.22 701.53 256.18 699.69 247.79 698.26 252.22 701.53"/><polygon class="cls-244" points="256.32 703.42 259.13 700.8 261.66 702.46 256.32 703.42"/><polygon class="cls-245" points="259.13 704.62 261.66 702.46 256.32 703.42 259.13 704.62"/><polygon class="cls-246" points="256.33 707.11 252.82 704.62 247.27 706.29 256.33 707.11"/><polygon class="cls-247" points="252.22 708.64 256.33 707.11 247.27 706.29 252.22 708.64"/><polygon class="cls-248" points="256.18 711.69 257.8 708.97 264.84 711.02 256.18 711.69"/><polygon class="cls-249" points="259.41 713.42 264.84 711.02 256.18 711.69 259.41 713.42"/><polygon class="cls-250" points="255.88 715.43 254.38 713.03 248.91 713.03 255.88 715.43"/><polygon class="cls-251" points="252.82 715.96 255.88 715.43 248.91 713.03 252.82 715.96"/><polygon class="cls-252" points="255.62 718.37 258.99 716.67 266.65 720.32 255.62 718.37"/><polygon class="cls-253" points="260.09 721.18 266.65 720.32 255.62 718.37 260.09 721.18"/><polygon class="cls-254" points="255.16 722.52 252.4 719.53 245.72 721.18 255.16 722.52"/><polygon class="cls-255" points="250.44 724.28 255.16 722.52 245.72 721.18 250.44 724.28"/><polygon class="cls-255" points="254.56 727.02 258.53 724.52 259.92 728.58 254.56 727.02"/><polygon class="cls-256" points="253.99 730.51 246.35 725.8 237.74 730.11 253.99 730.51"/><polygon class="cls-257" points="247.13 733.92 253.99 730.51 237.74 730.11 247.13 733.92"/><polygon class="cls-258" points="253.48 733.92 257.02 732.74 262.79 736.7 253.48 733.92"/><polygon class="cls-259" points="255.16 736.7 262.79 736.7 253.48 733.92 255.16 736.7"/><polygon class="cls-259" points="252.75 738.04 250.12 735.17 243.52 736.17 252.75 738.04"/><polygon class="cls-260" points="252.21 740.91 255.16 740.52 258.13 744.89 252.21 740.91"/><path class="cls-261" d="M469.7,764.07c.14,0,4.15,0,4.15,0l-5.93-4Z" transform="translate(-215.71 -19.18)"/><polygon class="cls-262" points="251.49 744.53 250.39 741.64 244.1 741.82 251.49 744.53"/><polygon class="cls-263" points="247.8 745.21 251.49 744.53 244.1 741.82 247.8 745.21"/><polygon class="cls-263" points="250.83 747.71 253.48 746.58 256.45 749.08 250.83 747.71"/><polygon class="cls-264" points="252.82 750.11 256.45 749.08 250.83 747.71 252.82 750.11"/><polygon class="cls-265" points="250.08 751.21 248.36 747.83 238.43 748.21 250.08 751.21"/><polygon class="cls-266" points="243.81 752.26 250.08 751.21 238.43 748.21 243.81 752.26"/><polygon class="cls-267" points="249.26 754.89 252.56 753.3 260.09 755.91 249.26 754.89"/><path class="cls-268" d="M468.53,776.42c.33,0,7.27-1.33,7.27-1.33l-10.83-1Z" transform="translate(-215.71 -19.18)"/><polygon class="cls-268" points="248.54 758.06 246.94 755.19 237.74 755.91 248.54 758.06"/><polygon class="cls-269" points="247.82 761.1 250.31 759.35 252.21 762.24 247.82 761.1"/><polygon class="cls-270" points="249.58 763.07 252.21 762.24 247.82 761.1 249.58 763.07"/><polygon class="cls-271" points="247.18 763.8 245.13 759.69 233.63 760.15 247.18 763.8"/><polygon class="cls-272" points="240.68 765.04 247.18 763.8 233.63 760.15 240.68 765.04"/><polygon class="cls-272" points="246.31 767.4 249.26 765.61 254.67 769.35 246.31 767.4"/><polygon class="cls-273" points="245.44 770.91 248.31 769.74 254.38 775 245.44 770.91"/><path class="cls-274" d="M463.92,793.93c.2-.09,6.17.25,6.17.25l-8.94-4.09Z" transform="translate(-215.71 -19.18)"/><polygon class="cls-275" points="244.53 774.55 243.81 770.26 238.13 774.55 244.53 774.55"/><polygon class="cls-276" points="242.1 777.73 244.53 774.55 238.13 774.55 242.1 777.73"/><polygon class="cls-276" points="243.73 777.73 248.36 776.7 251.58 782.19 243.73 777.73"/><polygon class="cls-277" points="242.84 781.23 240.83 778.87 233.29 781.23 242.84 781.23"/><polygon class="cls-278" points="239.16 783.86 242.84 781.23 233.29 781.23 239.16 783.86"/><polygon class="cls-267" points="242.17 783.86 246.01 783.12 253.3 789.14 242.17 783.86"/><polygon class="cls-279" points="245.96 788.01 253.3 789.14 242.17 783.86 245.96 788.01"/><polygon class="cls-280" points="240.98 788.5 238.87 786.13 230.9 787.32 240.98 788.5"/><polygon class="cls-281" points="236.72 790.54 240.98 788.5 230.9 787.32 236.72 790.54"/><polygon class="cls-281" points="240.03 792.23 242.84 790.9 247.09 797.26 240.03 792.23"/><polygon class="cls-282" points="239.31 795.09 238.38 792.71 233.68 795.63 239.31 795.09"/><polygon class="cls-283" points="235.94 796.87 239.31 795.09 233.68 795.63 235.94 796.87"/><polygon class="cls-284" points="238.56 798.07 241.95 796.87 244.05 801.3 238.56 798.07"/><polygon class="cls-285" points="240.58 801.3 244.05 801.3 238.56 798.07 240.58 801.3"/><polygon class="cls-285" points="237.66 801.7 236.5 799.08 227.62 798.87 237.66 801.7"/><polygon class="cls-286" points="231.68 802.78 237.66 801.7 227.62 798.87 231.68 802.78"/><polygon class="cls-114" points="236.97 804.57 240.29 803.06 245.28 807.19 236.97 804.57"/><polygon class="cls-287" points="240.78 807.91 245.28 807.19 236.97 804.57 240.78 807.91"/><polygon class="cls-288" points="236.3 807.4 234.27 804.3 227.91 805.13 236.3 807.4"/><polygon class="cls-289" points="232.36 808.9 236.3 807.4 227.91 805.13 232.36 808.9"/><polygon class="cls-290" points="235.45 811.08 238.56 809.68 242.24 812.94 235.45 811.08"/><polygon class="cls-291" points="238.04 813.74 242.24 812.94 235.45 811.08 238.04 813.74"/><polygon class="cls-292" points="234.74 814.49 233.24 812.18 225.52 813.33 234.74 814.49"/><polygon class="cls-293" points="230.99 815.85 234.74 814.49 225.52 813.33 230.99 815.85"/><polygon class="cls-294" points="234.08 818.14 236.97 816.68 246.4 819.46 234.08 818.14"/><polygon class="cls-295" points="237.66 820.98 246.4 819.46 234.08 818.14 237.66 820.98"/><polygon class="cls-296" points="233.6 821.42 231.53 818.39 225.22 819.91 233.6 821.42"/><polygon class="cls-297" points="228.79 823.52 233.6 821.42 225.22 819.91 228.79 823.52"/><polygon class="cls-20" points="233.11 825.93 236.81 823.77 245.08 826.95 233.11 825.93"/><polygon class="cls-298" points="239.85 828.9 245.08 826.95 233.11 825.93 239.85 828.9"/><polygon class="cls-299" points="232.87 829.4 230.7 826.95 220.82 828.17 232.87 829.4"/><polygon class="cls-300" points="227.47 831.4 232.87 829.4 220.82 828.17 227.47 831.4"/><polygon class="cls-300" points="232.74 833.45 234.74 830.86 237.45 833.45 232.74 833.45"/><polygon class="cls-301" points="232.76 837.27 231.83 833.99 226.15 836.39 232.76 837.27"/><polygon class="cls-302" points="228.55 839.52 232.76 837.27 226.15 836.39 228.55 839.52"/><polygon class="cls-303" points="232.93 841.13 235.69 838.3 246.4 840.5 232.93 841.13"/><polygon class="cls-304" points="238.53 844.8 246.4 840.5 232.93 841.13 238.53 844.8"/><polygon class="cls-305" points="233.18 844.41 230.46 842.26 220.33 844.41 233.18 844.41"/><polygon class="cls-306" points="229.04 846.61 233.18 844.41 220.33 844.41 229.04 846.61"/><polygon class="cls-307" points="233.68 848.93 235.54 846.61 242.63 847.77 233.68 848.93"/><polygon class="cls-308" points="238.16 850.67 242.63 847.77 233.68 848.93 238.16 850.67"/><polygon class="cls-309" points="234.2 852.48 231.73 849.6 221.21 851.04 234.2 852.48"/><polygon class="cls-310" points="225.66 855.07 234.2 852.48 221.21 851.04 225.66 855.07"/><polygon class="cls-311" points="234.83 856.12 236.18 853.75 242.39 855.32 234.83 856.12"/><polygon class="cls-312" points="238.38 857.81 242.39 855.32 234.83 856.12 238.38 857.81"/><polygon class="cls-313" points="235.51 859.54 232.93 857.57 226.49 859.28 235.51 859.54"/><polygon class="cls-314" points="231.97 861.87 235.51 859.54 226.49 859.28 231.97 861.87"/><polygon class="cls-315" points="236.3 863.12 237.74 860.99 244 860.99 236.3 863.12"/><polygon class="cls-316" points="240.73 864.22 244 860.99 236.3 863.12 240.73 864.22"/><polygon class="cls-317" points="237.02 866.11 233 864.22 223.8 868.87 237.02 866.11"/><polygon class="cls-318" points="230.41 870.73 237.02 866.11 223.8 868.87 230.41 870.73"/><polygon class="cls-319" points="237.79 869.1 238.61 866.54 244 868.42 237.79 869.1"/><polygon class="cls-227" points="241.12 870.73 244 868.42 237.79 869.1 241.12 870.73"/><polygon class="cls-320" points="238.85 872.99 236.3 871.07 228.99 874.25 238.85 872.99"/><polygon class="cls-321" points="236.3 875.86 238.85 872.99 228.99 874.25 236.3 875.86"/><polygon class="cls-322" points="239.73 876.06 241.51 872.99 252.61 873.42 239.73 876.06"/><polygon class="cls-323" points="247.38 876.64 252.61 873.42 239.73 876.06 247.38 876.64"/><polygon class="cls-324" points="240.69 879.25 238.61 877.08 235.2 880.12 240.69 879.25"/><polygon class="cls-325" points="238.85 881.53 240.69 879.25 235.2 880.12 238.85 881.53"/><polygon class="cls-325" points="241.61 882.25 244 879.63 252.61 881.53 241.61 882.25"/><polygon class="cls-326" points="242.7 885.69 239.94 883.54 231.92 887.5 242.7 885.69"/><polygon class="cls-327" points="239.41 889.21 242.7 885.69 231.92 887.5 239.41 889.21"/><polygon class="cls-328" points="243.84 889.21 245.67 887.16 254.03 887.5 243.84 889.21"/><polygon class="cls-329" points="248.26 890.34 254.03 887.5 243.84 889.21 248.26 890.34"/><polygon class="cls-330" points="244.87 892.3 241.61 890.98 236.28 894.25 244.87 892.3"/><polygon class="cls-331" points="242.7 894.99 244.87 892.3 236.28 894.25 242.7 894.99"/><polygon class="cls-332" points="246.17 895.82 247.58 893.32 254.77 893.64 246.17 895.82"/><polygon class="cls-333" points="250.12 897.04 254.77 893.64 246.17 895.82 250.12 897.04"/><polygon class="cls-333" points="247.11 898.96 244.53 897.04 239.41 898.96 247.11 898.96"/><polygon class="cls-334" points="248.01 901.58 249.58 899.68 254.77 899.98 248.01 901.58"/><polygon class="cls-335" points="251.59 902.71 254.77 899.98 248.01 901.58 251.59 902.71"/><polygon class="cls-336" points="248.94 904.28 244.87 902.52 242.7 905.6 248.94 904.28"/><polygon class="cls-337" points="246.79 906.73 248.94 904.28 242.7 905.6 246.79 906.73"/><polygon class="cls-337" points="249.93 907.16 251.39 905.11 258.53 906.73 249.93 907.16"/><polygon class="cls-338" points="250.8 909.67 248.7 908.34 247.11 911.08 250.8 909.67"/><polygon class="cls-339" points="249.68 912.15 250.8 909.67 247.11 911.08 249.68 912.15"/><polygon class="cls-340" points="251.39 911.36 252.32 909.67 255.89 911.91 251.39 911.36"/><polygon class="cls-341" points="253.64 912.99 255.89 911.91 251.39 911.36 253.64 912.99"/></g></g><g id="klavesnice"><rect class="cls-7" x="529.64" y="634.87" width="293.87" height="4.7"/><polygon class="cls-16" points="805.5 626.99 803.48 626.99 803.48 624.69 786.92 624.69 786.92 626.99 783.92 626.99 783.92 624.69 767.35 624.69 767.35 626.99 764.09 626.99 764.09 624.69 747.53 624.69 747.53 626.99 743.48 626.99 743.48 624.69 726.92 624.69 726.92 626.99 724.05 626.99 724.05 624.69 707.48 624.69 707.48 626.99 705 626.99 705 624.69 688.44 624.69 688.44 626.99 685.7 626.99 685.7 624.69 669.14 624.69 669.14 626.99 665.35 626.99 665.35 624.69 648.79 624.69 648.79 626.99 645.53 626.99 645.53 624.69 628.96 624.69 628.96 626.99 625.44 626.99 625.44 624.69 608.88 624.69 608.88 626.99 605.88 626.99 605.88 624.69 589.31 624.69 589.31 626.99 585.79 626.99 585.79 624.69 569.22 624.69 569.22 626.99 566.22 626.99 566.22 624.69 549.66 624.69 549.66 626.99 547.64 626.99 529.64 634.87 634.11 634.87 719.03 634.87 823.5 634.87 805.5 626.99"/></g><g id="mys"><path class="cls-16" d="M1160.72,651.88c0,4.16-10.18,7.88-15.85,7.88s-68.09-4.5-70.83-5.09-7.24,0-7.24-2.93,2.55-12.33,29.16-13.5,48.32,2.54,54,4.5S1160.72,647.72,1160.72,651.88Z" transform="translate(-215.71 -19.18)"/><path class="cls-7" d="M1066.8,651.74c-.44,3.1,7.24,6.06,13.31,6.65s47,1.37,47,1.37h17.8s-22.3-.39-35.41-8-22.11-8-29.35-7.63S1067.39,647.63,1066.8,651.74Z" transform="translate(-215.71 -19.18)"/></g><ellipse class="cls-342" cx="725.77" cy="328.1" rx="563.41" ry="328.1"/></svg>