<svg id="Vrstva_2" data-name="Vrstva 2" xmlns="http://www.w3.org/2000/svg" xmlns:xlink="http://www.w3.org/1999/xlink" viewBox="0 0 1501.37 743.55"><defs><style>.cls-1{fill:url(#Nepojmenovaný_přechod_25);}.cls-2{fill:url(#Nepojmenovaný_přechod_29);}.cls-3{fill:#706f6f;}.cls-4{fill:#1d1d1b;}.cls-5{fill:url(#Nepojmenovaný_přechod_228);}.cls-6{fill:url(#Nepojmenovaný_přechod_207);}.cls-7{fill:url(#Nepojmenovaný_přechod_192);}.cls-8{fill:url(#Nepojmenovaný_přechod_135);}.cls-9{fill:url(#Nepojmenovaný_přechod_120);}.cls-10{fill:url(#Nepojmenovaný_přechod_60);}.cls-11{fill:#a3acb2;}.cls-12{fill:#b9c3cc;}.cls-13{fill:#939ca0;}.cls-14{fill:#d0dd72;}.cls-15{fill:#adaf54;}.cls-16{fill:#cccc64;}.cls-17{fill:#ccc566;}.cls-18{fill:#bac165;}.cls-19{fill:#b5b368;}.cls-20{fill:#dedc00;}.cls-21,.cls-22,.cls-23{fill:#e7f3ff;}.cls-22,.cls-24{stroke:#809e10;}.cls-198,.cls-22,.cls-23,.cls-24{stroke-miterlimit:10;stroke-width:2px;}.cls-198,.cls-23{stroke:#6c820f;}.cls-198,.cls-24{fill:none;stroke-linecap:round;}.cls-25{fill:#95c11f;}.cls-26{fill:#8aaf17;}.cls-27{fill:#a2bf26;}.cls-28{fill:#87991f;}.cls-29{fill:#adbc22;}.cls-30{fill:#989e2d;}.cls-31{fill:#80a313;}.cls-32{fill:#c8e589;}.cls-33{fill:#77a004;}.cls-34{fill:#bac92d;}.cls-35{fill:#878e02;}.cls-36{fill:#8eba13;}.cls-37{fill:#7a990a;}.cls-38{fill:#b1d80e;}.cls-39{fill:#8da307;}.cls-40{fill:#849907;}.cls-41{fill:#99b204;}.cls-42{fill:#597c01;}.cls-43{fill:#a7dd00;}.cls-44{fill:#84a304;}.cls-45{fill:#85c102;}.cls-46{fill:#97bf04;}.cls-47{fill:#7d9905;}.cls-48{fill:#b3d102;}.cls-49{fill:#9aaa02;}.cls-50{fill:#afc433;}.cls-51{fill:#a8d113;}.cls-52{fill:#7c9904;}.cls-53{fill:#b9d12c;}.cls-54{fill:#79a308;}.cls-55{fill:#a0c920;}.cls-56{fill:#819e0b;}.cls-57{fill:#8fb224;}.cls-58{fill:#a3c905;}.cls-59{fill:#8aa519;}.cls-60{fill:#a4cc12;}.cls-61{fill:#8ca525;}.cls-62{fill:#84961d;}.cls-63{fill:#92b70d;}.cls-64{fill:#9dbf10;}.cls-65{fill:#8ba00b;}.cls-66{fill:#5f8e16;}.cls-67{fill:#86c618;}.cls-68{fill:#71a017;}.cls-69{fill:#85bc0d;}.cls-70{fill:#7fa516;}.cls-71{fill:#aad120;}.cls-72{fill:#87a50c;}.cls-73{fill:#97c114;}.cls-74{fill:#90af0e;}.cls-75{fill:#9cad36;}.cls-76{fill:#9ad812;}.cls-77{fill:#7da01d;}.cls-78{fill:#a2c61e;}.cls-79{fill:#86a015;}.cls-80{fill:#b0c439;}.cls-81{fill:#80ad2a;}.cls-82{fill:#9ece36;}.cls-83{fill:#82aa15;}.cls-84{fill:#8ba51e;}.cls-85{fill:#bcd621;}.cls-86{fill:#60870b;}.cls-87{fill:#94c60c;}.cls-88{fill:#7d9b10;}.cls-89{fill:#9fbf16;}.cls-90{fill:#73ad0e;}.cls-91{fill:#93ba49;}.cls-92{fill:#729b18;}.cls-93{fill:#8fbc13;}.cls-94{fill:#aed813;}.cls-95{fill:#9dbc1d;}.cls-96{fill:#9caf28;}.cls-97{fill:#aaba13;}.cls-98{fill:#64890b;}.cls-99{fill:#98c609;}.cls-100{fill:#89a31d;}.cls-101{fill:#9ccc17;}.cls-102{fill:#86a514;}.cls-103{fill:#aed313;}.cls-104{fill:#a0b718;}.cls-105{fill:#84d115;}.cls-106{fill:#85b236;}.cls-107{fill:#a0cc17;}.cls-108{fill:#afd641;}.cls-109{fill:#94b51f;}.cls-110{fill:#a7c917;}.cls-111{fill:#83ad0e;}.cls-112{fill:#7ca311;}.cls-113{fill:#a2c914;}.cls-114{fill:#b9d34f;}.cls-115{fill:#9fb51f;}.cls-116{fill:#99c914;}.cls-117{fill:#91af23;}.cls-118{fill:#829b19;}.cls-119{fill:#aec620;}.cls-120{fill:#6fa313;}.cls-121{fill:#8ac40a;}.cls-122{fill:#6aa015;}.cls-123{fill:#83c116;}.cls-124{fill:#98d318;}.cls-125{fill:#89af1e;}.cls-126{fill:#95ce17;}.cls-127{fill:#c3d880;}.cls-128{fill:#a8c140;}.cls-129{fill:#8da018;}.cls-130{fill:#a2ce17;}.cls-131{fill:#70a513;}.cls-132{fill:#97cc25;}.cls-133{fill:#83ad10;}.cls-134{fill:#a2c912;}.cls-135{fill:#85a012;}.cls-136{fill:#94bf0d;}.cls-137{fill:#b9d34c;}.cls-138{fill:#9aaf20;}.cls-139{fill:#6ba511;}.cls-140{fill:#88c61c;}.cls-141{fill:#97d316;}.cls-142{fill:#85b20b;}.cls-143{fill:#a6cc1f;}.cls-144{fill:#8dd61a;}.cls-145{fill:#7eb51d;}.cls-146{fill:#8fc41a;}.cls-147{fill:#79a00e;}.cls-148{fill:#abd122;}.cls-149{fill:#8aa517;}.cls-150{fill:#8dd316;}.cls-151{fill:#a4d118;}.cls-152{fill:#6da30d;}.cls-153{fill:#a0d118;}.cls-154{fill:#90b214;}.cls-155{fill:#bfd859;}.cls-156{fill:#8ec13e;}.cls-157{fill:#a4d64c;}.cls-158{fill:#8ab232;}.cls-159{fill:#9bc91f;}.cls-160{fill:#7ea319;}.cls-161{fill:#87c624;}.cls-162{fill:#86b21b;}.cls-163{fill:#a2cc21;}.cls-164{fill:#90aa22;}.cls-165{fill:#b6ce28;}.cls-166{fill:#8bb21f;}.cls-167{fill:#97ce2e;}.cls-168{fill:#bae264;}.cls-169{fill:#82af35;}.cls-170{fill:#88b22d;}.cls-171{fill:#83d821;}.cls-172{fill:#6bb20f;}.cls-173{fill:#c3e094;}.cls-174{fill:#82db03;}.cls-175{fill:#b8dd6f;}.cls-176{fill:#96ba3e;}.cls-177{fill:#819e2a;}.cls-178{fill:#91ce25;}.cls-179{fill:#7fad1a;}.cls-180{fill:#a1ce24;}.cls-181{fill:#87a51b;}.cls-182{fill:#94d621;}.cls-183{fill:#85b71a;}.cls-184{fill:#77a012;}.cls-185{fill:#9ac121;}.cls-186{fill:#89a02a;}.cls-187{fill:#b2d372;}.cls-188{fill:#91aa52;}.cls-189{fill:#a3c43d;}.cls-190{fill:#67a50e;}.cls-191{fill:#b4d67b;}.cls-192{fill:#88b238;}.cls-193{fill:#76a314;}.cls-194{fill:#9bc626;}.cls-195{fill:#8ead1f;}.cls-196{fill:#a4c12b;}.cls-197{fill:#c4d179;}.cls-199{fill:#81a020;}.cls-200{fill:#bbcc75;}.cls-201{fill:#9daf35;}.cls-202{fill:#98d12a;}.cls-203{fill:#83af23;}.cls-204{fill:#9fce20;}.cls-205{fill:#63aa11;}.cls-206{fill:#86d126;}.cls-207{fill:#71ad1a;}.cls-208{fill:#b3d180;}.cls-209{fill:#84af33;}.cls-210{fill:#99ce24;}.cls-211{fill:#8da54c;}.cls-212{fill:#aed366;}.cls-213{fill:#7aa01c;}.cls-214{fill:#add62d;}.cls-215{fill:#72ad15;}.cls-216{fill:#92ce20;}.cls-217{fill:#85b718;}.cls-218{fill:#a1d31a;}.cls-219{fill:#72af12;}.cls-220{fill:#96d627;}.cls-221{fill:#77a81a;}.cls-222{fill:#a3d320;}.cls-223{fill:#70af1e;}.cls-224{fill:#8fd81d;}.cls-225{fill:#7bb515;}.cls-226{fill:#96ce1d;}.cls-227{fill:#6ca316;}.cls-228{fill:#b6db75;}.cls-229{fill:#94bf37;}.cls-230{fill:#7a9e18;}.cls-231{fill:#98d33c;}.cls-232{fill:#7cb21d;}.cls-233{fill:#719919;}.cls-234{fill:#9dc923;}.cls-235{fill:#8baa1b;}.cls-236{fill:#abcc21;}.cls-237{fill:#879b13;}.cls-238{fill:#a0d62b;}.cls-239{fill:#88af1c;}.cls-240{fill:#a9ce24;}.cls-241{fill:#95b218;}.cls-242{fill:#7d8e16;}.cls-243{fill:#bfc95f;}.cls-244{fill:#959b1e;}.cls-245{fill:#89c612;}.cls-246{fill:#7ea51c;}.cls-247{fill:#a2cc1f;}.cls-248{fill:#71aa17;}.cls-249{fill:#b7e068;}.cls-250{fill:#92bf30;}.cls-251{fill:#a3d35f;}.cls-252{fill:#76af1c;}.cls-253{fill:#9ad350;}.cls-254{fill:#7caf2c;}.cls-255{fill:#a2ce55;}.cls-256{fill:#86ad31;}.cls-257{fill:#92cc40;}.cls-258{fill:#79b21f;}.cls-259{fill:#b3dd64;}.cls-260{fill:#8fbc2e;}.cls-261{fill:#a2ce29;}.cls-262{fill:#84a316;}.cls-263{fill:#7ecc19;}.cls-264{fill:#6eaf12;}.cls-265{fill:#acdd5e;}.cls-266{fill:#8bba31;}.cls-267{fill:#a6ce4d;}.cls-268{fill:#83a81e;}.cls-269{fill:#6e841e;}.cls-270{fill:#96d346;}.cls-271{fill:#77af1e;}.cls-272{fill:#94d120;}.cls-273{fill:#7ba818;}.cls-274{fill:#a1cc29;}.cls-275{fill:#95b71c;}.cls-276{fill:#a1d82a;}.cls-277{fill:#5b9b12;}.cls-278{fill:#7ec127;}.cls-279{fill:#7ca53a;}.cls-280{fill:#9ed830;}.cls-281{fill:#83b711;}.cls-282{fill:#b7d85b;}.cls-283{fill:#96b720;}.cls-284{fill:#8bb729;}.cls-285{fill:#aae069;}.cls-286{fill:#83b53a;}.cls-287{fill:#9fdd33;}.cls-288{fill:#83b71d;}.cls-289{fill:#bfdd76;}.cls-290{fill:#9ebc3f;}.cls-291{fill:#87a01f;}.cls-292{fill:#7eb219;}.cls-293{fill:#b7d66b;}.cls-294{fill:#96b533;}.cls-295{fill:#90d622;}.cls-296{fill:#7cb715;}.cls-297{fill:#97d841;}.cls-298{fill:#7bb71c;}.cls-299{fill:#a6e036;}.cls-300{fill:#80b214;}.cls-301{fill:#8da05a;}.cls-302{fill:#707f32;}.cls-303{fill:#8bad21;}.cls-304{fill:#9bd339;}.cls-305{fill:#84aa30;}.cls-306{fill:#b0db3a;}.cls-307{fill:#96b526;}.cls-308{fill:#88d12a;}.cls-309{fill:#71ad1c;}.cls-310{fill:#80d612;}.cls-311{fill:#6baa11;}.cls-312{fill:#6dc618;}.cls-313{fill:#5aa010;}.cls-314{fill:#78cc1f;}.cls-315{fill:#5da00e;}.cls-316{fill:#7bcc12;}.cls-317{fill:#6caa0b;}.cls-318{fill:#96db6a;}.cls-319{fill:#68a341;}.cls-320{fill:#66dd28;}.cls-321{fill:#55ad21;}.cls-322{fill:#79cc19;}.cls-323{fill:#64a017;}.cls-324{fill:#8cd81e;}.cls-325{fill:#89d819;}.cls-326{fill:#6eaf08;}.cls-327{fill:#8cd115;}.cls-328{fill:#7baa22;}.cls-329{fill:#b2d663;}.cls-330{fill:#99bc3b;}.cls-331{fill:#abd625;}.cls-332{fill:#97b518;}.cls-333{fill:#a4dd17;}.cls-334{fill:#96bf16;}.cls-335{fill:#c3db5d;}.cls-336{fill:#a1b723;}.cls-337{fill:#92c918;}.cls-338{fill:#7ea514;}.cls-339{fill:#b0d821;}.cls-340{fill:#99b22f;}.cls-341{fill:#bdd81d;}.cls-342{fill:#9baa0e;}.cls-343{fill:#a0d119;}.cls-344{fill:#87a80e;}.cls-345{fill:#b0d80b;}.cls-346{fill:#6eb20b;}</style><linearGradient id="Nepojmenovaný_přechod_25" y1="499.3" x2="1501.37" y2="499.3" gradientUnits="userSpaceOnUse"><stop offset="0" stop-color="#fff" stop-opacity="0"/><stop offset="0.02" stop-color="#efe5db" stop-opacity="0.2"/><stop offset="0.05" stop-color="#dfcab5" stop-opacity="0.41"/><stop offset="0.08" stop-color="#d1b393" stop-opacity="0.59"/><stop offset="0.11" stop-color="#c5a079" stop-opacity="0.74"/><stop offset="0.14" stop-color="#bc9164" stop-opacity="0.86"/><stop offset="0.18" stop-color="#b68755" stop-opacity="0.94"/><stop offset="0.22" stop-color="#b2814d" stop-opacity="0.99"/><stop offset="0.3" stop-color="#b17f4a"/><stop offset="0.7" stop-color="#b17f4a"/><stop offset="0.78" stop-color="#b2814d" stop-opacity="0.99"/><stop offset="0.82" stop-color="#b68755" stop-opacity="0.94"/><stop offset="0.86" stop-color="#bc9164" stop-opacity="0.86"/><stop offset="0.89" stop-color="#c5a079" stop-opacity="0.74"/><stop offset="0.92" stop-color="#d1b393" stop-opacity="0.59"/><stop offset="0.95" stop-color="#dfcab5" stop-opacity="0.41"/><stop offset="0.98" stop-color="#efe5db" stop-opacity="0.2"/><stop offset="1" stop-color="#fff" stop-opacity="0"/></linearGradient><linearGradient id="Nepojmenovaný_přechod_29" y1="462.27" x2="1501.37" y2="462.27" gradientUnits="userSpaceOnUse"><stop offset="0" stop-color="#fff" stop-opacity="0"/><stop offset="0.01" stop-color="#fbf7f3" stop-opacity="0.08"/><stop offset="0.03" stop-color="#efe2d2" stop-opacity="0.29"/><stop offset="0.06" stop-color="#e5d0b5" stop-opacity="0.48"/><stop offset="0.08" stop-color="#ddc09d" stop-opacity="0.64"/><stop offset="0.11" stop-color="#d6b489" stop-opacity="0.77"/><stop offset="0.15" stop-color="#d1aa7a" stop-opacity="0.88"/><stop offset="0.18" stop-color="#cda36f" stop-opacity="0.95"/><stop offset="0.23" stop-color="#cb9f69" stop-opacity="0.99"/><stop offset="0.3" stop-color="#ca9e67"/><stop offset="0.7" stop-color="#ca9e67"/><stop offset="0.77" stop-color="#cb9f69" stop-opacity="0.99"/><stop offset="0.82" stop-color="#cda36f" stop-opacity="0.95"/><stop offset="0.85" stop-color="#d1aa7a" stop-opacity="0.88"/><stop offset="0.89" stop-color="#d6b489" stop-opacity="0.77"/><stop offset="0.92" stop-color="#ddc09d" stop-opacity="0.64"/><stop offset="0.94" stop-color="#e5d0b5" stop-opacity="0.48"/><stop offset="0.97" stop-color="#efe2d2" stop-opacity="0.29"/><stop offset="0.99" stop-color="#fbf7f3" stop-opacity="0.08"/><stop offset="1" stop-color="#fff" stop-opacity="0"/></linearGradient><linearGradient id="Nepojmenovaný_přechod_228" x1="969.2" y1="158.67" x2="479.42" y2="158.67" gradientUnits="userSpaceOnUse"><stop offset="0" stop-color="#0084bf"/><stop offset="1" stop-color="#1cbdd4"/></linearGradient><linearGradient id="Nepojmenovaný_přechod_207" x1="968.6" y1="243.7" x2="901.88" y2="532.68" gradientUnits="userSpaceOnUse"><stop offset="0" stop-color="#0067bf"/><stop offset="0.08" stop-color="#007bc7"/><stop offset="0.18" stop-color="#009ed4"/></linearGradient><linearGradient id="Nepojmenovaný_přechod_192" x1="958.61" y1="284.74" x2="906.5" y2="529.88" gradientUnits="userSpaceOnUse"><stop offset="0" stop-color="#b5ffff"/><stop offset="0.03" stop-color="#c9ffff"/><stop offset="0.1" stop-color="#fdffff"/><stop offset="0.1" stop-color="#fff"/></linearGradient><linearGradient id="Nepojmenovaný_přechod_135" x1="983.86" y1="287.95" x2="877.89" y2="550.23" gradientUnits="userSpaceOnUse"><stop offset="0" stop-color="#d8d700"/><stop offset="0.07" stop-color="#e8c300"/><stop offset="0.14" stop-color="#ffa700"/></linearGradient><linearGradient id="Nepojmenovaný_přechod_120" x1="907.4" y1="526.21" x2="956.87" y2="271.71" gradientUnits="userSpaceOnUse"><stop offset="0.4" stop-color="#ef7f57"/><stop offset="0.55" stop-color="#e76b54"/><stop offset="0.86" stop-color="#d1374c"/><stop offset="1" stop-color="#c61e48"/></linearGradient><linearGradient id="Nepojmenovaný_přechod_60" x1="915.21" y1="527.73" x2="947" y2="364.22" gradientUnits="userSpaceOnUse"><stop offset="0" stop-color="#ef6f57"/><stop offset="0.3" stop-color="#f15b53"/><stop offset="0.9" stop-color="#f8274a"/><stop offset="1" stop-color="#f91e48"/></linearGradient></defs><g id="stul"><rect id="stůl" class="cls-1" y="475.32" width="1501.37" height="47.95"/><polygon class="cls-2" points="1501.37 475.32 0 475.32 42.85 449.21 1467.2 449.21 1501.37 475.32"/></g><polygon id="podlozka" class="cls-3" points="1134.59 473.15 325.38 473.15 357.38 453 1104.59 453 1134.59 473.15"/><g id="monitor"><path class="cls-4" d="M475.14,0H973.48A16.72,16.72,0,0,1,990.2,16.72V317.34a0,0,0,0,1,0,0H458.42a0,0,0,0,1,0,0V16.72A16.72,16.72,0,0,1,475.14,0Z"/><g id="bg"><rect class="cls-5" x="479.42" y="21" width="489.78" height="275.34"/><path class="cls-6" d="M1127.78,287.61c-17.74.52-65.21-16.7-77.21-23s-61.91-17.22-84.17-14.08S893,261,872.65,259.43,781.87,250,781.87,250H695.13V485h489.78V295.43S1145.52,287.09,1127.78,287.61Z" transform="translate(-215.71 -188.61)"/><path class="cls-7" d="M1150.74,331.43c-21.91-4.3-37.17-1.17-51.65-3.91s-36.79-14.87-46.18-18S1036.48,308,1031,306s-13.3-9.39-24.26-11-34.48,2.35-53.44,2.35-78.43-12.13-92.52-18-165.65-20-165.65-20V485h489.78V343.57S1172.65,335.74,1150.74,331.43Z" transform="translate(-215.71 -188.61)"/><path class="cls-8" d="M1078.35,345.52c-38.35-6.26-77.87-11.35-90.78-16S881.91,307.57,853.35,308s-158.22,0-158.22,0V485h489.78V380S1116.7,351.78,1078.35,345.52Z" transform="translate(-215.71 -188.61)"/><path class="cls-9" d="M1151.26,407.35c-11.74,2.35-28.17,0-33.39-10.18s-23-13.56-29-13.3-23-5.48-30.78-12.52-28.7-17.22-41-18.78a63.13,63.13,0,0,1-37.3-18c-12-11.74-33.39-20.61-49.57-23.29s-38.6-19-44.87-27.06-49.3-32.61-90.52-43.57-99.78-8.87-99.78-8.87V485h489.78V408.18S1163,405,1151.26,407.35Z" transform="translate(-215.71 -188.61)"/><path class="cls-10" d="M1145,447.78c-18.26-5.74-77.22-5.21-95.48-6.26s-82.95-20.35-97.27-26.61-72.82-36-88.47-44.34-77.74-17.74-96-22-72.65-33.35-72.65-33.35V485h489.78V470.74S1163.26,453.52,1145,447.78Z" transform="translate(-215.71 -188.61)"/></g><polygon class="cls-11" points="795.2 455.39 656.94 455.39 664.24 369.83 785.29 369.83 795.2 455.39"/><path class="cls-12" d="M674.13,506.85v41.87a16.72,16.72,0,0,0,16.72,16.71H1189.2a16.71,16.71,0,0,0,16.71-16.71V505Z" transform="translate(-215.71 -188.61)"/><g id="paw_logo" data-name="paw logo"><path class="cls-4" d="M939.39,531.91c-1,.35-1.82,1.51-2,3.68a18.15,18.15,0,0,1-2,5.91c-.65,1.38-1.37,4.23.14,5.44a4.34,4.34,0,0,0,5.09,0c1.34-1,2.62-2.38,3.65-2.69s5.09.18,6.64-1.27,1.75-3.4.41-4.71a10.9,10.9,0,0,0-3.68-2.24,19.85,19.85,0,0,1-4.37-2.66c-1-1-1.65-1.53-2.48-1.64S940.63,531.49,939.39,531.91Z" transform="translate(-215.71 -188.61)"/><path class="cls-4" d="M927.9,532.25c-.86.2-1.72,2.89-.69,6s4.51,4.3,5.23,2.72a7.08,7.08,0,0,0-.58-5.78C930.89,533.49,929.69,531.84,927.9,532.25Z" transform="translate(-215.71 -188.61)"/><path class="cls-4" d="M931.72,522.52c-1.27.3-2.75,2.88-1.48,6.53s3.13,4.54,4.44,4.51,2.3-1.79,2.3-3.61a8.64,8.64,0,0,0-2-5.71C933.47,522.48,933,522.21,931.72,522.52Z" transform="translate(-215.71 -188.61)"/><path class="cls-4" d="M938.39,526.47c1.45,3.23,4.23,4.47,5.47,3.78s1.89-3,1-5.43-1.92-4-3.42-4.78c-.74-.39-2.56-.72-3.32.55S937.66,524.83,938.39,526.47Z" transform="translate(-215.71 -188.61)"/><path class="cls-4" d="M948.37,524.65c-1,.24-2,2.72-.76,5.57s2.3,4.09,3.68,4,2.13-2.1,2-3.55S951,524,948.37,524.65Z" transform="translate(-215.71 -188.61)"/></g><rect class="cls-13" x="641.03" y="450.61" width="170.09" height="4.78"/></g><g id="kytka"><path class="cls-14" d="M1407.61,592.3s-.78,11.22,12.52,17.22,14.35,6.78,15.39-4.69S1407.61,592.3,1407.61,592.3Z" transform="translate(-215.71 -188.61)"/><path class="cls-15" d="M1430.68,588.36s10.13,4.87,8.77,19.4-1.21,15.82-11.7,11S1430.68,588.36,1430.68,588.36Z" transform="translate(-215.71 -188.61)"/><path class="cls-16" d="M1444.65,573s-9.4,17.94-7.3,26.35S1446,616.3,1446,616.3s9.13-11.47,8.08-24A29.32,29.32,0,0,0,1444.65,573Z" transform="translate(-215.71 -188.61)"/><path class="cls-17" d="M1466.57,582.13c-4.44-1.3-19.36,6.52-20.25,18.78s12.42,7.05,12.42,7.05S1470.48,594.65,1466.57,582.13Z" transform="translate(-215.71 -188.61)"/><path class="cls-18" d="M1424.63,590.79s-7.09,8.73.34,21.29,7.83,13.8,15.29,5S1424.63,590.79,1424.63,590.79Z" transform="translate(-215.71 -188.61)"/><path class="cls-19" d="M1451.28,592.81s-13.94,14.68-14.22,23.34,3.64,18.67,3.64,18.67,11.92-8.55,14.34-20.88A29.32,29.32,0,0,0,1451.28,592.81Z" transform="translate(-215.71 -188.61)"/><path class="cls-20" d="M1474.88,598.47s-7.1,19-14.76,23-18.38,4.9-18.38,4.9,2.46-14.46,12.49-22A29.36,29.36,0,0,1,1474.88,598.47Z" transform="translate(-215.71 -188.61)"/><path class="cls-21" d="M1484.43,604.83H1399.3s-1.17,18.78,4.7,29.34,12.91,19.35,16,20.44c1.87.65,13.09.52,21.83.32,8.73.2,20,.33,21.82-.32,3.13-1.09,10.17-9.87,16-20.44S1484.43,604.83,1484.43,604.83Z" transform="translate(-215.71 -188.61)"/></g><g id="kytka-2" data-name="kytka"><path id="_5" data-name="5" class="cls-22" d="M423.72,607.08s-2.15-10.36-4.7-10.36" transform="translate(-215.71 -188.61)"/><path id="_4" data-name="4" class="cls-22" d="M428.8,594.76c-2.15,0-1.17,12.32-1.17,12.32" transform="translate(-215.71 -188.61)"/><path id="_2" data-name="2" class="cls-22" d="M453.85,594.76c-2,0-2.55,12.32-2.55,12.32" transform="translate(-215.71 -188.61)"/><path id="_1" data-name="1" class="cls-23" d="M463.24,601.9c1.56,0,1.56,5.18,1.56,5.18" transform="translate(-215.71 -188.61)"/><path class="cls-21" d="M482.08,607.08H397s-1.18,18.79,4.69,29.35,12.92,19.35,16.05,20.44c1.87.65,13.08.52,21.82.31,8.73.21,20,.34,21.82-.31,3.13-1.09,10.17-9.87,16-20.44S482.08,607.08,482.08,607.08Z" transform="translate(-215.71 -188.61)"/><path id="_5-2" data-name="5" class="cls-24" d="M420.88,598.43c-4.8-7.69-6.55,5.33-6,16.29s15,64.89,13.89,91.37-17.51,56.82-9.78,85.69a56.69,56.69,0,0,1-1.37,33.39" transform="translate(-215.71 -188.61)"/><g id="_5-3" data-name="5"><polygon class="cls-25" points="199.69 413.29 196.85 409.09 190.98 413.24 199.69 413.29"/><polygon class="cls-25" points="196.74 435.95 196.49 439.62 201.69 439.86 196.74 435.95"/><polygon class="cls-26" points="199.36 415.88 205.66 419 202.51 422.52 199.36 415.88"/><polygon class="cls-26" points="210.3 487.62 216.59 490.74 213.45 494.26 210.3 487.62"/><polygon class="cls-27" points="199.09 422.52 195.34 420.04 191.5 423.56 199.09 422.52"/><polygon class="cls-28" points="195.34 425.65 199.09 422.52 191.5 423.56 195.34 425.65"/><polygon class="cls-29" points="199.09 426.44 201.16 424.48 203.31 426.44 199.09 426.44"/><polygon class="cls-30" points="200.44 427.48 203.31 426.44 199.09 426.44 200.44 427.48"/><polygon class="cls-29" points="199.34 448.75 199.98 445.98 202.85 446.42 199.34 448.75"/><polygon class="cls-30" points="201.04 448.88 202.85 446.42 199.34 448.75 201.04 448.88"/><polygon class="cls-29" points="205.19 479.34 205.84 476.57 208.71 477.01 205.19 479.34"/><polygon class="cls-30" points="206.9 479.46 208.71 477.01 205.19 479.34 206.9 479.46"/><polygon class="cls-25" points="199.69 430.14 196.4 428.52 191.5 434.06 199.69 430.14"/><polygon class="cls-31" points="195.6 434.06 199.69 430.14 191.5 434.06 195.6 434.06"/><polygon class="cls-25" points="216.22 470.15 212.93 468.53 208.04 474.08 216.22 470.15"/><polygon class="cls-31" points="212.13 474.08 216.22 470.15 208.04 474.08 212.13 474.08"/><polygon class="cls-27" points="208.43 433.58 204.68 431.1 200.84 434.62 208.43 433.58"/><polygon class="cls-28" points="204.68 436.71 208.43 433.58 200.84 434.62 204.68 436.71"/><polygon class="cls-32" points="202.02 442.49 203.77 439.86 209.77 442.49 202.02 442.49"/><polygon class="cls-33" points="203.77 444.3 209.77 442.49 202.02 442.49 203.77 444.3"/><polygon class="cls-32" points="204.16 494.67 205.91 492.04 211.91 494.67 204.16 494.67"/><polygon class="cls-33" points="205.91 496.49 211.91 494.67 204.16 494.67 205.91 496.49"/><polygon class="cls-34" points="203.75 450.9 197.49 449.59 191.86 455.9 203.75 450.9"/><polygon class="cls-35" points="199.34 455.5 203.75 450.9 191.86 455.9 199.34 455.5"/><polygon class="cls-36" points="204.38 453.98 216.22 456.24 207.66 459.84 204.38 453.98"/><polygon class="cls-36" points="198.46 483.09 210.3 485.35 201.74 488.95 198.46 483.09"/><polygon class="cls-37" points="205.08 457.41 201.1 457.9 200.81 462.55 205.08 457.41"/><polygon class="cls-37" points="214.26 477.95 210.28 478.44 210 483.09 214.26 477.95"/><polygon class="cls-38" points="206.46 464.32 209.77 461.38 218.47 466.07 206.46 464.32"/><polygon class="cls-39" points="213.58 467.15 218.47 466.07 206.46 464.32 213.58 467.15"/><polygon class="cls-38" points="206.95 466.85 201.55 466.07 198.42 471.3 206.95 466.85"/><polygon class="cls-40" points="202.85 471.81 206.95 466.85 198.42 471.3 202.85 471.81"/><polygon class="cls-41" points="211.91 496.99 217.59 498.6 212.47 501.14 211.91 496.99"/><polygon class="cls-41" points="212.79 504.71 208.53 503.07 202.37 508.78 212.79 504.71"/><polygon class="cls-42" points="209.81 512.07 212.79 504.71 202.37 508.78 209.81 512.07"/><polygon class="cls-43" points="213.15 509.55 220.72 507.57 220.72 513.96 213.15 509.55"/><polygon class="cls-44" points="215.63 514.84 220.72 513.96 213.15 509.55 215.63 514.84"/><polygon class="cls-45" points="213.12 516.7 202.04 522.03 206.22 528.53 213.12 516.7"/><polygon class="cls-46" points="212.82 521.39 220.04 520.12 221.99 527.75 212.82 521.39"/><polygon class="cls-47" points="215.15 525.79 221.99 527.75 212.82 521.39 215.15 525.79"/><polygon class="cls-48" points="211.88 528.53 202.04 526.97 199.88 530.68 211.88 528.53"/><polygon class="cls-49" points="207.03 531.37 211.88 528.53 199.88 530.68 207.03 531.37"/><polygon class="cls-49" points="209.93 538.33 214.75 544.09 220.72 537.92 209.93 538.33"/><polygon class="cls-50" points="216.59 535.38 220.72 537.92 209.93 538.33 216.59 535.38"/><polygon class="cls-51" points="208.83 543.04 203.5 541 195.94 546.96 208.83 543.04"/><polygon class="cls-52" points="202.04 547.74 195.94 546.96 208.83 543.04 202.04 547.74"/><polygon class="cls-52" points="207.39 548.94 215.9 549.7 208.83 554.13 207.39 548.94"/><polygon class="cls-53" points="205.88 555.14 199.09 554.13 189.16 561.43 205.88 555.14"/><polygon class="cls-54" points="199.09 561.43 205.88 555.14 189.16 561.43 199.09 561.43"/><polygon class="cls-55" points="204.29 562.14 211.88 562.14 213.15 568.61 204.29 562.14"/><polygon class="cls-55" points="202.92 569.12 209.93 567.96 215.9 576.04 202.92 569.12"/><polygon class="cls-56" points="205.88 574.61 215.9 576.04 202.92 569.12 205.88 574.61"/><polygon class="cls-42" points="201.71 577.86 188.63 585.66 190.3 578.33 201.71 577.86"/><polygon class="cls-57" points="197.52 574.51 201.71 577.86 190.3 578.33 197.52 574.51"/><polygon class="cls-58" points="201.36 582.34 205.88 580.28 210.65 586.64 201.36 582.34"/><polygon class="cls-59" points="204.29 586.64 210.65 586.64 201.36 582.34 204.29 586.64"/><polygon class="cls-59" points="201.28 588.98 193.33 588.98 187.85 596.42 197.93 595.25 201.28 588.98"/><polygon class="cls-60" points="201.93 596.42 207.39 594.08 213.88 600.83 201.93 596.42"/><polygon class="cls-61" points="206 601.41 213.88 600.83 201.93 596.42 206 601.41"/><polygon class="cls-61" points="203.8 605.15 199.09 603.17 193.53 608.65 203.8 605.15"/><polygon class="cls-62" points="198.66 610.51 203.8 605.15 193.53 608.65 198.66 610.51"/><polygon class="cls-62" points="210.65 610.51 204.48 608.65 208.72 614.13 210.65 610.51"/><polygon class="cls-63" points="209.41 607.83 204.48 608.65 210.65 610.51 209.41 607.83"/><polygon class="cls-64" points="205.14 615.4 199.09 614.13 194.57 620.2 205.14 615.4"/><polygon class="cls-65" points="199.85 620.2 205.14 615.4 194.57 620.2 199.85 620.2"/><polygon class="cls-66" points="205.12 620.2 209.41 624.01 211.64 620.2 205.12 620.2"/><polygon class="cls-67" points="204.72 624.88 201.93 622.64 197.54 624.88 204.72 624.88"/><polygon class="cls-68" points="199.09 627.14 204.72 624.88 197.54 624.88 199.09 627.14"/><polygon class="cls-68" points="204.13 628.58 208.79 630.57 205.14 632.13 204.13 628.58"/><polygon class="cls-69" points="203.13 632.92 197.54 633.4 196.56 638.88 203.13 632.92"/><polygon class="cls-69" points="201.55 407.97 198.13 406.59 202.02 400.72 201.55 407.97"/><polygon class="cls-70" points="203.31 403.9 202.02 400.72 201.55 407.97 203.31 403.9"/><polygon class="cls-71" points="206.22 412.18 203.31 411.07 201.2 414.79 206.22 412.18"/><polygon class="cls-72" points="204.43 414.66 206.22 412.18 201.2 414.79 204.43 414.66"/></g><path id="_4-2" data-name="4" class="cls-24" d="M438.2,798.43c5.28-16.82-5.29-31.69-3.33-51.65s14.48-78.26,8.61-101.35-10-40.3-10-43.53-2.12-12.06-5.66-5.79" transform="translate(-215.71 -188.61)"/><g id="_4-3" data-name="4"><polygon class="cls-73" points="211.7 410.08 205.66 407.13 205.66 399.89 211.7 410.08"/><polygon class="cls-74" points="209.38 401.98 211.7 410.08 205.66 399.89 209.38 401.98"/><polygon class="cls-75" points="215.26 405.56 213.94 410.08 215.26 413.29 215.26 405.56"/><polygon class="cls-75" points="231.97 441.73 227.2 441.87 224.7 444.38 231.97 441.73"/><polygon class="cls-75" points="216.97 408.53 223.85 408.17 221.31 413.78 216.97 408.53"/><polygon class="cls-75" points="216.97 441.16 223.85 440.8 221.31 446.41 216.97 441.16"/><polygon class="cls-76" points="218.04 415.52 213.94 414.04 209.57 417.7 218.04 415.52"/><polygon class="cls-77" points="214.27 417.96 218.04 415.52 209.57 417.7 214.27 417.96"/><polygon class="cls-76" points="231.41 435.87 227.32 434.39 222.95 438.04 231.41 435.87"/><polygon class="cls-77" points="227.64 438.3 231.41 435.87 222.95 438.04 227.64 438.3"/><polygon class="cls-77" points="218.66 418.88 222.48 416.98 227.18 420.11 218.66 418.88"/><polygon class="cls-78" points="219.34 422.13 215.26 421.35 212.13 425.2 219.34 422.13"/><polygon class="cls-79" points="216.42 425.52 219.34 422.13 212.13 425.2 216.42 425.52"/><polygon class="cls-78" points="225.07 446.41 221.25 448.05 220.82 453 225.07 446.41"/><polygon class="cls-79" points="224.56 450.86 225.07 446.41 220.82 453 224.56 450.86"/><polygon class="cls-79" points="220.41 426.91 215.26 427.22 214.6 431.91 220.41 426.91"/><polygon class="cls-80" points="221.21 430.33 224.68 427.92 230.7 430.02 221.21 430.33"/><polygon class="cls-81" points="223.85 431.91 230.7 430.02 221.21 430.33 223.85 431.91"/><polygon class="cls-82" points="222.26 434.7 218.66 433.54 215.73 437.7 222.26 434.7"/><polygon class="cls-83" points="219.74 438 222.26 434.7 215.73 437.7 219.74 438"/><polygon class="cls-78" points="226.09 450.21 228.34 447.88 236.42 449.98 226.09 450.21"/><polygon class="cls-84" points="230.7 452.08 236.42 449.98 226.09 450.21 230.7 452.08"/><polygon class="cls-85" points="227.34 455.16 222.58 454.77 217.51 459.13 227.34 455.16"/><polygon class="cls-86" points="225.96 458.34 227.34 455.16 217.51 459.13 225.96 458.34"/><polygon class="cls-87" points="228.34 459.48 229.63 456.29 233.83 459.13 228.34 459.48"/><polygon class="cls-88" points="231.08 461.33 233.83 459.13 228.34 459.48 231.08 461.33"/><polygon class="cls-89" points="228.96 464.21 225.07 462.79 220.82 466.12 228.96 464.21"/><polygon class="cls-90" points="226.35 467.98 228.96 464.21 220.82 466.12 226.35 467.98"/><polygon class="cls-91" points="229.27 469.44 232.73 471.65 233.83 468.74 229.27 469.44"/><polygon class="cls-91" points="229.32 473.9 226.09 471.99 216.52 476.05 229.32 473.9"/><polygon class="cls-92" points="221.85 477.71 229.32 473.9 216.52 476.05 221.85 477.71"/><polygon class="cls-93" points="229.27 477.71 233.83 479.13 233.83 481.48 229.27 477.71"/><polygon class="cls-94" points="231.34 480.79 233.83 481.48 229.27 477.71 231.34 480.79"/><polygon class="cls-94" points="229.01 482.84 226.25 481.09 218.77 484.22 229.01 482.84"/><polygon class="cls-95" points="224.44 485.34 229.01 482.84 218.77 484.22 224.44 485.34"/><polygon class="cls-96" points="228.74 486.9 237.55 487.5 233.14 489.89 228.74 486.9"/><polygon class="cls-97" points="228.22 492.93 226.44 489.89 219.74 493.71 228.22 492.93"/><polygon class="cls-98" points="225.27 496.84 228.22 492.93 219.74 493.71 225.27 496.84"/><polygon class="cls-97" points="218.99 559.9 217.22 556.86 210.52 560.68 218.99 559.9"/><polygon class="cls-98" points="216.04 563.81 218.99 559.9 210.52 560.68 216.04 563.81"/><polygon class="cls-98" points="227.66 498.36 232.07 501.19 237.21 497.42 227.66 498.36"/><polygon class="cls-98" points="210.5 552.88 214.91 555.71 220.05 551.95 210.5 552.88"/><polygon class="cls-99" points="226.86 505.11 222.63 500.21 213.63 503.93 226.86 505.11"/><polygon class="cls-100" points="217.4 507.25 226.86 505.11 213.63 503.93 217.4 507.25"/><polygon class="cls-101" points="226.14 510.58 230.7 508.58 236.38 511.51 226.14 510.58"/><polygon class="cls-102" points="233.44 513.57 226.14 510.58 236.38 511.51 233.44 513.57"/><polygon class="cls-103" points="225.31 516.55 223.41 513.17 216.81 516.75 225.31 516.55"/><polygon class="cls-104" points="219.3 519.09 225.31 516.55 216.81 516.75 219.3 519.09"/><polygon class="cls-103" points="228.74 548.83 226.85 545.46 220.24 549.03 228.74 548.83"/><polygon class="cls-104" points="222.74 551.38 228.74 548.83 220.24 549.03 222.74 551.38"/><polygon class="cls-105" points="224.53 521.82 233.78 518.85 236.72 521.82 224.53 521.82"/><polygon class="cls-106" points="228.74 524.72 236.72 521.82 224.53 521.82 228.74 524.72"/><polygon class="cls-106" points="223.88 526.14 221.06 524.02 214.75 525.94 223.88 526.14"/><polygon class="cls-106" points="223.4 529.22 226.14 535.92 229.92 531.91 223.4 529.22"/><path class="cls-107" d="M443.58,716.07c.14.14,2.05,4.45,2.05,4.45l-6.52-2.7Z" transform="translate(-215.71 -188.61)"/><polygon class="cls-108" points="222.65 533.98 219.31 531.11 213.09 534.96 222.65 533.98"/><polygon class="cls-109" points="216.81 537.15 222.65 533.98 213.09 534.96 216.81 537.15"/><polygon class="cls-109" points="221.96 538.41 225.31 542.26 227.96 539.46 221.96 538.41"/><polygon class="cls-110" points="221.04 544.27 217.87 540.34 208.4 542.26 221.04 544.27"/><polygon class="cls-111" points="215.44 545.72 221.04 544.27 208.4 542.26 215.44 545.72"/><polygon class="cls-112" points="218.99 565.74 226.27 569.59 231.29 566.13 218.99 565.74"/><polygon class="cls-113" points="226.27 563.81 231.29 566.13 218.99 565.74 226.27 563.81"/><polygon class="cls-114" points="219.61 572.38 217.33 568.22 209.9 572.85 219.61 572.38"/><polygon class="cls-115" points="214.4 575 219.61 572.38 209.9 572.85 214.4 575"/><polygon class="cls-116" points="220.29 576.5 223.81 573.69 231.88 575.46 220.29 576.5"/><polygon class="cls-117" points="228.09 577.41 231.88 575.46 220.29 576.5 228.09 577.41"/><polygon class="cls-117" points="221.14 580.76 217 578.78 209.9 581.52 221.14 580.76"/><polygon class="cls-118" points="221.8 583.9 227.57 590.26 230.11 583.35 221.8 583.9"/><polygon class="cls-119" points="222.69 588.25 218.99 586.48 214.07 588.63 222.69 588.25"/><polygon class="cls-120" points="218.18 590.26 222.69 588.25 214.07 588.63 218.18 590.26"/><polygon class="cls-121" points="223.5 593.13 227.24 591.24 232.4 593.52 223.5 593.13"/><polygon class="cls-122" points="227.05 595.61 232.4 593.52 223.5 593.13 227.05 595.61"/><polygon class="cls-123" points="223.81 597.24 219.61 599.13 219.61 595.61 223.81 597.24"/><polygon class="cls-124" points="223.98 599.91 226.4 598.61 227.95 602 223.98 599.91"/><polygon class="cls-125" points="225.42 602.59 227.95 602 223.98 599.91 225.42 602.59"/><polygon class="cls-125" points="223.81 603.31 221.8 601.67 217.13 603.89 223.81 603.31"/><polygon class="cls-125" points="223.28 606.78 225.35 609.83 229.32 608.91 223.28 606.78"/><polygon class="cls-126" points="226.98 605.33 229.32 608.91 223.28 606.78 226.98 605.33"/></g><path id="_2-2" data-name="2" class="cls-24" d="M470.48,830.52c13.69-4.3,17.22-48.52,7.43-68.87s-29-62.38-26.61-83.35,13.11-50.08,11.94-58.69-7.83-32-10.66-22.74" transform="translate(-215.71 -188.61)"/><g id="_2-3" data-name="2"><polygon class="cls-25" points="236.06 412.93 230.7 414.79 227.34 410.98 236.06 412.93"/><polygon class="cls-127" points="232.07 409.43 236.06 412.93 227.34 410.98 232.07 409.43"/><polygon class="cls-127" points="236.7 408.91 238.53 411.7 239.18 409.43 236.7 408.91"/><polygon class="cls-128" points="238.13 406.15 236.06 402.37 241.59 397.61 238.13 406.15"/><polygon class="cls-128" points="240.53 407.97 241.85 405.31 249.09 405.83 240.53 407.97"/><polygon class="cls-129" points="244.27 408.91 249.09 405.83 240.53 407.97 244.27 408.91"/><polygon class="cls-130" points="242.44 411.97 239.18 412.88 238.82 415.88 242.44 411.97"/><polygon class="cls-131" points="240.88 415.87 242.44 411.97 238.82 415.88 240.88 415.87"/><polygon class="cls-131" points="243.57 415.04 247.53 415.04 250.13 419.59 243.57 415.04"/><polygon class="cls-132" points="244.86 419.2 239.57 419.2 234.81 423.27 244.86 419.2"/><polygon class="cls-133" points="241.85 424.48 244.86 419.2 234.81 423.27 241.85 424.48"/><polygon class="cls-133" points="245.59 421.84 250.46 422.13 249.09 425.46 245.59 421.84"/><polygon class="cls-134" points="248.31 420.11 250.46 422.13 245.59 421.84 248.31 420.11"/><polygon class="cls-134" points="246.79 426.91 242.77 425.98 239.84 430.02 246.79 426.91"/><polygon class="cls-135" points="243.57 430.33 246.79 426.91 239.84 430.02 243.57 430.33"/><polygon class="cls-135" points="247.57 431.39 255.42 434.06 259.85 430.33 247.57 431.39"/><polygon class="cls-136" points="253.13 429.12 259.85 430.33 247.57 431.39 253.13 429.12"/><polygon class="cls-137" points="247.39 435.62 245.11 432.86 238.82 434.39 247.39 435.62"/><polygon class="cls-138" points="241.59 436.71 247.39 435.62 238.82 434.39 241.59 436.71"/><polygon class="cls-139" points="246.5 440.8 249.55 444.38 256.98 442.22 246.5 440.8"/><polygon class="cls-140" points="250.92 439.54 256.98 442.22 246.5 440.8 250.92 439.54"/><polygon class="cls-140" points="245.51 445.23 243.31 442.49 240.63 443.86 245.51 445.23"/><polygon class="cls-140" points="244.66 448.75 249.09 453.63 255.03 449.98 244.66 448.75"/><polygon class="cls-141" points="243.81 452.08 241 448.28 233.83 449.59 243.81 452.08"/><polygon class="cls-142" points="236.86 453 243.81 452.08 233.83 449.59 236.86 453"/><polygon class="cls-142" points="242.73 456.29 246.5 459.48 252.29 458.39 242.73 456.29"/><polygon class="cls-143" points="247.92 454.77 252.29 458.39 242.73 456.29 247.92 454.77"/><polygon class="cls-144" points="241.72 460.23 238.82 457.14 232.73 458.2 241.72 460.23"/><polygon class="cls-145" points="236.42 461.65 241.72 460.23 232.73 458.2 236.42 461.65"/><polygon class="cls-146" points="240.56 464.79 245.24 462.79 248.7 467.72 240.56 464.79"/><polygon class="cls-147" points="241.27 467.72 248.7 467.72 240.56 464.79 241.27 467.72"/><polygon class="cls-147" points="239.58 468.74 234.74 465.25 228.74 468.53 239.58 468.74"/><polygon class="cls-148" points="238.79 472.12 246.5 469.33 255.35 476.57 238.79 472.12"/><polygon class="cls-149" points="242.11 476.05 255.35 476.57 238.79 472.12 242.11 476.05"/><polygon class="cls-150" points="237.81 476.57 235.92 473.9 232.43 474.89 237.81 476.57"/><polygon class="cls-149" points="233.83 477.01 237.81 476.57 232.43 474.89 233.83 477.01"/><polygon class="cls-151" points="236.91 481.09 242.38 479.34 244.53 483.56 236.91 481.09"/><polygon class="cls-152" points="239.58 483.83 244.53 483.56 236.91 481.09 239.58 483.83"/><polygon class="cls-153" points="236.18 485.34 232.43 483.83 228.96 486.02 236.18 485.34"/><polygon class="cls-154" points="233.14 486.63 236.18 485.34 228.96 486.02 233.14 486.63"/><polygon class="cls-155" points="235.52 490.41 240.16 487.62 244.27 491.46 235.52 490.41"/><polygon class="cls-156" points="237.81 493.35 244.27 491.46 235.52 490.41 237.81 493.35"/><polygon class="cls-157" points="235.41 494.67 232.43 492.93 225.68 495.58 235.41 494.67"/><polygon class="cls-158" points="231.55 497.42 235.41 494.67 225.68 495.58 231.55 497.42"/><polygon class="cls-159" points="235.81 499.79 238.79 497.42 244.85 499.31 235.81 499.79"/><polygon class="cls-160" points="239.38 501.19 244.85 499.31 235.81 499.79 239.38 501.19"/><polygon class="cls-161" points="236.56 504.71 232.73 503.07 229.66 505.93 236.56 504.71"/><polygon class="cls-162" points="233.11 507.25 236.56 504.71 229.66 505.93 233.11 507.25"/><polygon class="cls-163" points="237.58 509.55 240.72 506.85 249.55 509.55 237.58 509.55"/><polygon class="cls-164" points="244.85 511.51 249.55 509.55 237.58 509.55 244.85 511.51"/><polygon class="cls-164" points="238.76 514.23 234.94 513.17 230.55 514.96 238.76 514.23"/><polygon class="cls-165" points="239.77 517.82 240.61 514.84 247.27 518.39 239.77 517.82"/><polygon class="cls-166" points="243.56 520.12 247.27 518.39 239.77 517.82 243.56 520.12"/><polygon class="cls-166" points="241.68 523.93 238.76 521.39 234.03 525.08 241.68 523.93"/><polygon class="cls-166" points="242.57 526.59 241.4 530.26 235.41 528.53 242.57 526.59"/><polygon class="cls-167" points="238.27 526.14 235.41 528.53 242.57 526.59 238.27 526.14"/><polygon class="cls-168" points="244.26 531.37 246.16 527.75 251.31 528.83 244.26 531.37"/><polygon class="cls-169" points="248.11 533.03 251.31 528.83 244.26 531.37 248.11 533.03"/><polygon class="cls-169" points="246.13 536.36 240.88 533.98 231.68 539 246.13 536.36"/><polygon class="cls-167" points="248.06 541.28 249.55 537.15 259.92 538.41 248.06 541.28"/><polygon class="cls-170" points="253.79 543.04 259.92 538.41 248.06 541.28 253.79 543.04"/><polygon class="cls-171" points="250.39 546.96 245.31 545.39 241.68 549.3 250.39 546.96"/><polygon class="cls-172" points="248.06 550.41 250.39 546.96 241.68 549.3 248.06 550.41"/><polygon class="cls-173" points="252.82 552.63 253.4 550.1 262.79 550.41 252.82 552.63"/><polygon class="cls-174" points="261.35 553.09 262.79 550.41 252.82 552.63 261.35 553.09"/><polygon class="cls-175" points="254.91 557.38 250 556.86 248.06 561.43 254.91 557.38"/><polygon class="cls-176" points="252.35 561.85 254.91 557.38 248.06 561.43 252.35 561.85"/><polygon class="cls-176" points="257.48 563.01 259.92 559.15 273.09 559.9 257.48 563.01"/><polygon class="cls-177" points="263.83 565.38 273.09 559.9 257.48 563.01 263.83 565.38"/><polygon class="cls-178" points="260.09 568.61 257.18 566.13 252.82 571.48 260.09 568.61"/><polygon class="cls-179" points="257.48 571.48 260.09 568.61 252.82 571.48 257.48 571.48"/><polygon class="cls-180" points="262.93 574.66 263.96 570.53 276.88 570.89 262.93 574.66"/><polygon class="cls-181" points="272.38 575 276.88 570.89 262.93 574.66 272.38 575"/><polygon class="cls-182" points="264.43 578.78 261.81 577.41 254.91 582.34 264.43 578.78"/><polygon class="cls-183" points="259.67 583.87 264.43 578.78 254.91 582.34 259.67 583.87"/><polygon class="cls-183" points="265.69 583.46 269.9 581.78 278.9 583.87 265.69 583.46"/><polygon class="cls-184" points="266.76 589.25 262.93 594.08 255.48 590.72 266.76 589.25"/><polygon class="cls-185" points="263.18 587.55 266.76 589.25 255.48 590.72 263.18 587.55"/><polygon class="cls-185" points="267.76 594.08 270.16 591.67 276.48 595.61 267.76 594.08"/><polygon class="cls-186" points="271.4 597.45 276.48 595.61 267.76 594.08 271.4 597.45"/><polygon class="cls-186" points="267.76 602.78 262.2 605.33 255.48 603.57 267.76 602.78"/><polygon class="cls-187" points="264.43 599.39 267.76 602.78 255.48 603.57 264.43 599.39"/><polygon class="cls-188" points="267.68 607.83 270.74 610.22 276.16 608.3 267.68 607.83"/><polygon class="cls-189" points="273.68 606.24 276.16 608.3 267.68 607.83 273.68 606.24"/><polygon class="cls-189" points="267.27 613.68 265.59 610.51 259.66 613.28 267.27 613.68"/><polygon class="cls-190" points="263.46 616.28 267.27 613.68 259.66 613.28 263.46 616.28"/><polygon class="cls-190" points="266.62 618.82 270.03 621.11 273.88 619.28 266.62 618.82"/><polygon class="cls-191" points="271.13 616.28 273.88 619.28 266.62 618.82 271.13 616.28"/><polygon class="cls-191" points="265.39 624.97 264.29 622.11 258.16 623.07 265.39 624.97"/><polygon class="cls-192" points="260.9 626.2 265.39 624.97 258.16 623.07 260.9 626.2"/><polygon class="cls-193" points="263.88 630.1 265.72 633.63 271.92 631.87 263.88 630.1"/><polygon class="cls-194" points="269.05 629.13 271.92 631.87 263.88 630.1 269.05 629.13"/><polygon class="cls-194" points="262.21 634.13 261.22 630.96 254.11 630.96 262.21 634.13"/><polygon class="cls-195" points="260.63 636.91 261.03 640.61 265.39 639.76 260.63 636.91"/><polygon class="cls-196" points="264.48 636.57 265.39 639.76 260.63 636.91 264.48 636.57"/><polygon class="cls-196" points="257.97 640.04 258.16 637.22 253.2 636.91 257.97 640.04"/><polygon class="cls-196" points="255.48 641.65 256.33 644.78 259.66 645.37 255.48 641.65"/><polygon class="cls-197" points="259.27 642.5 259.66 645.37 255.48 641.65 259.27 642.5"/></g><path id="_1-2" data-name="1" class="cls-198" d="M467.29,931.09c-15.2-43.83-23.42-68.09-16.18-100.57s23.67-83.35,20.54-114.65-18.58-73.57-19.07-87.65,9.61-28.82,11.24-26" transform="translate(-215.71 -188.61)"/><g id="_1-3" data-name="1"><polygon class="cls-25" points="248.7 414.79 253.71 413.48 254.28 408.91 248.7 414.79"/><polygon class="cls-25" points="246.79 413.49 248.31 410.3 243.81 406.64 246.79 413.49"/><polygon class="cls-199" points="243.81 411.7 243.81 406.64 246.79 413.49 243.81 411.7"/><polygon class="cls-200" points="243.42 417.31 248.31 416.4 252.91 423.27 243.42 417.31"/><polygon class="cls-201" points="244.86 422.52 252.91 423.27 243.42 417.31 244.86 422.52"/><polygon class="cls-202" points="241.78 420.11 241.72 415.88 236.42 415.04 241.78 420.11"/><polygon class="cls-203" points="237.22 419.2 241.78 420.11 236.42 415.04 237.22 419.2"/><polygon class="cls-204" points="239.49 425.2 243.81 423.83 247.01 428 239.49 425.2"/><polygon class="cls-205" points="240.19 427.92 247.01 428 239.49 425.2 240.19 427.92"/><polygon class="cls-205" points="238.35 428.62 237.06 425.91 230.7 425.98 238.35 428.62"/><polygon class="cls-206" points="237.65 431.39 240.63 430.97 244.1 433.54 237.65 431.39"/><polygon class="cls-207" points="239.49 433.54 244.1 433.54 237.65 431.39 239.49 433.54"/><polygon class="cls-208" points="237.09 434.7 235.59 431.39 226.35 431.69 237.09 434.7"/><polygon class="cls-209" points="232.22 435.11 237.09 434.7 226.35 431.69 232.22 435.11"/><polygon class="cls-210" points="236.85 438.04 239.1 436.22 242.73 438.04 236.85 438.04"/><polygon class="cls-211" points="240.56 439.54 242.73 438.04 236.85 438.04 240.56 439.54"/><polygon class="cls-212" points="237 441.51 235.4 439.31 231.26 440.41 237 441.51"/><polygon class="cls-213" points="234.53 442.89 237 441.51 231.26 440.41 234.53 442.89"/><polygon class="cls-214" points="237.44 444.7 240.88 441.51 246.5 444.38 237.44 444.7"/><polygon class="cls-215" points="241.22 446.41 246.5 444.38 237.44 444.7 241.22 446.41"/><polygon class="cls-216" points="238.12 448.28 235.4 446.06 229.67 447.17 238.12 448.28"/><polygon class="cls-217" points="234.53 451.29 238.12 448.28 229.67 447.17 234.53 451.29"/><polygon class="cls-218" points="239.02 452.38 241.31 449.98 246.5 452.08 239.02 452.38"/><polygon class="cls-219" points="241.51 454.23 246.5 452.08 239.02 452.38 241.51 454.23"/><polygon class="cls-220" points="240.04 456.58 237.44 453.98 231.41 454.77 240.04 456.58"/><polygon class="cls-221" points="236.42 458.2 240.04 456.58 231.41 454.77 236.42 458.2"/><polygon class="cls-222" points="241.1 460.76 243.07 457.61 249.09 457.14 241.1 460.76"/><polygon class="cls-223" points="245.1 460.76 249.09 457.14 241.1 460.76 245.1 460.76"/><polygon class="cls-224" points="241.97 464.07 238.82 462.27 233.14 463.72 241.97 464.07"/><polygon class="cls-225" points="237.81 466.25 241.97 464.07 233.14 463.72 237.81 466.25"/><polygon class="cls-226" points="243.07 468.22 244.66 464.79 253.3 464.79 243.07 468.22"/><polygon class="cls-227" points="249.09 468.91 253.3 464.79 243.07 468.22 249.09 468.91"/><polygon class="cls-227" points="244.08 471.99 241.1 469.94 234.86 470.57 244.08 471.99"/><polygon class="cls-228" points="245.14 475.95 245.81 472.38 251.34 474.17 245.14 475.95"/><polygon class="cls-229" points="249.09 477.22 251.34 474.17 245.14 475.95 249.09 477.22"/><polygon class="cls-229" points="246.1 479.6 243.76 477.95 239.02 479.6 246.1 479.6"/><polygon class="cls-230" points="243.32 482.06 246.1 479.6 239.02 479.6 243.32 482.06"/><polygon class="cls-231" points="247.42 484.65 248.19 481.45 257.41 481.45 247.42 484.65"/><polygon class="cls-232" points="251.78 486.02 257.41 481.45 247.42 484.65 251.78 486.02"/><polygon class="cls-232" points="248.55 489.06 246.55 487.25 240.56 489.06 248.55 489.06"/><polygon class="cls-233" points="245.14 490.94 248.55 489.06 240.56 489.06 245.14 490.94"/><polygon class="cls-234" points="249.7 493.71 251.15 490 256.33 492.24 249.7 493.71"/><polygon class="cls-235" points="253.44 496.05 256.33 492.24 249.7 493.71 253.44 496.05"/><polygon class="cls-235" points="250.78 498.27 247.79 494.88 238.76 498.27 250.78 498.27"/><polygon class="cls-236" points="251.58 501.76 253.02 498.27 264.25 498.27 251.58 501.76"/><polygon class="cls-237" points="256.33 502.9 264.25 498.27 251.58 501.76 256.33 502.9"/><polygon class="cls-238" points="252.55 506.26 250.27 503.44 245.28 506.26 252.55 506.26"/><polygon class="cls-239" points="249.88 508.39 252.55 506.26 245.28 506.26 249.88 508.39"/><polygon class="cls-240" points="253.45 510.76 255.5 506.57 265.53 507.94 253.45 510.76"/><polygon class="cls-241" points="258.29 512.07 265.53 507.94 253.45 510.76 258.29 512.07"/><polygon class="cls-241" points="254.13 514.45 252.32 512.07 242.93 513.26 254.13 514.45"/><polygon class="cls-242" points="248.91 516.7 254.13 514.45 242.93 513.26 248.91 516.7"/><polygon class="cls-243" points="254.79 518.39 257.36 514.98 263.47 516.75 254.79 518.39"/><polygon class="cls-244" points="258.43 520.9 263.47 516.75 254.79 518.39 258.43 520.9"/><polygon class="cls-245" points="255.52 523.55 253.45 520.61 248.91 522.81 255.52 523.55"/><polygon class="cls-246" points="253.02 524.72 255.52 523.55 248.91 522.81 253.02 524.72"/><polygon class="cls-246" points="255.94 527.26 258.63 524.57 262.35 526.14 255.94 527.26"/><polygon class="cls-247" points="256.18 530.26 253.99 527.46 247.79 528.83 256.18 530.26"/><polygon class="cls-248" points="252.22 532.1 256.18 530.26 247.79 528.83 252.22 532.1"/><polygon class="cls-249" points="256.32 533.98 259.13 531.37 261.66 533.03 256.32 533.98"/><polygon class="cls-250" points="259.13 535.18 261.66 533.03 256.32 533.98 259.13 535.18"/><polygon class="cls-251" points="256.33 537.68 252.82 535.18 247.27 536.86 256.33 537.68"/><polygon class="cls-252" points="252.22 539.21 256.33 537.68 247.27 536.86 252.22 539.21"/><polygon class="cls-253" points="256.18 542.26 257.8 539.54 264.84 541.59 256.18 542.26"/><polygon class="cls-254" points="259.41 543.99 264.84 541.59 256.18 542.26 259.41 543.99"/><polygon class="cls-255" points="255.88 546 254.38 543.6 248.91 543.6 255.88 546"/><polygon class="cls-256" points="252.82 546.53 255.88 546 248.91 543.6 252.82 546.53"/><polygon class="cls-257" points="255.62 548.94 258.99 547.24 266.65 550.89 255.62 548.94"/><polygon class="cls-258" points="260.09 551.75 266.65 550.89 255.62 548.94 260.09 551.75"/><polygon class="cls-259" points="255.16 553.09 252.4 550.1 245.72 551.75 255.16 553.09"/><polygon class="cls-260" points="250.44 554.85 255.16 553.09 245.72 551.75 250.44 554.85"/><polygon class="cls-260" points="254.56 557.59 258.53 555.09 259.92 559.15 254.56 557.59"/><polygon class="cls-261" points="253.99 561.08 246.35 556.36 237.74 560.68 253.99 561.08"/><polygon class="cls-262" points="247.13 564.48 253.99 561.08 237.74 560.68 247.13 564.48"/><polygon class="cls-263" points="253.48 564.48 257.02 563.31 262.79 567.27 253.48 564.48"/><polygon class="cls-264" points="255.16 567.27 262.79 567.27 253.48 564.48 255.16 567.27"/><polygon class="cls-264" points="252.75 568.61 250.12 565.74 243.52 566.73 252.75 568.61"/><polygon class="cls-265" points="252.21 571.48 255.16 571.09 258.13 575.46 252.21 571.48"/><path class="cls-266" d="M469.7,764.07c.14,0,4.15,0,4.15,0l-5.93-4Z" transform="translate(-215.71 -188.61)"/><polygon class="cls-267" points="251.49 575.1 250.39 572.21 244.1 572.38 251.49 575.1"/><polygon class="cls-268" points="247.8 575.78 251.49 575.1 244.1 572.38 247.8 575.78"/><polygon class="cls-268" points="250.83 578.27 253.48 577.15 256.45 579.65 250.83 578.27"/><polygon class="cls-269" points="252.82 580.67 256.45 579.65 250.83 578.27 252.82 580.67"/><polygon class="cls-270" points="250.08 581.78 248.36 578.4 238.43 578.78 250.08 581.78"/><polygon class="cls-271" points="243.81 582.83 250.08 581.78 238.43 578.78 243.81 582.83"/><polygon class="cls-272" points="249.26 585.46 252.56 583.87 260.09 586.48 249.26 585.46"/><path class="cls-273" d="M468.53,776.42c.33,0,7.27-1.33,7.27-1.33l-10.83-1Z" transform="translate(-215.71 -188.61)"/><polygon class="cls-273" points="248.54 588.63 246.94 585.76 237.74 586.48 248.54 588.63"/><polygon class="cls-274" points="247.82 591.67 250.31 589.92 252.21 592.8 247.82 591.67"/><polygon class="cls-275" points="249.58 593.64 252.21 592.8 247.82 591.67 249.58 593.64"/><polygon class="cls-276" points="247.18 594.37 245.13 590.26 233.63 590.72 247.18 594.37"/><polygon class="cls-277" points="240.68 595.61 247.18 594.37 233.63 590.72 240.68 595.61"/><polygon class="cls-277" points="246.31 597.97 249.26 596.18 254.67 599.91 246.31 597.97"/><polygon class="cls-278" points="245.44 601.48 248.31 600.3 254.38 605.57 245.44 601.48"/><path class="cls-279" d="M463.92,793.93c.2-.09,6.17.25,6.17.25l-8.94-4.09Z" transform="translate(-215.71 -188.61)"/><polygon class="cls-280" points="244.53 605.12 243.81 600.83 238.13 605.12 244.53 605.12"/><polygon class="cls-281" points="242.1 608.3 244.53 605.12 238.13 605.12 242.1 608.3"/><polygon class="cls-281" points="243.73 608.3 248.36 607.27 251.58 612.76 243.73 608.3"/><polygon class="cls-282" points="242.84 611.8 240.83 609.43 233.29 611.8 242.84 611.8"/><polygon class="cls-283" points="239.16 614.42 242.84 611.8 233.29 611.8 239.16 614.42"/><polygon class="cls-272" points="242.17 614.42 246.01 613.68 253.3 619.71 242.17 614.42"/><polygon class="cls-284" points="245.96 618.58 253.3 619.71 242.17 614.42 245.96 618.58"/><polygon class="cls-285" points="240.98 619.07 238.87 616.7 230.9 617.88 240.98 619.07"/><polygon class="cls-286" points="236.72 621.11 240.98 619.07 230.9 617.88 236.72 621.11"/><polygon class="cls-286" points="240.03 622.8 242.84 621.47 247.09 627.83 240.03 622.8"/><polygon class="cls-287" points="239.31 625.66 238.38 623.28 233.68 626.2 239.31 625.66"/><polygon class="cls-288" points="235.94 627.43 239.31 625.66 233.68 626.2 235.94 627.43"/><polygon class="cls-289" points="238.56 628.64 241.95 627.43 244.05 631.87 238.56 628.64"/><polygon class="cls-290" points="240.58 631.87 244.05 631.87 238.56 628.64 240.58 631.87"/><polygon class="cls-290" points="237.66 632.27 236.5 629.65 227.62 629.44 237.66 632.27"/><polygon class="cls-291" points="231.68 633.35 237.66 632.27 227.62 629.44 231.68 633.35"/><polygon class="cls-119" points="236.97 635.14 240.29 633.63 245.28 637.75 236.97 635.14"/><polygon class="cls-292" points="240.78 638.48 245.28 637.75 236.97 635.14 240.78 638.48"/><polygon class="cls-293" points="236.3 637.97 234.27 634.87 227.91 635.69 236.3 637.97"/><polygon class="cls-294" points="232.36 639.47 236.3 637.97 227.91 635.69 232.36 639.47"/><polygon class="cls-295" points="235.45 641.65 238.56 640.25 242.24 643.51 235.45 641.65"/><polygon class="cls-296" points="238.04 644.31 242.24 643.51 235.45 641.65 238.04 644.31"/><polygon class="cls-297" points="234.74 645.06 233.24 642.75 225.52 643.9 234.74 645.06"/><polygon class="cls-298" points="230.99 646.41 234.74 645.06 225.52 643.9 230.99 646.41"/><polygon class="cls-299" points="234.08 648.71 236.97 647.25 246.4 650.03 234.08 648.71"/><polygon class="cls-300" points="237.66 651.55 246.4 650.03 234.08 648.71 237.66 651.55"/><polygon class="cls-301" points="233.6 651.99 231.53 648.96 225.22 650.47 233.6 651.99"/><polygon class="cls-302" points="228.79 654.09 233.6 651.99 225.22 650.47 228.79 654.09"/><polygon class="cls-25" points="233.11 656.5 236.81 654.34 245.08 657.52 233.11 656.5"/><polygon class="cls-303" points="239.85 659.47 245.08 657.52 233.11 656.5 239.85 659.47"/><polygon class="cls-304" points="232.87 659.97 230.7 657.52 220.82 658.74 232.87 659.97"/><polygon class="cls-305" points="227.47 661.97 232.87 659.97 220.82 658.74 227.47 661.97"/><polygon class="cls-305" points="232.74 664.02 234.74 661.43 237.45 664.02 232.74 664.02"/><polygon class="cls-306" points="232.76 667.84 231.83 664.56 226.15 666.96 232.76 667.84"/><polygon class="cls-307" points="228.55 670.09 232.76 667.84 226.15 666.96 228.55 670.09"/><polygon class="cls-308" points="232.93 671.7 235.69 668.86 246.4 671.07 232.93 671.7"/><polygon class="cls-309" points="238.53 675.37 246.4 671.07 232.93 671.7 238.53 675.37"/><polygon class="cls-310" points="233.18 674.98 230.46 672.83 220.33 674.98 233.18 674.98"/><polygon class="cls-311" points="229.04 677.18 233.18 674.98 220.33 674.98 229.04 677.18"/><polygon class="cls-312" points="233.68 679.5 235.54 677.18 242.63 678.34 233.68 679.5"/><polygon class="cls-313" points="238.16 681.24 242.63 678.34 233.68 679.5 238.16 681.24"/><polygon class="cls-314" points="234.2 683.04 231.73 680.16 221.21 681.6 234.2 683.04"/><polygon class="cls-315" points="225.66 685.64 234.2 683.04 221.21 681.6 225.66 685.64"/><polygon class="cls-316" points="234.83 686.68 236.18 684.32 242.39 685.89 234.83 686.68"/><polygon class="cls-317" points="238.38 688.38 242.39 685.89 234.83 686.68 238.38 688.38"/><polygon class="cls-318" points="235.51 690.11 232.93 688.14 226.49 689.85 235.51 690.11"/><polygon class="cls-319" points="231.97 692.44 235.51 690.11 226.49 689.85 231.97 692.44"/><polygon class="cls-320" points="236.3 693.69 237.74 691.56 244 691.56 236.3 693.69"/><polygon class="cls-321" points="240.73 694.79 244 691.56 236.3 693.69 240.73 694.79"/><polygon class="cls-322" points="237.02 696.68 233 694.79 223.8 699.43 237.02 696.68"/><polygon class="cls-323" points="230.41 701.29 237.02 696.68 223.8 699.43 230.41 701.29"/><polygon class="cls-324" points="237.79 699.67 238.61 697.11 244 698.99 237.79 699.67"/><polygon class="cls-232" points="241.12 701.29 244 698.99 237.79 699.67 241.12 701.29"/><polygon class="cls-325" points="238.85 703.56 236.3 701.64 228.99 704.82 238.85 703.56"/><polygon class="cls-326" points="236.3 706.43 238.85 703.56 228.99 704.82 236.3 706.43"/><polygon class="cls-327" points="239.73 706.63 241.51 703.56 252.61 703.98 239.73 706.63"/><polygon class="cls-328" points="247.38 707.21 252.61 703.98 239.73 706.63 247.38 707.21"/><polygon class="cls-329" points="240.69 709.82 238.61 707.65 235.2 710.68 240.69 709.82"/><polygon class="cls-330" points="238.85 712.1 240.69 709.82 235.2 710.68 238.85 712.1"/><polygon class="cls-330" points="241.61 712.82 244 710.2 252.61 712.1 241.61 712.82"/><polygon class="cls-331" points="242.7 716.26 239.94 714.11 231.92 718.07 242.7 716.26"/><polygon class="cls-332" points="239.41 719.78 242.7 716.26 231.92 718.07 239.41 719.78"/><polygon class="cls-333" points="243.84 719.78 245.67 717.73 254.03 718.07 243.84 719.78"/><polygon class="cls-334" points="248.26 720.91 254.03 718.07 243.84 719.78 248.26 720.91"/><polygon class="cls-335" points="244.87 722.87 241.61 721.54 236.28 724.82 244.87 722.87"/><polygon class="cls-336" points="242.7 725.55 244.87 722.87 236.28 724.82 242.7 725.55"/><polygon class="cls-337" points="246.17 726.39 247.58 723.89 254.77 724.21 246.17 726.39"/><polygon class="cls-338" points="250.12 727.61 254.77 724.21 246.17 726.39 250.12 727.61"/><polygon class="cls-338" points="247.11 729.53 244.53 727.61 239.41 729.53 247.11 729.53"/><polygon class="cls-339" points="248.01 732.14 249.58 730.25 254.77 730.54 248.01 732.14"/><polygon class="cls-340" points="251.59 733.28 254.77 730.54 248.01 732.14 251.59 733.28"/><polygon class="cls-341" points="248.94 734.85 244.87 733.09 242.7 736.17 248.94 734.85"/><polygon class="cls-342" points="246.79 737.29 248.94 734.85 242.7 736.17 246.79 737.29"/><polygon class="cls-342" points="249.93 737.73 251.39 735.68 258.53 737.29 249.93 737.73"/><polygon class="cls-343" points="250.8 740.24 248.7 738.91 247.11 741.65 250.8 740.24"/><polygon class="cls-344" points="249.68 742.72 250.8 740.24 247.11 741.65 249.68 742.72"/><polygon class="cls-345" points="251.39 741.92 252.32 740.24 255.89 742.48 251.39 741.92"/><polygon class="cls-346" points="253.64 743.55 255.89 742.48 251.39 741.92 253.64 743.55"/></g></g><g id="klavesnice"><rect class="cls-12" x="529.64" y="465.43" width="293.87" height="4.7"/><polygon class="cls-21" points="805.5 457.56 803.48 457.56 803.48 455.26 786.92 455.26 786.92 457.56 783.92 457.56 783.92 455.26 767.35 455.26 767.35 457.56 764.09 457.56 764.09 455.26 747.53 455.26 747.53 457.56 743.48 457.56 743.48 455.26 726.92 455.26 726.92 457.56 724.05 457.56 724.05 455.26 707.48 455.26 707.48 457.56 705 457.56 705 455.26 688.44 455.26 688.44 457.56 685.7 457.56 685.7 455.26 669.14 455.26 669.14 457.56 665.35 457.56 665.35 455.26 648.79 455.26 648.79 457.56 645.53 457.56 645.53 455.26 628.96 455.26 628.96 457.56 625.44 457.56 625.44 455.26 608.88 455.26 608.88 457.56 605.88 457.56 605.88 455.26 589.31 455.26 589.31 457.56 585.79 457.56 585.79 455.26 569.22 455.26 569.22 457.56 566.22 457.56 566.22 455.26 549.66 455.26 549.66 457.56 547.64 457.56 529.64 465.44 634.11 465.44 719.03 465.44 823.5 465.44 805.5 457.56"/></g><g id="mys"><path class="cls-21" d="M1160.72,651.88c0,4.16-10.18,7.88-15.85,7.88s-68.09-4.5-70.83-5.09-7.24,0-7.24-2.93,2.55-12.33,29.16-13.5,48.32,2.54,54,4.5S1160.72,647.72,1160.72,651.88Z" transform="translate(-215.71 -188.61)"/><path class="cls-12" d="M1066.8,651.74c-.44,3.1,7.24,6.06,13.31,6.65s47,1.37,47,1.37h17.8s-22.3-.39-35.41-8-22.11-8-29.35-7.63S1067.39,647.63,1066.8,651.74Z" transform="translate(-215.71 -188.61)"/></g></svg>