<svg id="Vrstva_2" data-name="Vrstva 2" xmlns="http://www.w3.org/2000/svg" xmlns:xlink="http://www.w3.org/1999/xlink" viewBox="0 0 1501.37 895.22"><defs><style>.cls-1{fill:url(#Nepojmenovaný_přechod_25);}.cls-2{fill:url(#Nepojmenovaný_přechod_29);}.cls-3{fill:#706f6f;}.cls-4{fill:#1d1d1b;}.cls-5{fill:url(#Nepojmenovaný_přechod_228);}.cls-6{fill:url(#Nepojmenovaný_přechod_207);}.cls-7{fill:url(#Nepojmenovaný_přechod_192);}.cls-8{fill:url(#Nepojmenovaný_přechod_135);}.cls-9{fill:url(#Nepojmenovaný_přechod_120);}.cls-10{fill:url(#Nepojmenovaný_přechod_60);}.cls-11{fill:#a3acb2;}.cls-12{fill:#b9c3cc;}.cls-13{fill:#939ca0;}.cls-14{fill:#d0dd72;}.cls-15{fill:#adaf54;}.cls-16{fill:#cccc64;}.cls-17{fill:#ccc566;}.cls-18{fill:#bac165;}.cls-19{fill:#b5b368;}.cls-20{fill:#dedc00;}.cls-21,.cls-22,.cls-23{fill:#e7f3ff;}.cls-22,.cls-24{stroke:#809e10;}.cls-198,.cls-22,.cls-23,.cls-24{stroke-miterlimit:10;stroke-width:2px;}.cls-198,.cls-23{stroke:#6c820f;}.cls-198,.cls-24{fill:none;stroke-linecap:round;}.cls-25{fill:#95c11f;}.cls-26{fill:#8aaf17;}.cls-27{fill:#a2bf26;}.cls-28{fill:#87991f;}.cls-29{fill:#adbc22;}.cls-30{fill:#989e2d;}.cls-31{fill:#80a313;}.cls-32{fill:#c8e589;}.cls-33{fill:#77a004;}.cls-34{fill:#bac92d;}.cls-35{fill:#878e02;}.cls-36{fill:#8eba13;}.cls-37{fill:#7a990a;}.cls-38{fill:#b1d80e;}.cls-39{fill:#8da307;}.cls-40{fill:#849907;}.cls-41{fill:#99b204;}.cls-42{fill:#597c01;}.cls-43{fill:#a7dd00;}.cls-44{fill:#84a304;}.cls-45{fill:#85c102;}.cls-46{fill:#97bf04;}.cls-47{fill:#7d9905;}.cls-48{fill:#b3d102;}.cls-49{fill:#9aaa02;}.cls-50{fill:#afc433;}.cls-51{fill:#a8d113;}.cls-52{fill:#7c9904;}.cls-53{fill:#b9d12c;}.cls-54{fill:#79a308;}.cls-55{fill:#a0c920;}.cls-56{fill:#819e0b;}.cls-57{fill:#8fb224;}.cls-58{fill:#a3c905;}.cls-59{fill:#8aa519;}.cls-60{fill:#a4cc12;}.cls-61{fill:#8ca525;}.cls-62{fill:#84961d;}.cls-63{fill:#92b70d;}.cls-64{fill:#9dbf10;}.cls-65{fill:#8ba00b;}.cls-66{fill:#5f8e16;}.cls-67{fill:#86c618;}.cls-68{fill:#71a017;}.cls-69{fill:#85bc0d;}.cls-70{fill:#7fa516;}.cls-71{fill:#aad120;}.cls-72{fill:#87a50c;}.cls-73{fill:#97c114;}.cls-74{fill:#90af0e;}.cls-75{fill:#9cad36;}.cls-76{fill:#9ad812;}.cls-77{fill:#7da01d;}.cls-78{fill:#a2c61e;}.cls-79{fill:#86a015;}.cls-80{fill:#b0c439;}.cls-81{fill:#80ad2a;}.cls-82{fill:#9ece36;}.cls-83{fill:#82aa15;}.cls-84{fill:#8ba51e;}.cls-85{fill:#bcd621;}.cls-86{fill:#60870b;}.cls-87{fill:#94c60c;}.cls-88{fill:#7d9b10;}.cls-89{fill:#9fbf16;}.cls-90{fill:#73ad0e;}.cls-91{fill:#93ba49;}.cls-92{fill:#729b18;}.cls-93{fill:#8fbc13;}.cls-94{fill:#aed813;}.cls-95{fill:#9dbc1d;}.cls-96{fill:#9caf28;}.cls-97{fill:#aaba13;}.cls-98{fill:#64890b;}.cls-99{fill:#98c609;}.cls-100{fill:#89a31d;}.cls-101{fill:#9ccc17;}.cls-102{fill:#86a514;}.cls-103{fill:#aed313;}.cls-104{fill:#a0b718;}.cls-105{fill:#84d115;}.cls-106{fill:#85b236;}.cls-107{fill:#a0cc17;}.cls-108{fill:#afd641;}.cls-109{fill:#94b51f;}.cls-110{fill:#a7c917;}.cls-111{fill:#83ad0e;}.cls-112{fill:#7ca311;}.cls-113{fill:#a2c914;}.cls-114{fill:#b9d34f;}.cls-115{fill:#9fb51f;}.cls-116{fill:#99c914;}.cls-117{fill:#91af23;}.cls-118{fill:#829b19;}.cls-119{fill:#aec620;}.cls-120{fill:#6fa313;}.cls-121{fill:#8ac40a;}.cls-122{fill:#6aa015;}.cls-123{fill:#83c116;}.cls-124{fill:#98d318;}.cls-125{fill:#89af1e;}.cls-126{fill:#95ce17;}.cls-127{fill:#c3d880;}.cls-128{fill:#a8c140;}.cls-129{fill:#8da018;}.cls-130{fill:#a2ce17;}.cls-131{fill:#70a513;}.cls-132{fill:#97cc25;}.cls-133{fill:#83ad10;}.cls-134{fill:#a2c912;}.cls-135{fill:#85a012;}.cls-136{fill:#94bf0d;}.cls-137{fill:#b9d34c;}.cls-138{fill:#9aaf20;}.cls-139{fill:#6ba511;}.cls-140{fill:#88c61c;}.cls-141{fill:#97d316;}.cls-142{fill:#85b20b;}.cls-143{fill:#a6cc1f;}.cls-144{fill:#8dd61a;}.cls-145{fill:#7eb51d;}.cls-146{fill:#8fc41a;}.cls-147{fill:#79a00e;}.cls-148{fill:#abd122;}.cls-149{fill:#8aa517;}.cls-150{fill:#8dd316;}.cls-151{fill:#a4d118;}.cls-152{fill:#6da30d;}.cls-153{fill:#a0d118;}.cls-154{fill:#90b214;}.cls-155{fill:#bfd859;}.cls-156{fill:#8ec13e;}.cls-157{fill:#a4d64c;}.cls-158{fill:#8ab232;}.cls-159{fill:#9bc91f;}.cls-160{fill:#7ea319;}.cls-161{fill:#87c624;}.cls-162{fill:#86b21b;}.cls-163{fill:#a2cc21;}.cls-164{fill:#90aa22;}.cls-165{fill:#b6ce28;}.cls-166{fill:#8bb21f;}.cls-167{fill:#97ce2e;}.cls-168{fill:#bae264;}.cls-169{fill:#82af35;}.cls-170{fill:#88b22d;}.cls-171{fill:#83d821;}.cls-172{fill:#6bb20f;}.cls-173{fill:#c3e094;}.cls-174{fill:#82db03;}.cls-175{fill:#b8dd6f;}.cls-176{fill:#96ba3e;}.cls-177{fill:#819e2a;}.cls-178{fill:#91ce25;}.cls-179{fill:#7fad1a;}.cls-180{fill:#a1ce24;}.cls-181{fill:#87a51b;}.cls-182{fill:#94d621;}.cls-183{fill:#85b71a;}.cls-184{fill:#77a012;}.cls-185{fill:#9ac121;}.cls-186{fill:#89a02a;}.cls-187{fill:#b2d372;}.cls-188{fill:#91aa52;}.cls-189{fill:#a3c43d;}.cls-190{fill:#67a50e;}.cls-191{fill:#b4d67b;}.cls-192{fill:#88b238;}.cls-193{fill:#76a314;}.cls-194{fill:#9bc626;}.cls-195{fill:#8ead1f;}.cls-196{fill:#a4c12b;}.cls-197{fill:#c4d179;}.cls-199{fill:#81a020;}.cls-200{fill:#bbcc75;}.cls-201{fill:#9daf35;}.cls-202{fill:#98d12a;}.cls-203{fill:#83af23;}.cls-204{fill:#9fce20;}.cls-205{fill:#63aa11;}.cls-206{fill:#86d126;}.cls-207{fill:#71ad1a;}.cls-208{fill:#b3d180;}.cls-209{fill:#84af33;}.cls-210{fill:#99ce24;}.cls-211{fill:#8da54c;}.cls-212{fill:#aed366;}.cls-213{fill:#7aa01c;}.cls-214{fill:#add62d;}.cls-215{fill:#72ad15;}.cls-216{fill:#92ce20;}.cls-217{fill:#85b718;}.cls-218{fill:#a1d31a;}.cls-219{fill:#72af12;}.cls-220{fill:#96d627;}.cls-221{fill:#77a81a;}.cls-222{fill:#a3d320;}.cls-223{fill:#70af1e;}.cls-224{fill:#8fd81d;}.cls-225{fill:#7bb515;}.cls-226{fill:#96ce1d;}.cls-227{fill:#6ca316;}.cls-228{fill:#b6db75;}.cls-229{fill:#94bf37;}.cls-230{fill:#7a9e18;}.cls-231{fill:#98d33c;}.cls-232{fill:#7cb21d;}.cls-233{fill:#719919;}.cls-234{fill:#9dc923;}.cls-235{fill:#8baa1b;}.cls-236{fill:#abcc21;}.cls-237{fill:#879b13;}.cls-238{fill:#a0d62b;}.cls-239{fill:#88af1c;}.cls-240{fill:#a9ce24;}.cls-241{fill:#95b218;}.cls-242{fill:#7d8e16;}.cls-243{fill:#bfc95f;}.cls-244{fill:#959b1e;}.cls-245{fill:#89c612;}.cls-246{fill:#7ea51c;}.cls-247{fill:#a2cc1f;}.cls-248{fill:#71aa17;}.cls-249{fill:#b7e068;}.cls-250{fill:#92bf30;}.cls-251{fill:#a3d35f;}.cls-252{fill:#76af1c;}.cls-253{fill:#9ad350;}.cls-254{fill:#7caf2c;}.cls-255{fill:#a2ce55;}.cls-256{fill:#86ad31;}.cls-257{fill:#92cc40;}.cls-258{fill:#79b21f;}.cls-259{fill:#b3dd64;}.cls-260{fill:#8fbc2e;}.cls-261{fill:#a2ce29;}.cls-262{fill:#84a316;}.cls-263{fill:#7ecc19;}.cls-264{fill:#6eaf12;}.cls-265{fill:#acdd5e;}.cls-266{fill:#8bba31;}.cls-267{fill:#a6ce4d;}.cls-268{fill:#83a81e;}.cls-269{fill:#6e841e;}.cls-270{fill:#96d346;}.cls-271{fill:#77af1e;}.cls-272{fill:#94d120;}.cls-273{fill:#7ba818;}.cls-274{fill:#a1cc29;}.cls-275{fill:#95b71c;}.cls-276{fill:#a1d82a;}.cls-277{fill:#5b9b12;}.cls-278{fill:#7ec127;}.cls-279{fill:#7ca53a;}.cls-280{fill:#9ed830;}.cls-281{fill:#83b711;}.cls-282{fill:#b7d85b;}.cls-283{fill:#96b720;}.cls-284{fill:#8bb729;}.cls-285{fill:#aae069;}.cls-286{fill:#83b53a;}.cls-287{fill:#9fdd33;}.cls-288{fill:#83b71d;}.cls-289{fill:#bfdd76;}.cls-290{fill:#9ebc3f;}.cls-291{fill:#87a01f;}.cls-292{fill:#7eb219;}.cls-293{fill:#b7d66b;}.cls-294{fill:#96b533;}.cls-295{fill:#90d622;}.cls-296{fill:#7cb715;}.cls-297{fill:#97d841;}.cls-298{fill:#7bb71c;}.cls-299{fill:#a6e036;}.cls-300{fill:#80b214;}.cls-301{fill:#8da05a;}.cls-302{fill:#707f32;}.cls-303{fill:#8bad21;}.cls-304{fill:#9bd339;}.cls-305{fill:#84aa30;}.cls-306{fill:#b0db3a;}.cls-307{fill:#96b526;}.cls-308{fill:#88d12a;}.cls-309{fill:#71ad1c;}.cls-310{fill:#80d612;}.cls-311{fill:#6baa11;}.cls-312{fill:#6dc618;}.cls-313{fill:#5aa010;}.cls-314{fill:#78cc1f;}.cls-315{fill:#5da00e;}.cls-316{fill:#7bcc12;}.cls-317{fill:#6caa0b;}.cls-318{fill:#96db6a;}.cls-319{fill:#68a341;}.cls-320{fill:#66dd28;}.cls-321{fill:#55ad21;}.cls-322{fill:#79cc19;}.cls-323{fill:#64a017;}.cls-324{fill:#8cd81e;}.cls-325{fill:#89d819;}.cls-326{fill:#6eaf08;}.cls-327{fill:#8cd115;}.cls-328{fill:#7baa22;}.cls-329{fill:#b2d663;}.cls-330{fill:#99bc3b;}.cls-331{fill:#abd625;}.cls-332{fill:#97b518;}.cls-333{fill:#a4dd17;}.cls-334{fill:#96bf16;}.cls-335{fill:#c3db5d;}.cls-336{fill:#a1b723;}.cls-337{fill:#92c918;}.cls-338{fill:#7ea514;}.cls-339{fill:#b0d821;}.cls-340{fill:#99b22f;}.cls-341{fill:#bdd81d;}.cls-342{fill:#9baa0e;}.cls-343{fill:#a0d119;}.cls-344{fill:#87a80e;}.cls-345{fill:#b0d80b;}.cls-346{fill:#6eb20b;}</style><linearGradient id="Nepojmenovaný_přechod_25" y1="499.3" x2="1501.37" y2="499.3" gradientUnits="userSpaceOnUse"><stop offset="0" stop-color="#fff" stop-opacity="0"/><stop offset="0.02" stop-color="#efe5db" stop-opacity="0.2"/><stop offset="0.05" stop-color="#dfcab5" stop-opacity="0.41"/><stop offset="0.08" stop-color="#d1b393" stop-opacity="0.59"/><stop offset="0.11" stop-color="#c5a079" stop-opacity="0.74"/><stop offset="0.14" stop-color="#bc9164" stop-opacity="0.86"/><stop offset="0.18" stop-color="#b68755" stop-opacity="0.94"/><stop offset="0.22" stop-color="#b2814d" stop-opacity="0.99"/><stop offset="0.3" stop-color="#b17f4a"/><stop offset="0.7" stop-color="#b17f4a"/><stop offset="0.78" stop-color="#b2814d" stop-opacity="0.99"/><stop offset="0.82" stop-color="#b68755" stop-opacity="0.94"/><stop offset="0.86" stop-color="#bc9164" stop-opacity="0.86"/><stop offset="0.89" stop-color="#c5a079" stop-opacity="0.74"/><stop offset="0.92" stop-color="#d1b393" stop-opacity="0.59"/><stop offset="0.95" stop-color="#dfcab5" stop-opacity="0.41"/><stop offset="0.98" stop-color="#efe5db" stop-opacity="0.2"/><stop offset="1" stop-color="#fff" stop-opacity="0"/></linearGradient><linearGradient id="Nepojmenovaný_přechod_29" y1="462.27" x2="1501.37" y2="462.27" gradientUnits="userSpaceOnUse"><stop offset="0" stop-color="#fff" stop-opacity="0"/><stop offset="0.01" stop-color="#fbf7f3" stop-opacity="0.08"/><stop offset="0.03" stop-color="#efe2d2" stop-opacity="0.29"/><stop offset="0.06" stop-color="#e5d0b5" stop-opacity="0.48"/><stop offset="0.08" stop-color="#ddc09d" stop-opacity="0.64"/><stop offset="0.11" stop-color="#d6b489" stop-opacity="0.77"/><stop offset="0.15" stop-color="#d1aa7a" stop-opacity="0.88"/><stop offset="0.18" stop-color="#cda36f" stop-opacity="0.95"/><stop offset="0.23" stop-color="#cb9f69" stop-opacity="0.99"/><stop offset="0.3" stop-color="#ca9e67"/><stop offset="0.7" stop-color="#ca9e67"/><stop offset="0.77" stop-color="#cb9f69" stop-opacity="0.99"/><stop offset="0.82" stop-color="#cda36f" stop-opacity="0.95"/><stop offset="0.85" stop-color="#d1aa7a" stop-opacity="0.88"/><stop offset="0.89" stop-color="#d6b489" stop-opacity="0.77"/><stop offset="0.92" stop-color="#ddc09d" stop-opacity="0.64"/><stop offset="0.94" stop-color="#e5d0b5" stop-opacity="0.48"/><stop offset="0.97" stop-color="#efe2d2" stop-opacity="0.29"/><stop offset="0.99" stop-color="#fbf7f3" stop-opacity="0.08"/><stop offset="1" stop-color="#fff" stop-opacity="0"/></linearGradient><linearGradient id="Nepojmenovaný_přechod_228" x1="969.2" y1="158.67" x2="479.42" y2="158.67" gradientUnits="userSpaceOnUse"><stop offset="0" stop-color="#0084bf"/><stop offset="1" stop-color="#1cbdd4"/></linearGradient><linearGradient id="Nepojmenovaný_přechod_207" x1="968.6" y1="158.7" x2="901.88" y2="447.68" gradientUnits="userSpaceOnUse"><stop offset="0" stop-color="#0067bf"/><stop offset="0.08" stop-color="#007bc7"/><stop offset="0.18" stop-color="#009ed4"/></linearGradient><linearGradient id="Nepojmenovaný_přechod_192" x1="958.61" y1="199.74" x2="906.5" y2="444.88" gradientUnits="userSpaceOnUse"><stop offset="0" stop-color="#b5ffff"/><stop offset="0.03" stop-color="#c9ffff"/><stop offset="0.1" stop-color="#fdffff"/><stop offset="0.1" stop-color="#fff"/></linearGradient><linearGradient id="Nepojmenovaný_přechod_135" x1="983.86" y1="202.95" x2="877.89" y2="465.23" gradientUnits="userSpaceOnUse"><stop offset="0" stop-color="#d8d700"/><stop offset="0.07" stop-color="#e8c300"/><stop offset="0.14" stop-color="#ffa700"/></linearGradient><linearGradient id="Nepojmenovaný_přechod_120" x1="907.4" y1="441.21" x2="956.87" y2="186.71" gradientUnits="userSpaceOnUse"><stop offset="0.4" stop-color="#ef7f57"/><stop offset="0.55" stop-color="#e76b54"/><stop offset="0.86" stop-color="#d1374c"/><stop offset="1" stop-color="#c61e48"/></linearGradient><linearGradient id="Nepojmenovaný_přechod_60" x1="915.21" y1="442.73" x2="947" y2="279.22" gradientUnits="userSpaceOnUse"><stop offset="0" stop-color="#ef6f57"/><stop offset="0.3" stop-color="#f15b53"/><stop offset="0.9" stop-color="#f8274a"/><stop offset="1" stop-color="#f91e48"/></linearGradient></defs><g id="stul"><rect id="stůl" class="cls-1" y="475.32" width="1501.37" height="47.95"/><polygon class="cls-2" points="1501.37 475.32 0 475.32 42.85 449.21 1467.2 449.21 1501.37 475.32"/></g><polygon id="podlozka" class="cls-3" points="1134.59 473.15 325.38 473.15 357.38 453 1104.59 453 1134.59 473.15"/><g id="monitor"><path class="cls-4" d="M475.14,0H973.48A16.72,16.72,0,0,1,990.2,16.72V317.34a0,0,0,0,1,0,0H458.42a0,0,0,0,1,0,0V16.72A16.72,16.72,0,0,1,475.14,0Z"/><g id="bg"><rect class="cls-5" x="479.42" y="21" width="489.78" height="275.34"/><path class="cls-6" d="M1127.78,202.61c-17.74.52-65.21-16.7-77.21-23s-61.91-17.22-84.17-14.08S893,176,872.65,174.43,781.87,165,781.87,165H695.13V400h489.78V210.43S1145.52,202.09,1127.78,202.61Z" transform="translate(-215.71 -103.61)"/><path class="cls-7" d="M1150.74,246.43c-21.91-4.3-37.17-1.17-51.65-3.91s-36.79-14.87-46.18-18S1036.48,223,1031,221s-13.3-9.39-24.26-11-34.48,2.35-53.44,2.35-78.43-12.13-92.52-18-165.65-20-165.65-20V400h489.78V258.57S1172.65,250.74,1150.74,246.43Z" transform="translate(-215.71 -103.61)"/><path class="cls-8" d="M1078.35,260.52c-38.35-6.26-77.87-11.35-90.78-16S881.91,222.57,853.35,223s-158.22,0-158.22,0V400h489.78V295S1116.7,266.78,1078.35,260.52Z" transform="translate(-215.71 -103.61)"/><path class="cls-9" d="M1151.26,322.35c-11.74,2.35-28.17,0-33.39-10.18s-23-13.56-29-13.3-23-5.48-30.78-12.52-28.7-17.22-41-18.78a63.13,63.13,0,0,1-37.3-18c-12-11.74-33.39-20.61-49.57-23.29s-38.6-19-44.87-27.06-49.3-32.61-90.52-43.57-99.78-8.87-99.78-8.87V400h489.78V323.18S1163,320,1151.26,322.35Z" transform="translate(-215.71 -103.61)"/><path class="cls-10" d="M1145,362.78c-18.26-5.74-77.22-5.21-95.48-6.26s-82.95-20.35-97.27-26.61-72.82-36-88.47-44.34-77.74-17.74-96-22-72.65-33.35-72.65-33.35V400h489.78V385.74S1163.26,368.52,1145,362.78Z" transform="translate(-215.71 -103.61)"/></g><polygon class="cls-11" points="795.2 455.39 656.94 455.39 664.24 369.83 785.29 369.83 795.2 455.39"/><path class="cls-12" d="M674.13,421.85v41.87a16.72,16.72,0,0,0,16.72,16.71H1189.2a16.71,16.71,0,0,0,16.71-16.71V420Z" transform="translate(-215.71 -103.61)"/><g id="paw_logo" data-name="paw logo"><path class="cls-4" d="M939.39,446.91c-1,.35-1.82,1.51-2,3.68a18.15,18.15,0,0,1-2,5.91c-.65,1.38-1.37,4.23.14,5.44a4.34,4.34,0,0,0,5.09,0c1.34-1,2.62-2.38,3.65-2.69s5.09.18,6.64-1.27,1.75-3.4.41-4.71a10.9,10.9,0,0,0-3.68-2.24,19.85,19.85,0,0,1-4.37-2.66c-1-.95-1.65-1.53-2.48-1.64S940.63,446.49,939.39,446.91Z" transform="translate(-215.71 -103.61)"/><path class="cls-4" d="M927.9,447.25c-.86.2-1.72,2.89-.69,6s4.51,4.3,5.23,2.72a7.08,7.08,0,0,0-.58-5.78C930.89,448.49,929.69,446.84,927.9,447.25Z" transform="translate(-215.71 -103.61)"/><path class="cls-4" d="M931.72,437.52c-1.27.3-2.75,2.88-1.48,6.53s3.13,4.54,4.44,4.51,2.3-1.79,2.3-3.61a8.64,8.64,0,0,0-2-5.71C933.47,437.48,933,437.21,931.72,437.52Z" transform="translate(-215.71 -103.61)"/><path class="cls-4" d="M938.39,441.47c1.45,3.23,4.23,4.47,5.47,3.78s1.89-3,1-5.43-1.92-4-3.42-4.78c-.74-.39-2.56-.72-3.32.55S937.66,439.83,938.39,441.47Z" transform="translate(-215.71 -103.61)"/><path class="cls-4" d="M948.37,439.65c-1,.24-2,2.72-.76,5.57s2.3,4.09,3.68,4,2.13-2.1,2-3.55S951,439,948.37,439.65Z" transform="translate(-215.71 -103.61)"/></g><rect class="cls-13" x="641.03" y="450.61" width="170.09" height="4.78"/></g><g id="kytka"><path class="cls-14" d="M1377.21,504.45s-.8,11.52,12.85,17.68,14.73,7,15.8-4.82S1377.21,504.45,1377.21,504.45Z" transform="translate(-215.71 -103.61)"/><path class="cls-15" d="M1400.89,500.4s10.41,5,9,19.92-1.23,16.24-12,11.34S1400.89,500.4,1400.89,500.4Z" transform="translate(-215.71 -103.61)"/><path class="cls-16" d="M1415.24,484.64s-9.66,18.41-7.5,27,8.84,17.41,8.84,17.41,9.37-11.78,8.3-24.64A30.11,30.11,0,0,0,1415.24,484.64Z" transform="translate(-215.71 -103.61)"/><path class="cls-17" d="M1437.73,494c-4.55-1.34-19.87,6.69-20.78,19.28s12.75,7.23,12.75,7.23S1441.75,506.86,1437.73,494Z" transform="translate(-215.71 -103.61)"/><path class="cls-18" d="M1394.68,502.9s-7.28,9,.35,21.85,8,14.17,15.7,5.15S1394.68,502.9,1394.68,502.9Z" transform="translate(-215.71 -103.61)"/><path class="cls-19" d="M1422,505s-14.31,15.07-14.6,24,3.74,19.15,3.74,19.15,12.24-8.77,14.72-21.43A30.13,30.13,0,0,0,1422,505Z" transform="translate(-215.71 -103.61)"/><path class="cls-20" d="M1446.26,510.78s-7.28,19.47-15.15,23.62-18.86,5-18.86,5,2.53-14.84,12.82-22.62A30.13,30.13,0,0,1,1446.26,510.78Z" transform="translate(-215.71 -103.61)"/><path class="cls-21" d="M1456.06,517.31h-87.37s-1.21,19.28,4.82,30.12,13.25,19.86,16.47,21c1.91.66,13.43.54,22.4.32,9,.22,20.48.34,22.39-.32,3.22-1.12,10.45-10.13,16.47-21S1456.06,517.31,1456.06,517.31Z" transform="translate(-215.71 -103.61)"/></g><g id="kytka-2" data-name="kytka"><path id="_5" data-name="5" class="cls-22" d="M429,489s-3.37-16.26-7.36-16.26" transform="translate(-215.71 -103.61)"/><path id="_4" data-name="4" class="cls-22" d="M437,469.62c-3.37,0-1.84,19.33-1.84,19.33" transform="translate(-215.71 -103.61)"/><path id="_2" data-name="2" class="cls-22" d="M476.24,469.62c-3.06,0-4,19.33-4,19.33" transform="translate(-215.71 -103.61)"/><path id="_1" data-name="1" class="cls-23" d="M491,480.82c2.46,0,2.46,8.13,2.46,8.13" transform="translate(-215.71 -103.61)"/><path class="cls-21" d="M520.52,489H387s-1.84,29.46,7.37,46,20.25,30.35,25.16,32c2.93,1,20.53.82,34.23.5,13.7.32,31.29.52,34.22-.5,4.91-1.7,16-15.48,25.17-32S520.52,489,520.52,489Z" transform="translate(-215.71 -103.61)"/><path id="_5-2" data-name="5" class="cls-24" d="M424.53,475.37c-7.52-12.05-10.28,8.36-9.35,25.55S438.7,602.7,437,644.23s-27.47,89.12-15.34,134.41c7.67,28.64-2.15,52.38-2.15,52.38" transform="translate(-215.71 -103.61)"/><g id="_5-3" data-name="5"><polygon class="cls-25" points="200.23 377.21 195.78 370.61 186.57 377.13 200.23 377.21"/><polygon class="cls-25" points="195.6 412.75 195.21 418.51 203.38 418.87 195.6 412.75"/><polygon class="cls-26" points="199.72 381.27 209.59 386.16 204.65 391.68 199.72 381.27"/><polygon class="cls-26" points="216.87 493.79 226.75 498.68 221.81 504.21 216.87 493.79"/><polygon class="cls-27" points="199.29 391.68 193.4 387.8 187.39 393.32 199.29 391.68"/><polygon class="cls-28" points="193.4 396.59 199.29 391.68 187.39 393.32 193.4 396.59"/><polygon class="cls-29" points="199.29 397.82 202.53 394.75 205.91 397.82 199.29 397.82"/><polygon class="cls-30" points="201.41 399.46 205.91 397.82 199.29 397.82 201.41 399.46"/><polygon class="cls-29" points="199.68 432.83 200.69 428.48 205.19 429.17 199.68 432.83"/><polygon class="cls-30" points="202.35 433.02 205.19 429.17 199.68 432.83 202.35 433.02"/><polygon class="cls-29" points="208.86 480.8 209.87 476.45 214.38 477.15 208.86 480.8"/><polygon class="cls-30" points="211.53 481 214.38 477.15 208.86 480.8 211.53 481"/><polygon class="cls-25" points="200.23 403.64 195.06 401.1 187.39 409.79 200.23 403.64"/><polygon class="cls-31" points="193.81 409.79 200.23 403.64 187.39 409.79 193.81 409.79"/><polygon class="cls-25" points="226.16 466.39 220.99 463.85 213.32 472.55 226.16 466.39"/><polygon class="cls-31" points="219.74 472.55 226.16 466.39 213.32 472.55 219.74 472.55"/><polygon class="cls-27" points="213.94 409.02 208.05 405.14 202.04 410.66 213.94 409.02"/><polygon class="cls-28" points="208.05 413.93 213.94 409.02 202.04 410.66 208.05 413.93"/><polygon class="cls-32" points="203.88 423 206.62 418.87 216.03 423 203.88 423"/><polygon class="cls-33" points="206.62 425.85 216.03 423 203.88 423 206.62 425.85"/><polygon class="cls-32" points="207.25 504.85 209.99 500.72 219.4 504.85 207.25 504.85"/><polygon class="cls-33" points="209.99 507.69 219.4 504.85 207.25 504.85 209.99 507.69"/><polygon class="cls-34" points="206.59 436.19 196.78 434.14 187.96 444.03 206.59 436.19"/><polygon class="cls-35" points="199.68 443.42 206.59 436.19 187.96 444.03 199.68 443.42"/><polygon class="cls-36" points="207.58 441.03 226.16 444.57 212.74 450.22 207.58 441.03"/><polygon class="cls-36" points="198.29 486.69 216.87 490.23 203.45 495.88 198.29 486.69"/><polygon class="cls-37" points="208.68 446.41 202.44 447.18 202 454.47 208.68 446.41"/><polygon class="cls-37" points="223.08 478.63 216.84 479.4 216.4 486.69 223.08 478.63"/><polygon class="cls-38" points="210.85 457.24 216.03 452.63 229.69 459.99 210.85 457.24"/><polygon class="cls-39" points="222.02 461.68 229.69 459.99 210.85 457.24 222.02 461.68"/><polygon class="cls-38" points="211.62 461.21 203.15 459.99 198.24 468.2 211.62 461.21"/><polygon class="cls-40" points="205.19 468.99 211.62 461.21 198.24 468.2 205.19 468.99"/><polygon class="cls-41" points="219.4 508.49 228.31 511.01 220.27 515 219.4 508.49"/><polygon class="cls-41" points="220.77 520.59 214.09 518.02 204.43 526.98 220.77 520.59"/><polygon class="cls-42" points="216.11 532.13 220.77 520.59 204.43 526.98 216.11 532.13"/><polygon class="cls-43" points="221.35 528.19 233.22 525.08 233.22 535.1 221.35 528.19"/><polygon class="cls-44" points="225.24 536.48 233.22 535.1 221.35 528.19 225.24 536.48"/><polygon class="cls-45" points="221.29 539.39 203.91 547.77 210.47 557.96 221.29 539.39"/><polygon class="cls-46" points="220.83 546.76 232.15 544.76 235.21 556.73 220.83 546.76"/><polygon class="cls-47" points="224.47 553.66 235.21 556.73 220.83 546.76 224.47 553.66"/><polygon class="cls-48" points="219.35 557.96 203.91 555.5 200.54 561.34 219.35 557.96"/><polygon class="cls-49" points="211.74 562.41 219.35 557.96 200.54 561.34 211.74 562.41"/><polygon class="cls-49" points="216.29 573.33 223.85 582.36 233.22 572.69 216.29 573.33"/><polygon class="cls-50" points="226.75 568.7 233.22 572.69 216.29 573.33 226.75 568.7"/><polygon class="cls-51" points="214.57 580.71 206.21 577.52 194.35 586.86 214.57 580.71"/><polygon class="cls-52" points="203.91 588.09 194.35 586.86 214.57 580.71 203.91 588.09"/><polygon class="cls-52" points="212.31 589.97 225.65 591.15 214.57 598.11 212.31 589.97"/><polygon class="cls-53" points="209.94 599.69 199.29 598.11 183.71 609.57 209.94 599.69"/><polygon class="cls-54" points="199.29 609.57 209.94 599.69 183.71 609.57 199.29 609.57"/><polygon class="cls-55" points="207.44 610.68 219.35 610.68 221.35 620.82 207.44 610.68"/><polygon class="cls-55" points="205.3 621.62 216.29 619.8 225.65 632.48 205.3 621.62"/><polygon class="cls-56" points="209.94 630.23 225.65 632.48 205.3 621.62 209.94 630.23"/><polygon class="cls-42" points="203.39 635.33 182.89 647.57 185.5 636.06 203.39 635.33"/><polygon class="cls-57" points="196.83 630.08 203.39 635.33 185.5 636.06 196.83 630.08"/><polygon class="cls-58" points="202.85 642.35 209.94 639.13 217.41 649.1 202.85 642.35"/><polygon class="cls-59" points="207.44 649.1 217.41 649.1 202.85 642.35 207.44 649.1"/><polygon class="cls-59" points="202.73 652.77 190.26 652.77 181.66 664.45 197.47 662.61 202.73 652.77"/><polygon class="cls-60" points="203.74 664.45 212.31 660.76 222.48 671.35 203.74 664.45"/><polygon class="cls-61" points="210.13 672.27 222.48 671.35 203.74 664.45 210.13 672.27"/><polygon class="cls-61" points="206.67 678.14 199.29 675.03 190.56 683.63 206.67 678.14"/><polygon class="cls-62" points="198.62 686.54 206.67 678.14 190.56 683.63 198.62 686.54"/><polygon class="cls-62" points="217.41 686.54 207.74 683.63 214.39 692.22 217.41 686.54"/><polygon class="cls-63" points="215.48 682.34 207.74 683.63 217.41 686.54 215.48 682.34"/><polygon class="cls-64" points="208.77 694.22 199.29 692.22 192.2 701.74 208.77 694.22"/><polygon class="cls-65" points="200.48 701.74 208.77 694.22 192.2 701.74 200.48 701.74"/><polygon class="cls-66" points="208.74 701.74 215.48 707.72 218.98 701.74 208.74 701.74"/><polygon class="cls-67" points="208.12 709.09 203.74 705.57 196.85 709.09 208.12 709.09"/><polygon class="cls-68" points="199.29 712.63 208.12 709.09 196.85 709.09 199.29 712.63"/><polygon class="cls-68" points="207.2 714.88 214.5 718 208.77 720.45 207.2 714.88"/><polygon class="cls-69" points="205.62 721.68 196.85 722.45 195.32 731.04 205.62 721.68"/><polygon class="cls-69" points="203.15 368.86 197.78 366.7 203.88 357.49 203.15 368.86"/><polygon class="cls-70" points="205.91 362.48 203.88 357.49 203.15 368.86 205.91 362.48"/><polygon class="cls-71" points="210.47 375.46 205.91 373.72 202.6 379.55 210.47 375.46"/><polygon class="cls-72" points="207.67 379.35 210.47 375.46 202.6 379.55 207.67 379.35"/></g><path id="_4-2" data-name="4" class="cls-24" d="M451.69,789.08c8.29-26.4-8.28-49.72-5.21-81s22.71-122.75,13.5-159-15.65-63.22-15.65-68.28-3.33-18.92-8.88-9.08" transform="translate(-215.71 -103.61)"/><g id="_4-3" data-name="4"><polygon class="cls-73" points="219.06 372.17 209.59 367.54 209.59 356.19 219.06 372.17"/><polygon class="cls-74" points="215.42 359.46 219.06 372.17 209.59 356.19 215.42 359.46"/><polygon class="cls-75" points="224.65 365.08 222.58 372.17 224.65 377.21 224.65 365.08"/><polygon class="cls-75" points="250.85 421.81 243.39 422.03 239.46 425.96 250.85 421.81"/><polygon class="cls-75" points="227.34 369.74 238.13 369.18 234.14 377.98 227.34 369.74"/><polygon class="cls-75" points="227.34 420.92 238.13 420.36 234.14 429.16 227.34 420.92"/><polygon class="cls-76" points="229.01 380.71 222.58 378.39 215.73 384.12 229.01 380.71"/><polygon class="cls-77" points="223.09 384.52 229.01 380.71 215.73 384.12 223.09 384.52"/><polygon class="cls-76" points="249.99 412.63 243.56 410.3 236.71 416.03 249.99 412.63"/><polygon class="cls-77" points="244.07 416.44 249.99 412.63 236.71 416.03 244.07 416.44"/><polygon class="cls-77" points="229.98 385.97 235.98 382.99 243.35 387.9 229.98 385.97"/><polygon class="cls-78" points="231.05 391.07 224.65 389.84 219.74 395.88 231.05 391.07"/><polygon class="cls-79" points="226.47 396.39 231.05 391.07 219.74 395.88 226.47 396.39"/><polygon class="cls-78" points="240.04 429.16 234.05 431.73 233.38 439.49 240.04 429.16"/><polygon class="cls-79" points="239.23 436.13 240.04 429.16 233.38 439.49 239.23 436.13"/><polygon class="cls-79" points="232.74 398.57 224.65 399.05 223.62 406.41 232.74 398.57"/><polygon class="cls-80" points="233.99 403.93 239.43 400.15 248.87 403.45 233.99 403.93"/><polygon class="cls-81" points="238.13 406.41 248.87 403.45 233.99 403.93 238.13 406.41"/><polygon class="cls-82" points="235.63 410.79 229.98 408.97 225.4 415.49 235.63 410.79"/><polygon class="cls-83" points="231.69 415.95 235.63 410.79 225.4 415.49 231.69 415.95"/><polygon class="cls-78" points="241.64 435.12 245.16 431.45 257.85 434.75 241.64 435.12"/><polygon class="cls-84" points="248.87 438.05 257.85 434.75 241.64 435.12 248.87 438.05"/><polygon class="cls-85" points="243.6 442.88 236.13 442.27 228.18 449.1 243.6 442.88"/><polygon class="cls-86" points="241.43 447.87 243.6 442.88 228.18 449.1 241.43 447.87"/><polygon class="cls-87" points="245.16 449.65 247.18 444.65 253.78 449.1 245.16 449.65"/><polygon class="cls-88" points="249.47 452.55 253.78 449.1 245.16 449.65 249.47 452.55"/><polygon class="cls-89" points="246.14 457.07 240.04 454.85 233.38 460.07 246.14 457.07"/><polygon class="cls-90" points="242.04 462.98 246.14 457.07 233.38 460.07 242.04 462.98"/><polygon class="cls-91" points="246.62 465.28 252.05 468.74 253.78 464.18 246.62 465.28"/><polygon class="cls-91" points="246.7 472.26 241.64 469.27 226.62 475.64 246.7 472.26"/><polygon class="cls-92" points="234.98 478.25 246.7 472.26 226.62 475.64 234.98 478.25"/><polygon class="cls-93" points="246.62 478.25 253.78 480.47 253.78 484.16 246.62 478.25"/><polygon class="cls-94" points="249.87 483.08 253.78 484.16 246.62 478.25 249.87 483.08"/><polygon class="cls-94" points="246.22 486.3 241.89 483.54 230.15 488.45 246.22 486.3"/><polygon class="cls-95" points="239.05 490.22 246.22 486.3 230.15 488.45 239.05 490.22"/><polygon class="cls-96" points="245.79 492.67 259.61 493.59 252.7 497.35 245.79 492.67"/><polygon class="cls-97" points="244.98 502.11 242.2 497.35 231.69 503.34 244.98 502.11"/><polygon class="cls-98" points="240.35 508.25 244.98 502.11 231.69 503.34 240.35 508.25"/><polygon class="cls-97" points="230.51 607.15 227.72 602.39 217.21 608.38 230.51 607.15"/><polygon class="cls-98" points="225.88 613.29 230.51 607.15 217.21 608.38 225.88 613.29"/><polygon class="cls-98" points="244.1 510.63 251.02 515.07 259.07 509.17 244.1 510.63"/><polygon class="cls-98" points="217.19 596.15 224.11 600.59 232.16 594.68 217.19 596.15"/><polygon class="cls-99" points="242.84 521.22 236.21 513.54 222.09 519.37 242.84 521.22"/><polygon class="cls-100" points="228 524.59 242.84 521.22 222.09 519.37 228 524.59"/><polygon class="cls-101" points="241.72 529.8 248.87 526.66 257.77 531.26 241.72 529.8"/><polygon class="cls-102" points="253.17 534.48 241.72 529.8 257.77 531.26 253.17 534.48"/><polygon class="cls-103" points="240.41 539.16 237.44 533.87 227.08 539.47 240.41 539.16"/><polygon class="cls-104" points="231 543.15 240.41 539.16 227.08 539.47 231 543.15"/><polygon class="cls-103" points="245.79 589.79 242.83 584.5 232.47 590.11 245.79 589.79"/><polygon class="cls-104" points="236.38 593.79 245.79 589.79 232.47 590.11 236.38 593.79"/><polygon class="cls-105" points="239.19 547.44 253.7 542.77 258.31 547.44 239.19 547.44"/><polygon class="cls-106" points="245.8 551.98 258.31 547.44 239.19 547.44 245.8 551.98"/><polygon class="cls-106" points="238.16 554.21 233.75 550.89 223.86 553.89 238.16 554.21"/><polygon class="cls-106" points="237.42 559.03 241.72 569.54 247.64 563.25 237.42 559.03"/><path class="cls-107" d="M460.13,659.88c.23.23,3.23,7,3.23,7l-10.23-4.22Z" transform="translate(-215.71 -103.61)"/><polygon class="cls-108" points="236.25 566.51 231.01 562 221.25 568.04 236.25 566.51"/><polygon class="cls-109" points="227.08 571.48 236.25 566.51 221.25 568.04 227.08 571.48"/><polygon class="cls-109" points="235.16 573.46 240.41 579.49 244.57 575.09 235.16 573.46"/><polygon class="cls-110" points="233.73 582.65 228.75 576.48 213.89 579.49 233.73 582.65"/><polygon class="cls-111" points="224.93 584.91 233.73 582.65 213.89 579.49 224.93 584.91"/><polygon class="cls-112" points="230.51 616.32 241.91 622.35 249.79 616.93 230.51 616.32"/><polygon class="cls-113" points="241.91 613.29 249.79 616.93 230.51 616.32 241.91 613.29"/><polygon class="cls-114" points="231.47 626.74 227.9 620.21 216.24 627.47 231.47 626.74"/><polygon class="cls-115" points="223.3 630.84 231.47 626.74 216.24 627.47 223.3 630.84"/><polygon class="cls-116" points="232.54 633.19 238.05 628.79 250.71 631.56 232.54 633.19"/><polygon class="cls-117" points="244.78 634.63 250.71 631.56 232.54 633.19 244.78 634.63"/><polygon class="cls-117" points="233.87 639.88 227.39 636.78 216.24 641.07 233.87 639.88"/><polygon class="cls-118" points="234.91 644.81 243.96 654.78 247.95 643.94 234.91 644.81"/><polygon class="cls-119" points="236.3 651.63 230.51 648.85 222.79 652.22 236.3 651.63"/><polygon class="cls-120" points="229.23 654.78 236.3 651.63 222.79 652.22 229.23 654.78"/><polygon class="cls-121" points="237.57 659.29 243.45 656.31 251.53 659.89 237.57 659.29"/><polygon class="cls-122" points="243.14 663.17 251.53 659.89 237.57 659.29 243.14 663.17"/><polygon class="cls-123" points="238.05 665.73 231.47 668.69 231.47 663.17 238.05 665.73"/><polygon class="cls-124" points="238.32 669.92 242.12 667.87 244.55 673.19 238.32 669.92"/><polygon class="cls-125" points="240.59 674.11 244.55 673.19 238.32 669.92 240.59 674.11"/><polygon class="cls-125" points="238.05 675.25 234.91 672.68 227.59 676.16 238.05 675.25"/><polygon class="cls-125" points="237.22 680.68 240.48 685.47 246.7 684.03 237.22 680.68"/><polygon class="cls-126" points="243.04 678.41 246.7 684.03 237.22 680.68 243.04 678.41"/></g><path id="_2-2" data-name="2" class="cls-24" d="M502.33,839.4c21.48-6.75,27-76.1,11.66-108s-45.42-97.85-41.74-130.73,20.57-78.56,18.72-92.06-12.27-50.16-16.72-35.67" transform="translate(-215.71 -103.61)"/><g id="_2-3" data-name="2"><polygon class="cls-25" points="257.27 376.63 248.87 379.55 243.6 373.58 257.27 376.63"/><polygon class="cls-127" points="251.02 371.14 257.27 376.63 243.6 373.58 251.02 371.14"/><polygon class="cls-127" points="258.28 370.33 261.14 374.7 262.17 371.14 258.28 370.33"/><polygon class="cls-128" points="260.53 366.01 257.27 360.08 265.95 352.61 260.53 366.01"/><polygon class="cls-128" points="264.28 368.86 266.36 364.69 277.72 365.5 264.28 368.86"/><polygon class="cls-129" points="270.15 370.33 277.72 365.5 264.28 368.86 270.15 370.33"/><polygon class="cls-130" points="267.29 375.13 262.17 376.56 261.61 381.27 267.29 375.13"/><polygon class="cls-131" points="264.83 381.25 267.29 375.13 261.61 381.27 264.83 381.25"/><polygon class="cls-131" points="269.05 379.95 275.26 379.95 279.35 387.08 269.05 379.95"/><polygon class="cls-132" points="271.08 386.48 262.78 386.48 255.31 392.86 271.08 386.48"/><polygon class="cls-133" points="266.36 394.75 271.08 386.48 255.31 392.86 266.36 394.75"/><polygon class="cls-133" points="272.22 390.62 279.87 391.07 277.72 396.29 272.22 390.62"/><polygon class="cls-134" points="276.49 387.9 279.87 391.07 272.22 390.62 276.49 387.9"/><polygon class="cls-134" points="274.11 398.57 267.79 397.11 263.2 403.45 274.11 398.57"/><polygon class="cls-135" points="269.05 403.93 274.11 398.57 263.2 403.45 269.05 403.93"/><polygon class="cls-135" points="275.33 405.6 287.64 409.79 294.6 403.93 275.33 405.6"/><polygon class="cls-136" points="284.06 402.04 294.6 403.93 275.33 405.6 284.06 402.04"/><polygon class="cls-137" points="275.04 412.23 271.48 407.9 261.61 410.3 275.04 412.23"/><polygon class="cls-138" points="265.95 413.93 275.04 412.23 261.61 410.3 265.95 413.93"/><polygon class="cls-139" points="273.65 420.36 278.43 425.96 290.09 422.58 273.65 420.36"/><polygon class="cls-140" points="280.58 418.38 290.09 422.58 273.65 420.36 280.58 418.38"/><polygon class="cls-140" points="272.1 427.31 268.65 423 264.45 425.15 272.1 427.31"/><polygon class="cls-140" points="270.76 432.83 277.72 440.48 287.02 434.75 270.76 432.83"/><polygon class="cls-141" points="269.44 438.05 265.03 432.09 253.78 434.14 269.44 438.05"/><polygon class="cls-142" points="258.54 439.49 269.44 438.05 253.78 434.14 258.54 439.49"/><polygon class="cls-142" points="267.74 444.65 273.65 449.65 282.73 447.94 267.74 444.65"/><polygon class="cls-143" points="275.88 442.27 282.73 447.94 267.74 444.65 275.88 442.27"/><polygon class="cls-144" points="266.15 450.82 261.61 445.99 252.05 447.64 266.15 450.82"/><polygon class="cls-145" points="257.85 453.06 266.15 450.82 252.05 447.64 257.85 453.06"/><polygon class="cls-146" points="264.33 457.97 271.68 454.85 277.1 462.57 264.33 457.97"/><polygon class="cls-147" points="265.44 462.57 277.1 462.57 264.33 457.97 265.44 462.57"/><polygon class="cls-147" points="262.8 464.18 255.21 458.71 245.79 463.85 262.8 464.18"/><polygon class="cls-148" points="261.56 469.47 273.65 465.1 287.54 476.45 261.56 469.47"/><polygon class="cls-149" points="266.77 475.64 287.54 476.45 261.56 469.47 266.77 475.64"/><polygon class="cls-150" points="260.01 476.45 257.05 472.26 251.59 473.82 260.01 476.45"/><polygon class="cls-149" points="253.78 477.15 260.01 476.45 251.59 473.82 253.78 477.15"/><polygon class="cls-151" points="258.6 483.54 267.18 480.8 270.56 487.43 258.6 483.54"/><polygon class="cls-152" points="262.8 487.84 270.56 487.43 258.6 483.54 262.8 487.84"/><polygon class="cls-153" points="257.46 490.22 251.59 487.84 246.14 491.28 257.46 490.22"/><polygon class="cls-154" points="252.7 492.24 257.46 490.22 246.14 491.28 252.7 492.24"/><polygon class="cls-155" points="256.43 498.17 263.7 493.79 270.15 499.81 256.43 498.17"/><polygon class="cls-156" points="260.01 502.78 270.15 499.81 256.43 498.17 260.01 502.78"/><polygon class="cls-157" points="256.26 504.85 251.59 502.11 240.99 506.27 256.26 504.85"/><polygon class="cls-158" points="250.2 509.17 256.26 504.85 240.99 506.27 250.2 509.17"/><polygon class="cls-159" points="256.88 512.88 261.56 509.17 271.07 512.12 256.88 512.88"/><polygon class="cls-160" points="262.48 515.07 271.07 512.12 256.88 512.88 262.48 515.07"/><polygon class="cls-161" points="258.07 520.59 252.05 518.02 247.23 522.5 258.07 520.59"/><polygon class="cls-162" points="252.65 524.59 258.07 520.59 247.23 522.5 252.65 524.59"/><polygon class="cls-163" points="259.66 528.19 264.58 523.95 278.43 528.19 259.66 528.19"/><polygon class="cls-164" points="271.07 531.26 278.43 528.19 259.66 528.19 271.07 531.26"/><polygon class="cls-164" points="261.5 535.52 255.52 533.87 248.63 536.67 261.5 535.52"/><polygon class="cls-165" points="263.1 541.16 264.42 536.48 274.85 542.05 263.1 541.16"/><polygon class="cls-166" points="269.05 544.76 274.85 542.05 263.1 541.16 269.05 544.76"/><polygon class="cls-166" points="266.09 550.75 261.5 546.76 254.09 552.55 266.09 550.75"/><polygon class="cls-166" points="267.49 554.91 265.65 560.67 256.26 557.96 267.49 554.91"/><polygon class="cls-167" points="260.74 554.21 256.26 557.96 267.49 554.91 260.74 554.21"/><polygon class="cls-168" points="270.14 562.41 273.11 556.73 281.19 558.42 270.14 562.41"/><polygon class="cls-169" points="276.18 565.02 281.19 558.42 270.14 562.41 276.18 565.02"/><polygon class="cls-169" points="273.07 570.24 264.83 566.51 250.41 574.38 273.07 570.24"/><polygon class="cls-167" points="276.1 577.95 278.43 571.48 294.7 573.46 276.1 577.95"/><polygon class="cls-170" points="285.08 580.71 294.7 573.46 276.1 577.95 285.08 580.71"/><polygon class="cls-171" points="279.76 586.86 271.78 584.4 266.09 590.54 279.76 586.86"/><polygon class="cls-172" points="276.1 592.28 279.76 586.86 266.09 590.54 276.1 592.28"/><polygon class="cls-173" points="283.56 595.75 284.47 591.79 299.2 592.28 283.56 595.75"/><polygon class="cls-174" points="296.95 596.47 299.2 592.28 283.56 595.75 296.95 596.47"/><polygon class="cls-175" points="286.85 603.2 279.15 602.39 276.1 609.57 286.85 603.2"/><polygon class="cls-176" points="282.83 610.22 286.85 603.2 276.1 609.57 282.83 610.22"/><polygon class="cls-176" points="290.87 612.04 294.7 605.98 315.36 607.15 290.87 612.04"/><polygon class="cls-177" points="300.83 615.75 315.36 607.15 290.87 612.04 300.83 615.75"/><polygon class="cls-178" points="294.96 620.82 290.4 616.93 283.56 625.32 294.96 620.82"/><polygon class="cls-179" points="290.87 625.32 294.96 620.82 283.56 625.32 290.87 625.32"/><polygon class="cls-180" points="299.42 630.31 301.04 623.84 321.29 624.4 299.42 630.31"/><polygon class="cls-181" points="314.24 630.84 321.29 624.4 299.42 630.31 314.24 630.84"/><polygon class="cls-182" points="301.78 636.78 297.66 634.63 286.85 642.35 301.78 636.78"/><polygon class="cls-183" points="294.31 644.75 301.78 636.78 286.85 642.35 294.31 644.75"/><polygon class="cls-183" points="303.74 644.12 310.36 641.48 324.46 644.75 303.74 644.12"/><polygon class="cls-184" points="305.43 653.2 299.42 660.76 287.74 655.5 305.43 653.2"/><polygon class="cls-185" points="299.81 650.53 305.43 653.2 287.74 655.5 299.81 650.53"/><polygon class="cls-185" points="307 660.76 310.76 656.98 320.68 663.17 307 660.76"/><polygon class="cls-186" points="312.7 666.06 320.68 663.17 307 660.76 312.7 666.06"/><polygon class="cls-186" points="307 674.42 298.28 678.41 287.74 675.65 307 674.42"/><polygon class="cls-187" points="301.78 669.1 307 674.42 287.74 675.65 301.78 669.1"/><polygon class="cls-188" points="306.86 682.34 311.68 686.08 320.17 683.08 306.86 682.34"/><polygon class="cls-189" points="316.28 679.84 320.17 683.08 306.86 682.34 316.28 679.84"/><polygon class="cls-189" points="306.23 691.52 303.6 686.54 294.29 690.89 306.23 691.52"/><polygon class="cls-190" points="300.26 695.59 306.23 691.52 294.29 690.89 300.26 695.59"/><polygon class="cls-190" points="305.2 699.58 310.55 703.16 316.59 700.3 305.2 699.58"/><polygon class="cls-191" points="312.29 695.59 316.59 700.3 305.2 699.58 312.29 695.59"/><polygon class="cls-191" points="303.29 709.22 301.55 704.73 291.94 706.23 303.29 709.22"/><polygon class="cls-192" points="296.23 711.14 303.29 709.22 291.94 706.23 296.23 711.14"/><polygon class="cls-193" points="300.91 717.27 303.8 722.8 313.51 720.04 300.91 717.27"/><polygon class="cls-194" points="309.02 715.75 313.51 720.04 300.91 717.27 309.02 715.75"/><polygon class="cls-194" points="298.3 723.58 296.74 718.61 285.59 718.61 298.3 723.58"/><polygon class="cls-195" points="295.82 727.95 296.44 733.75 303.29 732.42 295.82 727.95"/><polygon class="cls-196" points="301.86 727.41 303.29 732.42 295.82 727.95 301.86 727.41"/><polygon class="cls-196" points="291.64 732.86 291.94 728.43 284.16 727.95 291.64 732.86"/><polygon class="cls-196" points="287.74 735.38 289.07 740.3 294.29 741.22 287.74 735.38"/><polygon class="cls-197" points="293.67 736.72 294.29 741.22 287.74 735.38 293.67 736.72"/></g><path id="_1-2" data-name="1" class="cls-198" d="M497.33,997.14C473.48,928.4,460.59,890.35,472,839.4s37.13-130.73,32.22-179.83S475,544.19,474.25,522.09s15.08-45.2,17.64-40.81" transform="translate(-215.71 -103.61)"/><g id="_1-3" data-name="1"><polygon class="cls-25" points="277.1 379.55 284.96 377.5 285.85 370.33 277.1 379.55"/><polygon class="cls-25" points="274.11 377.52 276.49 372.52 269.44 366.77 274.11 377.52"/><polygon class="cls-199" points="269.44 374.7 269.44 366.77 274.11 377.52 269.44 374.7"/><polygon class="cls-200" points="268.82 383.51 276.49 382.09 283.7 392.86 268.82 383.51"/><polygon class="cls-201" points="271.08 391.68 283.7 392.86 268.82 383.51 271.08 391.68"/><polygon class="cls-202" points="266.24 387.9 266.15 381.27 257.85 379.95 266.24 387.9"/><polygon class="cls-203" points="259.1 386.48 266.24 387.9 257.85 379.95 259.1 386.48"/><polygon class="cls-204" points="262.65 395.88 269.44 393.73 274.46 400.28 262.65 395.88"/><polygon class="cls-205" points="263.75 400.15 274.46 400.28 262.65 395.88 263.75 400.15"/><polygon class="cls-205" points="260.87 401.25 258.84 397 248.87 397.11 260.87 401.25"/><polygon class="cls-206" points="259.77 405.6 264.45 404.93 269.89 408.97 259.77 405.6"/><polygon class="cls-207" points="262.65 408.97 269.89 408.97 259.77 405.6 262.65 408.97"/><polygon class="cls-208" points="258.9 410.79 256.54 405.6 242.04 406.06 258.9 410.79"/><polygon class="cls-209" points="251.25 411.43 258.9 410.79 242.04 406.06 251.25 411.43"/><polygon class="cls-210" points="258.52 416.03 262.04 413.17 267.74 416.03 258.52 416.03"/><polygon class="cls-211" points="264.33 418.38 267.74 416.03 258.52 416.03 264.33 418.38"/><polygon class="cls-212" points="258.75 421.47 256.23 418.02 249.75 419.75 258.75 421.47"/><polygon class="cls-213" points="254.87 423.63 258.75 421.47 249.75 419.75 254.87 423.63"/><polygon class="cls-214" points="259.44 426.47 264.83 421.47 273.65 425.96 259.44 426.47"/><polygon class="cls-215" points="265.37 429.16 273.65 425.96 259.44 426.47 265.37 429.16"/><polygon class="cls-216" points="260.5 432.09 256.23 428.61 247.26 430.35 260.5 432.09"/><polygon class="cls-217" points="254.87 436.81 260.5 432.09 247.26 430.35 254.87 436.81"/><polygon class="cls-218" points="261.93 438.52 265.52 434.75 273.65 438.05 261.93 438.52"/><polygon class="cls-219" points="265.82 441.42 273.65 438.05 261.93 438.52 265.82 441.42"/><polygon class="cls-220" points="263.52 445.11 259.44 441.03 249.99 442.27 263.52 445.11"/><polygon class="cls-221" points="257.85 447.64 263.52 445.11 249.99 442.27 257.85 447.64"/><polygon class="cls-222" points="265.19 451.65 268.28 446.72 277.72 445.99 265.19 451.65"/><polygon class="cls-223" points="271.45 451.65 277.72 445.99 265.19 451.65 271.45 451.65"/><polygon class="cls-224" points="266.55 456.85 261.61 454.02 252.7 456.31 266.55 456.85"/><polygon class="cls-225" points="260.01 460.27 266.55 456.85 252.7 456.31 260.01 460.27"/><polygon class="cls-226" points="268.28 463.37 270.76 457.97 284.31 457.97 268.28 463.37"/><polygon class="cls-227" points="277.72 464.44 284.31 457.97 268.28 463.37 277.72 464.44"/><polygon class="cls-227" points="269.86 469.27 265.19 466.05 255.39 467.05 269.86 469.27"/><polygon class="cls-228" points="271.51 475.49 272.58 469.89 281.25 472.69 271.51 475.49"/><polygon class="cls-229" points="277.72 477.48 281.25 472.69 271.51 475.49 277.72 477.48"/><polygon class="cls-229" points="273.03 481.2 269.35 478.63 261.93 481.2 273.03 481.2"/><polygon class="cls-230" points="268.66 485.08 273.03 481.2 261.93 481.2 268.66 485.08"/><polygon class="cls-231" points="275.1 489.13 276.3 484.12 290.76 484.12 275.1 489.13"/><polygon class="cls-232" points="281.94 491.28 290.76 484.12 275.1 489.13 281.94 491.28"/><polygon class="cls-232" points="276.87 496.05 273.73 493.21 264.33 496.05 276.87 496.05"/><polygon class="cls-233" points="271.51 499 276.87 496.05 264.33 496.05 271.51 499"/><polygon class="cls-234" points="278.67 503.34 280.94 497.52 289.07 501.04 278.67 503.34"/><polygon class="cls-235" points="284.55 507.01 289.07 501.04 278.67 503.34 284.55 507.01"/><polygon class="cls-235" points="280.37 510.5 275.67 505.18 261.5 510.5 280.37 510.5"/><polygon class="cls-236" points="281.62 515.97 283.87 510.5 301.5 510.5 281.62 515.97"/><polygon class="cls-237" points="289.07 517.76 301.5 510.5 281.62 515.97 289.07 517.76"/><polygon class="cls-238" points="283.14 523.03 279.56 518.6 271.73 523.03 283.14 523.03"/><polygon class="cls-239" points="278.94 526.36 283.14 523.03 271.73 523.03 278.94 526.36"/><polygon class="cls-240" points="284.56 530.09 287.77 523.51 303.49 525.66 284.56 530.09"/><polygon class="cls-241" points="292.14 532.13 303.49 525.66 284.56 530.09 292.14 532.13"/><polygon class="cls-241" points="285.62 535.88 282.78 532.13 268.05 534.01 285.62 535.88"/><polygon class="cls-242" points="277.44 539.39 285.62 535.88 268.05 534.01 277.44 539.39"/><polygon class="cls-243" points="286.65 542.05 290.68 536.7 300.27 539.47 286.65 542.05"/><polygon class="cls-244" points="292.37 545.99 300.27 539.47 286.65 542.05 292.37 545.99"/><polygon class="cls-245" points="287.8 550.14 284.56 545.53 277.44 548.98 287.8 550.14"/><polygon class="cls-246" points="283.87 551.98 287.8 550.14 277.44 548.98 283.87 551.98"/><polygon class="cls-246" points="288.46 555.97 292.68 551.75 298.51 554.21 288.46 555.97"/><polygon class="cls-247" points="288.83 560.67 285.4 556.27 275.67 558.42 288.83 560.67"/><polygon class="cls-248" points="282.62 563.56 288.83 560.67 275.67 558.42 282.62 563.56"/><polygon class="cls-249" points="289.05 566.51 293.46 562.41 297.43 565.02 289.05 566.51"/><polygon class="cls-250" points="293.46 568.39 297.43 565.02 289.05 566.51 293.46 568.39"/><polygon class="cls-251" points="289.07 572.31 283.56 568.39 274.85 571.01 289.07 572.31"/><polygon class="cls-252" points="282.62 574.71 289.07 572.31 274.85 571.01 282.62 574.71"/><polygon class="cls-253" points="288.83 579.49 291.38 575.22 302.42 578.44 288.83 579.49"/><polygon class="cls-254" points="293.9 582.2 302.42 578.44 288.83 579.49 293.9 582.2"/><polygon class="cls-255" points="288.37 585.35 286 581.59 277.44 581.59 288.37 585.35"/><polygon class="cls-256" points="283.56 586.19 288.37 585.35 277.44 581.59 283.56 586.19"/><polygon class="cls-257" points="287.95 589.97 293.24 587.3 305.26 593.02 287.95 589.97"/><polygon class="cls-258" points="294.96 594.38 305.26 593.02 287.95 589.97 294.96 594.38"/><polygon class="cls-259" points="287.23 596.47 282.9 591.79 272.42 594.38 287.23 596.47"/><polygon class="cls-260" points="279.83 599.24 287.23 596.47 272.42 594.38 279.83 599.24"/><polygon class="cls-260" points="286.3 603.53 292.52 599.62 294.7 605.98 286.3 603.53"/><polygon class="cls-261" points="285.4 609.01 273.42 601.61 259.92 608.38 285.4 609.01"/><polygon class="cls-262" points="274.65 614.35 285.4 609.01 259.92 608.38 274.65 614.35"/><polygon class="cls-263" points="284.6 614.35 290.14 612.51 299.2 618.72 284.6 614.35"/><polygon class="cls-264" points="287.23 618.72 299.2 618.72 284.6 614.35 287.23 618.72"/><polygon class="cls-264" points="283.45 620.82 279.33 616.32 268.97 617.88 283.45 620.82"/><polygon class="cls-265" points="282.6 625.32 287.23 624.71 291.9 631.56 282.6 625.32"/><path class="cls-266" d="M501.11,735.17c.22.05,6.5,0,6.5,0l-9.3-6.24Z" transform="translate(-215.71 -103.61)"/><polygon class="cls-267" points="281.48 631 279.76 626.47 269.89 626.74 281.48 631"/><polygon class="cls-268" points="275.68 632.07 281.48 631 269.89 626.74 275.68 632.07"/><polygon class="cls-268" points="280.45 635.98 284.6 634.22 289.26 638.13 280.45 635.98"/><polygon class="cls-269" points="283.56 639.74 289.26 638.13 280.45 635.98 283.56 639.74"/><polygon class="cls-270" points="279.26 641.48 276.57 636.17 260.99 636.78 279.26 641.48"/><polygon class="cls-271" points="269.43 643.12 279.26 641.48 260.99 636.78 269.43 643.12"/><polygon class="cls-272" points="277.98 647.25 283.16 644.75 294.96 648.85 277.98 647.25"/><path class="cls-273" d="M499.27,754.55c.53,0,11.4-2.09,11.4-2.09l-17-1.6Z" transform="translate(-215.71 -103.61)"/><polygon class="cls-273" points="276.84 652.22 274.34 647.72 259.92 648.85 276.84 652.22"/><polygon class="cls-274" points="275.73 656.98 279.63 654.24 282.6 658.77 275.73 656.98"/><polygon class="cls-275" points="278.48 660.08 282.6 658.77 275.73 656.98 278.48 660.08"/><polygon class="cls-276" points="274.72 661.23 271.5 654.78 253.47 655.5 274.72 661.23"/><polygon class="cls-277" points="264.52 663.17 274.72 661.23 253.47 655.5 264.52 663.17"/><polygon class="cls-277" points="273.35 666.86 277.98 664.06 286.47 669.92 273.35 666.86"/><polygon class="cls-278" points="271.99 672.37 276.49 670.53 286 678.79 271.99 672.37"/><path class="cls-279" d="M492.05,782c.3-.16,9.66.38,9.66.38l-14-6.42Z" transform="translate(-215.71 -103.61)"/><polygon class="cls-280" points="270.56 678.09 269.43 671.35 260.53 678.09 270.56 678.09"/><polygon class="cls-281" points="266.75 683.08 270.56 678.09 260.53 678.09 266.75 683.08"/><polygon class="cls-281" points="269.31 683.08 276.57 681.46 281.62 690.07 269.31 683.08"/><polygon class="cls-282" points="267.91 688.56 264.75 684.85 252.94 688.56 267.91 688.56"/><polygon class="cls-283" points="262.14 692.68 267.91 688.56 252.94 688.56 262.14 692.68"/><polygon class="cls-272" points="266.86 692.68 272.88 691.52 284.31 700.97 266.86 692.68"/><polygon class="cls-284" points="272.81 699.2 284.31 700.97 266.86 692.68 272.81 699.2"/><polygon class="cls-285" points="265 699.97 261.68 696.24 249.18 698.11 265 699.97"/><polygon class="cls-286" points="258.31 703.16 265 699.97 249.18 698.11 258.31 703.16"/><polygon class="cls-286" points="263.51 705.81 267.91 703.73 274.57 713.7 263.51 705.81"/><polygon class="cls-287" points="262.37 710.3 260.92 706.57 253.55 711.14 262.37 710.3"/><polygon class="cls-288" points="257.09 713.09 262.37 710.3 253.55 711.14 257.09 713.09"/><polygon class="cls-289" points="261.2 714.98 266.52 713.09 269.81 720.04 261.2 714.98"/><polygon class="cls-290" points="264.37 720.04 269.81 720.04 261.2 714.98 264.37 720.04"/><polygon class="cls-290" points="259.79 720.67 257.96 716.56 244.04 716.23 259.79 720.67"/><polygon class="cls-291" points="250.41 722.37 259.79 720.67 244.04 716.23 250.41 722.37"/><polygon class="cls-119" points="258.7 725.17 263.91 722.8 271.73 729.27 258.7 725.17"/><polygon class="cls-292" points="264.67 730.4 271.73 729.27 258.7 725.17 264.67 730.4"/><polygon class="cls-293" points="257.65 729.61 254.47 724.75 244.5 726.04 257.65 729.61"/><polygon class="cls-294" points="251.48 731.96 257.65 729.61 244.5 726.04 251.48 731.96"/><polygon class="cls-295" points="256.33 735.38 261.2 733.19 266.98 738.3 256.33 735.38"/><polygon class="cls-296" points="260.38 739.55 266.98 738.3 256.33 735.38 260.38 739.55"/><polygon class="cls-297" points="255.2 740.73 252.86 737.1 240.74 738.91 255.2 740.73"/><polygon class="cls-298" points="249.33 742.85 255.2 740.73 240.74 738.91 249.33 742.85"/><polygon class="cls-299" points="254.18 746.46 258.7 744.16 273.5 748.53 254.18 746.46"/><polygon class="cls-300" points="259.79 750.91 273.5 748.53 254.18 746.46 259.79 750.91"/><polygon class="cls-301" points="253.42 751.6 250.17 746.84 240.28 749.22 253.42 751.6"/><polygon class="cls-302" points="245.88 754.9 253.42 751.6 240.28 749.22 245.88 754.9"/><polygon class="cls-25" points="252.65 758.67 258.46 755.28 271.43 760.27 252.65 758.67"/><polygon class="cls-303" points="263.22 763.34 271.43 760.27 252.65 758.67 263.22 763.34"/><polygon class="cls-304" points="252.28 764.11 248.87 760.27 233.37 762.19 252.28 764.11"/><polygon class="cls-305" points="243.81 767.25 252.28 764.11 233.37 762.19 243.81 767.25"/><polygon class="cls-305" points="252.07 770.47 255.2 766.41 259.46 770.47 252.07 770.47"/><polygon class="cls-306" points="252.1 776.46 250.63 771.32 241.74 775.08 252.1 776.46"/><polygon class="cls-307" points="245.5 779.99 252.1 776.46 241.74 775.08 245.5 779.99"/><polygon class="cls-308" points="252.37 782.52 256.7 778.07 273.5 781.52 252.37 782.52"/><polygon class="cls-309" points="261.14 788.27 273.5 781.52 252.37 782.52 261.14 788.27"/><polygon class="cls-310" points="252.76 787.66 248.49 784.28 232.61 787.66 252.76 787.66"/><polygon class="cls-311" points="246.26 791.11 252.76 787.66 232.61 787.66 246.26 791.11"/><polygon class="cls-312" points="253.55 794.75 256.46 791.11 267.59 792.93 253.55 794.75"/><polygon class="cls-313" points="260.57 797.48 267.59 792.93 253.55 794.75 260.57 797.48"/><polygon class="cls-314" points="254.36 800.31 250.48 795.79 233.99 798.05 254.36 800.31"/><polygon class="cls-315" points="240.97 804.38 254.36 800.31 233.99 798.05 240.97 804.38"/><polygon class="cls-316" points="255.35 806.02 257.46 802.31 267.21 804.77 255.35 806.02"/><polygon class="cls-317" points="260.92 808.68 267.21 804.77 255.35 806.02 260.92 808.68"/><polygon class="cls-318" points="256.41 811.39 252.37 808.29 242.27 810.98 256.41 811.39"/><polygon class="cls-319" points="250.87 815.05 256.41 811.39 242.27 810.98 250.87 815.05"/><polygon class="cls-320" points="257.66 817.01 259.92 813.66 269.74 813.66 257.66 817.01"/><polygon class="cls-321" points="264.6 818.73 269.74 813.66 257.66 817.01 264.6 818.73"/><polygon class="cls-322" points="258.79 821.7 252.48 818.73 238.05 826.02 258.79 821.7"/><polygon class="cls-323" points="248.42 828.93 258.79 821.7 238.05 826.02 248.42 828.93"/><polygon class="cls-324" points="259.99 826.38 261.28 822.37 269.74 825.31 259.99 826.38"/><polygon class="cls-232" points="265.21 828.93 269.74 825.31 259.99 826.38 265.21 828.93"/><polygon class="cls-325" points="261.65 832.49 257.66 829.47 246.19 834.46 261.65 832.49"/><polygon class="cls-326" points="257.66 836.99 261.65 832.49 246.19 834.46 257.66 836.99"/><polygon class="cls-327" points="263.04 837.3 265.82 832.49 283.24 833.15 263.04 837.3"/><polygon class="cls-328" points="275.03 838.22 283.24 833.15 263.04 837.3 275.03 838.22"/><polygon class="cls-329" points="264.53 842.31 261.28 838.91 255.93 843.66 264.53 842.31"/><polygon class="cls-330" points="261.65 845.89 264.53 842.31 255.93 843.66 261.65 845.89"/><polygon class="cls-330" points="265.98 847.01 269.74 842.89 283.24 845.89 265.98 847.01"/><polygon class="cls-331" points="267.69 852.4 263.37 849.03 250.79 855.25 267.69 852.4"/><polygon class="cls-332" points="262.53 857.93 267.69 852.4 250.79 855.25 262.53 857.93"/><polygon class="cls-333" points="269.49 857.93 272.35 854.71 285.46 855.25 269.49 857.93"/><polygon class="cls-334" points="276.41 859.7 285.46 855.25 269.49 857.93 276.41 859.7"/><polygon class="cls-335" points="271.09 862.78 265.98 860.69 257.62 865.83 271.09 862.78"/><polygon class="cls-336" points="267.69 866.99 271.09 862.78 257.62 865.83 267.69 866.99"/><polygon class="cls-337" points="273.14 868.29 275.34 864.38 286.62 864.88 273.14 868.29"/><polygon class="cls-338" points="279.33 870.21 286.62 864.88 273.14 868.29 279.33 870.21"/><polygon class="cls-338" points="274.61 873.22 270.56 870.21 262.53 873.22 274.61 873.22"/><polygon class="cls-339" points="276.01 877.32 278.48 874.35 286.62 874.81 276.01 877.32"/><polygon class="cls-340" points="281.63 879.11 286.62 874.81 276.01 877.32 281.63 879.11"/><polygon class="cls-341" points="277.48 881.56 271.09 878.8 267.69 883.63 277.48 881.56"/><polygon class="cls-342" points="274.11 885.4 277.48 881.56 267.69 883.63 274.11 885.4"/><polygon class="cls-342" points="279.04 886.08 281.31 882.87 292.52 885.4 279.04 886.08"/><polygon class="cls-343" points="280.4 890.02 277.1 887.93 274.61 892.23 280.4 890.02"/><polygon class="cls-344" points="278.64 893.91 280.4 890.02 274.61 892.23 278.64 893.91"/><polygon class="cls-345" points="281.31 892.66 282.78 890.02 288.38 893.53 281.31 892.66"/><polygon class="cls-346" points="284.85 895.22 288.38 893.53 281.31 892.66 284.85 895.22"/></g></g><g id="klavesnice"><rect class="cls-12" x="529.64" y="465.43" width="293.87" height="4.7"/><polygon class="cls-21" points="805.5 457.56 803.48 457.56 803.48 455.26 786.92 455.26 786.92 457.56 783.92 457.56 783.92 455.26 767.35 455.26 767.35 457.56 764.09 457.56 764.09 455.26 747.53 455.26 747.53 457.56 743.48 457.56 743.48 455.26 726.92 455.26 726.92 457.56 724.05 457.56 724.05 455.26 707.48 455.26 707.48 457.56 705 457.56 705 455.26 688.44 455.26 688.44 457.56 685.7 457.56 685.7 455.26 669.14 455.26 669.14 457.56 665.35 457.56 665.35 455.26 648.79 455.26 648.79 457.56 645.53 457.56 645.53 455.26 628.96 455.26 628.96 457.56 625.44 457.56 625.44 455.26 608.88 455.26 608.88 457.56 605.88 457.56 605.88 455.26 589.31 455.26 589.31 457.56 585.79 457.56 585.79 455.26 569.22 455.26 569.22 457.56 566.22 457.56 566.22 455.26 549.66 455.26 549.66 457.56 547.64 457.56 529.64 465.44 634.11 465.44 719.03 465.44 823.5 465.44 805.5 457.56"/></g><g id="mys"><path class="cls-21" d="M1160.72,566.88c0,4.16-10.18,7.88-15.85,7.88s-68.09-4.5-70.83-5.09-7.24,0-7.24-2.93,2.55-12.33,29.16-13.5,48.32,2.54,54,4.5S1160.72,562.72,1160.72,566.88Z" transform="translate(-215.71 -103.61)"/><path class="cls-12" d="M1066.8,566.74c-.44,3.1,7.24,6.06,13.31,6.65s47,1.37,47,1.37h17.8s-22.3-.39-35.41-8-22.11-8-29.35-7.63S1067.39,562.63,1066.8,566.74Z" transform="translate(-215.71 -103.61)"/></g></svg>